<svg xmlns="http://www.w3.org/2000/svg" xmlns:xlink="http://www.w3.org/1999/xlink" width="500" zoomAndPan="magnify" viewBox="0 0 375 374.999991" height="500" preserveAspectRatio="xMidYMid meet" version="1.0"><defs><g/><clipPath id="3ef70ad698"><path d="M 126.90625 60.84375 L 276.90625 60.84375 L 276.90625 204 L 126.90625 204 Z M 126.90625 60.84375 " clip-rule="nonzero"/></clipPath><clipPath id="6a4295c1f3"><path d="M 98.09375 97.132812 L 248.09375 97.132812 L 248.09375 240 L 98.09375 240 Z M 98.09375 97.132812 " clip-rule="nonzero"/></clipPath></defs><g clip-path="url(#3ef70ad698)"><path fill="#004aad" d="M 274.320312 108.605469 C 266.203125 78.722656 241.652344 60.878906 208.644531 60.878906 L 126.90625 60.878906 L 128.519531 64.574219 C 135.445312 80.453125 151.121094 90.71875 168.449219 90.722656 L 190.707031 90.722656 L 190.886719 90.71875 C 191.734375 90.65625 194.859375 90.46875 199.546875 90.46875 C 204.058594 90.46875 208.652344 90.644531 213.1875 90.992188 L 213.632812 91.027344 C 230.996094 92.394531 254.789062 96.933594 269.492188 110.773438 L 269.679688 110.949219 C 269.757812 111.023438 269.835938 111.09375 269.90625 111.171875 L 276.90625 118.136719 Z M 276.558594 143.046875 L 276.539062 143.332031 C 272.125 180.570312 245.828125 203.699219 207.917969 203.699219 L 155.769531 203.699219 L 155.769531 133.203125 L 158.410156 133.203125 C 173.675781 133.203125 186.09375 145.621094 186.09375 160.890625 L 186.09375 173.371094 L 209.191406 173.371094 C 220.566406 173.371094 230.140625 169.636719 236.894531 162.566406 C 243.761719 155.375 247.390625 144.976562 247.390625 132.503906 L 247.390625 132.074219 C 247.390625 122.414062 245.269531 114.085938 241.078125 107.316406 L 237.164062 100.996094 L 244.1875 103.433594 C 252.898438 106.457031 259.964844 110.480469 265.191406 115.402344 C 272.824219 122.59375 276.648438 131.894531 276.558594 143.046875 " fill-opacity="1" fill-rule="nonzero"/></g><g clip-path="url(#6a4295c1f3)"><path fill="#38b6ff" d="M 100.679688 192.246094 C 108.796875 222.128906 133.347656 239.972656 166.355469 239.972656 L 248.09375 239.972656 L 246.480469 236.277344 C 239.554688 220.398438 223.878906 210.132812 206.550781 210.128906 L 184.292969 210.128906 L 184.113281 210.132812 C 183.265625 210.191406 180.140625 210.382812 175.453125 210.382812 C 170.941406 210.382812 166.347656 210.207031 161.8125 209.859375 L 161.367188 209.824219 C 144.003906 208.457031 120.210938 203.917969 105.507812 190.078125 L 105.320312 189.902344 C 105.242188 189.828125 105.164062 189.757812 105.09375 189.679688 L 98.09375 182.714844 Z M 98.441406 157.804688 L 98.460938 157.515625 C 102.875 120.28125 129.171875 97.152344 167.082031 97.152344 L 219.230469 97.152344 L 219.230469 167.648438 L 216.589844 167.648438 C 201.324219 167.648438 188.90625 155.226562 188.90625 139.960938 L 188.90625 127.480469 L 165.808594 127.480469 C 154.433594 127.480469 144.859375 131.214844 138.105469 138.285156 C 131.238281 145.476562 127.609375 155.875 127.609375 168.347656 L 127.609375 168.777344 C 127.609375 178.4375 129.730469 186.765625 133.921875 193.535156 L 137.835938 199.855469 L 130.8125 197.417969 C 122.101562 194.394531 115.03125 190.371094 109.808594 185.449219 C 102.175781 178.257812 98.351562 168.957031 98.441406 157.804688 " fill-opacity="1" fill-rule="nonzero"/></g><g fill="#000000" fill-opacity="1"><g transform="translate(72.59349, 279.73193)"><g><path d="M 2.6875 0.8125 C 2.570312 0.789062 2.488281 0.734375 2.4375 0.640625 C 2.382812 0.546875 2.359375 0.441406 2.359375 0.328125 C 2.359375 0.234375 2.378906 0.148438 2.421875 0.078125 L 4.34375 -3.609375 C 4.351562 -3.648438 4.367188 -3.8125 4.390625 -4.09375 C 4.421875 -4.375 4.453125 -4.726562 4.484375 -5.15625 C 4.515625 -5.582031 4.546875 -6.054688 4.578125 -6.578125 C 4.617188 -7.097656 4.660156 -7.613281 4.703125 -8.125 C 4.742188 -8.644531 4.785156 -9.132812 4.828125 -9.59375 C 4.867188 -10.0625 4.90625 -10.453125 4.9375 -10.765625 C 4.945312 -10.890625 4.960938 -11.082031 4.984375 -11.34375 C 5.003906 -11.601562 5.023438 -11.898438 5.046875 -12.234375 C 5.066406 -12.566406 5.09375 -12.925781 5.125 -13.3125 C 5.15625 -13.695312 5.1875 -14.085938 5.21875 -14.484375 L 5.4375 -17.765625 C 5.15625 -17.691406 4.859375 -17.617188 4.546875 -17.546875 C 4.242188 -17.484375 3.945312 -17.425781 3.65625 -17.375 C 3.375 -17.320312 3.101562 -17.273438 2.84375 -17.234375 C 2.59375 -17.203125 2.375 -17.1875 2.1875 -17.1875 C 2.070312 -17.1875 1.984375 -17.238281 1.921875 -17.34375 C 1.867188 -17.445312 1.84375 -17.554688 1.84375 -17.671875 C 1.84375 -17.816406 1.875 -17.921875 1.9375 -17.984375 L 5.921875 -21.703125 C 6.242188 -21.992188 6.5625 -22.226562 6.875 -22.40625 C 7.195312 -22.59375 7.582031 -22.738281 8.03125 -22.84375 C 8.488281 -22.945312 9.039062 -23.015625 9.6875 -23.046875 C 10.34375 -23.085938 11.175781 -23.109375 12.1875 -23.109375 C 13.90625 -23.109375 15.425781 -22.929688 16.75 -22.578125 C 18.082031 -22.222656 19.207031 -21.71875 20.125 -21.0625 C 20.8125 -20.582031 21.421875 -20.085938 21.953125 -19.578125 C 22.484375 -19.066406 22.929688 -18.5 23.296875 -17.875 C 23.660156 -17.25 23.9375 -16.5625 24.125 -15.8125 C 24.320312 -15.070312 24.421875 -14.226562 24.421875 -13.28125 C 24.421875 -11.488281 24.148438 -9.894531 23.609375 -8.5 C 23.078125 -7.113281 22.347656 -5.898438 21.421875 -4.859375 C 20.503906 -3.816406 19.429688 -2.929688 18.203125 -2.203125 C 16.972656 -1.484375 15.660156 -0.898438 14.265625 -0.453125 C 12.867188 -0.00390625 11.421875 0.316406 9.921875 0.515625 C 8.429688 0.710938 6.972656 0.8125 5.546875 0.8125 Z M 11.8125 -18.09375 L 11.625 -16.1875 C 11.5625 -15.53125 11.492188 -14.828125 11.421875 -14.078125 C 11.359375 -13.328125 11.289062 -12.566406 11.21875 -11.796875 C 11.15625 -11.023438 11.09375 -10.265625 11.03125 -9.515625 C 10.96875 -8.773438 10.910156 -8.078125 10.859375 -7.421875 C 10.804688 -6.773438 10.757812 -6.195312 10.71875 -5.6875 C 10.675781 -5.175781 10.640625 -4.765625 10.609375 -4.453125 L 10.5625 -3.984375 C 11.832031 -3.984375 12.90625 -4.1875 13.78125 -4.59375 C 14.65625 -5.007812 15.363281 -5.570312 15.90625 -6.28125 C 16.445312 -7 16.835938 -7.835938 17.078125 -8.796875 C 17.328125 -9.765625 17.453125 -10.804688 17.453125 -11.921875 C 17.453125 -12.710938 17.34375 -13.476562 17.125 -14.21875 C 16.90625 -14.957031 16.585938 -15.660156 16.171875 -16.328125 C 15.753906 -16.992188 15.238281 -17.492188 14.625 -17.828125 C 14.019531 -18.171875 13.335938 -18.34375 12.578125 -18.34375 C 12.453125 -18.34375 12.316406 -18.3125 12.171875 -18.25 C 12.023438 -18.195312 11.90625 -18.144531 11.8125 -18.09375 Z M 11.8125 -18.09375 "/></g></g></g><g fill="#000000" fill-opacity="1"><g transform="translate(96.838013, 279.73193)"><g><path d="M 17.921875 -3.15625 C 17.910156 -3.113281 17.90625 -3.070312 17.90625 -3.03125 C 17.90625 -3 17.90625 -2.96875 17.90625 -2.9375 C 17.90625 -2.675781 17.945312 -2.457031 18.03125 -2.28125 C 18.113281 -2.113281 18.203125 -1.972656 18.296875 -1.859375 C 18.398438 -1.753906 18.492188 -1.664062 18.578125 -1.59375 C 18.660156 -1.519531 18.703125 -1.457031 18.703125 -1.40625 C 18.703125 -1.257812 18.546875 -1.125 18.234375 -1 L 14 0.796875 C 13.988281 0.804688 13.953125 0.8125 13.890625 0.8125 C 13.804688 0.8125 13.722656 0.738281 13.640625 0.59375 C 13.554688 0.445312 13.472656 0.257812 13.390625 0.03125 C 13.316406 -0.1875 13.242188 -0.421875 13.171875 -0.671875 C 13.109375 -0.929688 13.050781 -1.171875 13 -1.390625 C 12.34375 -0.628906 11.628906 -0.0703125 10.859375 0.28125 C 10.097656 0.632812 9.34375 0.8125 8.59375 0.8125 C 7.707031 0.8125 6.84375 0.617188 6 0.234375 C 5.164062 -0.148438 4.425781 -0.703125 3.78125 -1.421875 C 3.132812 -2.140625 2.613281 -3.003906 2.21875 -4.015625 C 1.832031 -5.035156 1.640625 -6.175781 1.640625 -7.4375 C 1.640625 -8.9375 1.851562 -10.300781 2.28125 -11.53125 C 2.71875 -12.769531 3.304688 -13.832031 4.046875 -14.71875 C 4.796875 -15.613281 5.664062 -16.300781 6.65625 -16.78125 C 7.644531 -17.269531 8.691406 -17.515625 9.796875 -17.515625 C 10.578125 -17.515625 11.316406 -17.351562 12.015625 -17.03125 C 12.722656 -16.71875 13.390625 -16.3125 14.015625 -15.8125 C 14.078125 -16.125 14.113281 -16.375 14.125 -16.5625 C 14.132812 -16.75 14.15625 -16.894531 14.1875 -17 C 14.226562 -17.101562 14.300781 -17.171875 14.40625 -17.203125 C 14.519531 -17.242188 14.695312 -17.273438 14.9375 -17.296875 C 15.6875 -17.398438 16.4375 -17.5 17.1875 -17.59375 C 17.9375 -17.6875 18.71875 -17.753906 19.53125 -17.796875 Z M 13.21875 -9.078125 C 13.320312 -9.671875 13.390625 -10.234375 13.421875 -10.765625 C 13.460938 -11.296875 13.492188 -11.78125 13.515625 -12.21875 C 13.347656 -12.34375 13.164062 -12.472656 12.96875 -12.609375 C 12.78125 -12.742188 12.570312 -12.867188 12.34375 -12.984375 C 12.125 -13.109375 11.890625 -13.207031 11.640625 -13.28125 C 11.398438 -13.351562 11.140625 -13.390625 10.859375 -13.390625 C 10.296875 -13.390625 9.820312 -13.207031 9.4375 -12.84375 C 9.0625 -12.476562 8.753906 -12.023438 8.515625 -11.484375 C 8.285156 -10.953125 8.117188 -10.390625 8.015625 -9.796875 C 7.910156 -9.203125 7.859375 -8.675781 7.859375 -8.21875 C 7.859375 -6.5625 8.078125 -5.347656 8.515625 -4.578125 C 8.953125 -3.804688 9.554688 -3.421875 10.328125 -3.421875 C 10.640625 -3.421875 10.988281 -3.507812 11.375 -3.6875 C 11.769531 -3.863281 12.164062 -4.109375 12.5625 -4.421875 Z M 13.21875 -9.078125 "/></g></g></g><g fill="#000000" fill-opacity="1"><g transform="translate(116.434621, 279.73193)"><g><path d="M 14.921875 0.5625 C 14.804688 0.59375 14.648438 0.640625 14.453125 0.703125 C 14.265625 0.773438 14.082031 0.8125 13.90625 0.8125 C 13.757812 0.8125 13.628906 0.773438 13.515625 0.703125 C 13.410156 0.628906 13.359375 0.503906 13.359375 0.328125 L 13.359375 0.234375 C 13.421875 -0.328125 13.472656 -0.804688 13.515625 -1.203125 C 13.554688 -1.597656 13.59375 -1.953125 13.625 -2.265625 C 13.664062 -2.585938 13.695312 -2.90625 13.71875 -3.21875 C 13.75 -3.539062 13.785156 -3.914062 13.828125 -4.34375 C 13.867188 -4.769531 13.914062 -5.269531 13.96875 -5.84375 C 14.03125 -6.425781 14.101562 -7.148438 14.1875 -8.015625 C 14.238281 -8.554688 14.285156 -9.101562 14.328125 -9.65625 C 14.367188 -10.207031 14.390625 -10.71875 14.390625 -11.1875 C 14.390625 -11.507812 14.363281 -11.800781 14.3125 -12.0625 C 14.269531 -12.332031 14.1875 -12.5625 14.0625 -12.75 C 13.945312 -12.945312 13.785156 -13.097656 13.578125 -13.203125 C 13.367188 -13.304688 13.101562 -13.359375 12.78125 -13.359375 C 12.539062 -13.359375 12.207031 -13.304688 11.78125 -13.203125 C 11.351562 -13.097656 10.929688 -12.925781 10.515625 -12.6875 C 10.097656 -12.445312 9.726562 -12.128906 9.40625 -11.734375 C 9.082031 -11.335938 8.898438 -10.851562 8.859375 -10.28125 C 8.796875 -9.507812 8.738281 -8.847656 8.6875 -8.296875 C 8.632812 -7.742188 8.585938 -7.273438 8.546875 -6.890625 C 8.503906 -6.515625 8.46875 -6.207031 8.4375 -5.96875 C 8.414062 -5.726562 8.398438 -5.523438 8.390625 -5.359375 C 8.378906 -5.316406 8.363281 -5.195312 8.34375 -5 C 8.320312 -4.8125 8.296875 -4.585938 8.265625 -4.328125 C 8.242188 -4.066406 8.21875 -3.789062 8.1875 -3.5 C 8.164062 -3.207031 8.140625 -2.929688 8.109375 -2.671875 C 8.085938 -2.410156 8.066406 -2.1875 8.046875 -2 C 8.023438 -1.8125 8.015625 -1.695312 8.015625 -1.65625 C 8.015625 -1.5625 8.019531 -1.484375 8.03125 -1.421875 C 8.039062 -1.367188 8.046875 -1.316406 8.046875 -1.265625 C 8.046875 -1.179688 8.003906 -1.109375 7.921875 -1.046875 C 7.835938 -0.992188 7.660156 -0.929688 7.390625 -0.859375 L 3.234375 0.5625 C 3.117188 0.601562 2.96875 0.65625 2.78125 0.71875 C 2.59375 0.78125 2.410156 0.8125 2.234375 0.8125 C 2.085938 0.8125 1.957031 0.773438 1.84375 0.703125 C 1.738281 0.628906 1.6875 0.503906 1.6875 0.328125 L 3.109375 -15.71875 C 3.140625 -16.0625 3.175781 -16.296875 3.21875 -16.421875 C 3.269531 -16.554688 3.390625 -16.644531 3.578125 -16.6875 C 4.535156 -16.875 5.515625 -17.0625 6.515625 -17.25 C 7.515625 -17.445312 8.492188 -17.703125 9.453125 -18.015625 C 9.535156 -18.015625 9.582031 -18 9.59375 -17.96875 C 9.613281 -17.945312 9.625 -17.910156 9.625 -17.859375 C 9.625 -17.835938 9.617188 -17.804688 9.609375 -17.765625 C 9.609375 -17.722656 9.59375 -17.625 9.5625 -17.46875 C 9.539062 -17.320312 9.503906 -17.097656 9.453125 -16.796875 C 9.410156 -16.503906 9.347656 -16.09375 9.265625 -15.5625 C 9.984375 -15.976562 10.660156 -16.3125 11.296875 -16.5625 C 11.929688 -16.820312 12.523438 -17.019531 13.078125 -17.15625 C 13.640625 -17.300781 14.164062 -17.394531 14.65625 -17.4375 C 15.15625 -17.488281 15.617188 -17.515625 16.046875 -17.515625 C 17.523438 -17.515625 18.597656 -17.066406 19.265625 -16.171875 C 19.929688 -15.285156 20.265625 -13.945312 20.265625 -12.15625 C 20.265625 -11.90625 20.257812 -11.644531 20.25 -11.375 C 20.238281 -11.101562 20.21875 -10.828125 20.1875 -10.546875 L 19.46875 -3.796875 C 19.414062 -3.359375 19.382812 -2.953125 19.375 -2.578125 C 19.363281 -2.210938 19.359375 -1.78125 19.359375 -1.28125 C 19.359375 -1.195312 19.359375 -1.125 19.359375 -1.0625 C 19.367188 -1.007812 19.375 -0.960938 19.375 -0.921875 C 19.375 -0.828125 19.332031 -0.753906 19.25 -0.703125 C 19.175781 -0.648438 19.003906 -0.582031 18.734375 -0.5 Z M 14.921875 0.5625 "/></g></g></g><g fill="#000000" fill-opacity="1"><g transform="translate(137.193208, 279.73193)"><g><path d="M 2.296875 -6.65625 C 2.429688 -8.09375 2.566406 -9.507812 2.703125 -10.90625 C 2.835938 -12.3125 2.957031 -13.753906 3.0625 -15.234375 C 3.082031 -15.578125 3.113281 -15.8125 3.15625 -15.9375 C 3.207031 -16.070312 3.328125 -16.160156 3.515625 -16.203125 C 4.410156 -16.378906 5.34375 -16.5625 6.3125 -16.75 C 7.28125 -16.945312 8.222656 -17.195312 9.140625 -17.5 C 9.171875 -17.507812 9.21875 -17.515625 9.28125 -17.515625 C 9.394531 -17.515625 9.453125 -17.472656 9.453125 -17.390625 L 8.046875 -2.109375 C 8.003906 -1.753906 7.960938 -1.507812 7.921875 -1.375 C 7.878906 -1.25 7.765625 -1.164062 7.578125 -1.125 C 6.691406 -0.851562 5.789062 -0.550781 4.875 -0.21875 C 3.96875 0.113281 3.007812 0.453125 2 0.796875 C 1.96875 0.804688 1.921875 0.8125 1.859375 0.8125 C 1.742188 0.8125 1.6875 0.757812 1.6875 0.65625 C 1.6875 0.644531 1.695312 0.503906 1.71875 0.234375 C 1.738281 -0.0351562 1.765625 -0.382812 1.796875 -0.8125 C 1.835938 -1.238281 1.878906 -1.71875 1.921875 -2.25 C 1.960938 -2.789062 2.003906 -3.328125 2.046875 -3.859375 C 2.097656 -4.390625 2.144531 -4.898438 2.1875 -5.390625 C 2.226562 -5.890625 2.265625 -6.3125 2.296875 -6.65625 Z M 3.46875 -19.1875 C 3.5 -19.632812 3.519531 -19.976562 3.53125 -20.21875 C 3.550781 -20.457031 3.566406 -20.640625 3.578125 -20.765625 C 3.585938 -20.890625 3.59375 -20.96875 3.59375 -21 C 3.59375 -21.03125 3.59375 -21.050781 3.59375 -21.0625 C 3.601562 -21.082031 3.609375 -21.113281 3.609375 -21.15625 C 3.617188 -21.207031 3.628906 -21.304688 3.640625 -21.453125 C 3.648438 -21.609375 3.664062 -21.832031 3.6875 -22.125 C 3.707031 -22.414062 3.738281 -22.816406 3.78125 -23.328125 C 3.800781 -23.671875 3.832031 -23.910156 3.875 -24.046875 C 3.925781 -24.179688 4.046875 -24.269531 4.234375 -24.3125 C 5.128906 -24.488281 6.0625 -24.671875 7.03125 -24.859375 C 8.007812 -25.054688 8.953125 -25.304688 9.859375 -25.609375 C 9.890625 -25.617188 9.9375 -25.625 10 -25.625 C 10.03125 -25.5625 10.070312 -25.519531 10.125 -25.5 L 10.171875 -25.46875 L 9.828125 -21.171875 C 9.796875 -20.816406 9.753906 -20.570312 9.703125 -20.4375 C 9.660156 -20.300781 9.550781 -20.21875 9.375 -20.1875 C 8.488281 -20.019531 7.585938 -19.835938 6.671875 -19.640625 C 5.765625 -19.441406 4.800781 -19.242188 3.78125 -19.046875 C 3.75 -19.035156 3.703125 -19.03125 3.640625 -19.03125 C 3.523438 -19.03125 3.46875 -19.082031 3.46875 -19.1875 Z M 3.46875 -19.1875 "/></g></g></g><g fill="#000000" fill-opacity="1"><g transform="translate(146.803083, 279.73193)"><g><path d="M 11.234375 -17.515625 C 12.234375 -17.515625 13.140625 -17.328125 13.953125 -16.953125 C 14.765625 -16.585938 15.457031 -16.109375 16.03125 -15.515625 C 16.613281 -14.929688 17.0625 -14.269531 17.375 -13.53125 C 17.695312 -12.800781 17.859375 -12.070312 17.859375 -11.34375 C 17.859375 -10.6875 17.65625 -10.03125 17.25 -9.375 C 16.851562 -8.726562 16.296875 -8.140625 15.578125 -7.609375 C 14.867188 -7.085938 14.007812 -6.664062 13 -6.34375 C 12 -6.019531 10.894531 -5.859375 9.6875 -5.859375 C 9.0625 -5.859375 8.398438 -5.921875 7.703125 -6.046875 C 7.742188 -5.597656 7.875 -5.207031 8.09375 -4.875 C 8.320312 -4.550781 8.601562 -4.285156 8.9375 -4.078125 C 9.269531 -3.867188 9.644531 -3.710938 10.0625 -3.609375 C 10.488281 -3.515625 10.929688 -3.46875 11.390625 -3.46875 C 11.890625 -3.46875 12.367188 -3.507812 12.828125 -3.59375 C 13.296875 -3.6875 13.742188 -3.804688 14.171875 -3.953125 C 14.609375 -4.097656 15.023438 -4.257812 15.421875 -4.4375 C 15.816406 -4.613281 16.191406 -4.796875 16.546875 -4.984375 C 16.640625 -5.003906 16.71875 -5.019531 16.78125 -5.03125 C 16.851562 -5.050781 16.921875 -5.0625 16.984375 -5.0625 C 16.984375 -5.0625 16.976562 -4.972656 16.96875 -4.796875 C 16.96875 -4.628906 16.96875 -4.394531 16.96875 -4.09375 C 16.96875 -3.789062 16.960938 -3.425781 16.953125 -3 C 16.953125 -2.570312 16.945312 -2.09375 16.9375 -1.5625 C 16.96875 -1.507812 16.988281 -1.457031 17 -1.40625 C 17.007812 -1.351562 17.015625 -1.3125 17.015625 -1.28125 C 17.015625 -1.15625 16.898438 -1.019531 16.671875 -0.875 C 16.441406 -0.726562 16.140625 -0.578125 15.765625 -0.421875 C 15.398438 -0.265625 14.976562 -0.113281 14.5 0.03125 C 14.019531 0.175781 13.535156 0.304688 13.046875 0.421875 C 12.554688 0.546875 12.078125 0.640625 11.609375 0.703125 C 11.148438 0.773438 10.75 0.8125 10.40625 0.8125 C 9.28125 0.8125 8.1875 0.613281 7.125 0.21875 C 6.0625 -0.164062 5.117188 -0.722656 4.296875 -1.453125 C 3.472656 -2.191406 2.8125 -3.082031 2.3125 -4.125 C 1.820312 -5.175781 1.578125 -6.351562 1.578125 -7.65625 C 1.578125 -9.03125 1.8125 -10.316406 2.28125 -11.515625 C 2.757812 -12.710938 3.425781 -13.753906 4.28125 -14.640625 C 5.132812 -15.535156 6.148438 -16.238281 7.328125 -16.75 C 8.515625 -17.257812 9.816406 -17.515625 11.234375 -17.515625 Z M 11.046875 -13.34375 C 10.617188 -13.34375 10.222656 -13.25 9.859375 -13.0625 C 9.503906 -12.882812 9.175781 -12.625 8.875 -12.28125 C 8.582031 -11.945312 8.320312 -11.539062 8.09375 -11.0625 C 7.875 -10.582031 7.695312 -10.054688 7.5625 -9.484375 C 8.644531 -9.671875 9.539062 -9.867188 10.25 -10.078125 C 10.96875 -10.285156 11.539062 -10.492188 11.96875 -10.703125 C 12.394531 -10.921875 12.695312 -11.140625 12.875 -11.359375 C 13.050781 -11.578125 13.140625 -11.785156 13.140625 -11.984375 C 13.140625 -12.171875 13.066406 -12.347656 12.921875 -12.515625 C 12.785156 -12.679688 12.613281 -12.828125 12.40625 -12.953125 C 12.195312 -13.078125 11.96875 -13.171875 11.71875 -13.234375 C 11.476562 -13.304688 11.253906 -13.34375 11.046875 -13.34375 Z M 11.046875 -13.34375 "/></g></g></g><g fill="#000000" fill-opacity="1"><g transform="translate(164.735237, 279.73193)"><g><path d="M 2.96875 -13.28125 C 3.09375 -14.71875 3.191406 -16.132812 3.265625 -17.53125 C 3.347656 -18.9375 3.4375 -20.378906 3.53125 -21.859375 C 3.550781 -22.203125 3.582031 -22.4375 3.625 -22.5625 C 3.675781 -22.695312 3.796875 -22.785156 3.984375 -22.828125 C 4.960938 -23.003906 5.941406 -23.179688 6.921875 -23.359375 C 7.898438 -23.546875 8.878906 -23.789062 9.859375 -24.09375 C 9.890625 -24.113281 9.9375 -24.125 10 -24.125 C 10.113281 -24.125 10.171875 -24.066406 10.171875 -23.953125 L 8.140625 -1.53125 L 8.140625 -1.265625 C 8.140625 -1.171875 8.097656 -1.09375 8.015625 -1.03125 C 7.941406 -0.976562 7.769531 -0.914062 7.5 -0.84375 L 3.390625 0.65625 C 3.273438 0.707031 3.125 0.757812 2.9375 0.8125 C 2.75 0.875 2.566406 0.90625 2.390625 0.90625 C 2.242188 0.90625 2.113281 0.867188 2 0.796875 C 1.894531 0.722656 1.84375 0.597656 1.84375 0.421875 L 1.84375 0.328125 C 1.925781 -0.722656 2.003906 -1.753906 2.078125 -2.765625 C 2.160156 -3.773438 2.242188 -4.816406 2.328125 -5.890625 C 2.421875 -6.972656 2.519531 -8.113281 2.625 -9.3125 C 2.726562 -10.519531 2.84375 -11.84375 2.96875 -13.28125 Z M 2.96875 -13.28125 "/></g></g></g><g fill="#000000" fill-opacity="1"><g transform="translate(174.502136, 279.73193)"><g/></g></g><g fill="#000000" fill-opacity="1"><g transform="translate(181.411197, 279.73193)"><g><path d="M 1.96875 -10.140625 C 1.96875 -11.347656 2.101562 -12.503906 2.375 -13.609375 C 2.65625 -14.710938 3.050781 -15.742188 3.5625 -16.703125 C 4.070312 -17.660156 4.691406 -18.523438 5.421875 -19.296875 C 6.148438 -20.078125 6.960938 -20.75 7.859375 -21.3125 C 8.765625 -21.875 9.742188 -22.304688 10.796875 -22.609375 C 11.847656 -22.910156 12.953125 -23.0625 14.109375 -23.0625 C 15.035156 -23.0625 15.84375 -23 16.53125 -22.875 C 17.226562 -22.757812 17.835938 -22.609375 18.359375 -22.421875 C 18.878906 -22.242188 19.3125 -22.046875 19.65625 -21.828125 C 20.007812 -21.609375 20.300781 -21.398438 20.53125 -21.203125 C 20.519531 -21.203125 20.515625 -21.164062 20.515625 -21.09375 C 20.515625 -20.925781 20.523438 -20.632812 20.546875 -20.21875 C 20.578125 -19.800781 20.609375 -19.335938 20.640625 -18.828125 C 20.679688 -18.316406 20.710938 -17.796875 20.734375 -17.265625 C 20.765625 -16.734375 20.78125 -16.273438 20.78125 -15.890625 C 20.78125 -15.828125 20.757812 -15.753906 20.71875 -15.671875 C 20.675781 -15.597656 20.570312 -15.5625 20.40625 -15.5625 C 20.3125 -15.5625 20.195312 -15.578125 20.0625 -15.609375 C 19.84375 -15.671875 19.566406 -15.8125 19.234375 -16.03125 C 18.898438 -16.257812 18.507812 -16.492188 18.0625 -16.734375 C 17.613281 -16.984375 17.113281 -17.207031 16.5625 -17.40625 C 16.019531 -17.601562 15.425781 -17.703125 14.78125 -17.703125 C 13.914062 -17.703125 13.132812 -17.519531 12.4375 -17.15625 C 11.738281 -16.789062 11.140625 -16.285156 10.640625 -15.640625 C 10.148438 -15.003906 9.769531 -14.242188 9.5 -13.359375 C 9.226562 -12.472656 9.09375 -11.507812 9.09375 -10.46875 C 9.09375 -9.5625 9.175781 -8.707031 9.34375 -7.90625 C 9.507812 -7.113281 9.757812 -6.425781 10.09375 -5.84375 C 10.4375 -5.269531 10.859375 -4.8125 11.359375 -4.46875 C 11.867188 -4.132812 12.460938 -3.96875 13.140625 -3.96875 C 13.796875 -3.96875 14.546875 -4.109375 15.390625 -4.390625 L 15.75 -6.609375 L 12.75 -6.609375 C 12.976562 -7.878906 13.175781 -8.875 13.34375 -9.59375 C 13.507812 -10.3125 13.664062 -10.851562 13.8125 -11.21875 C 13.957031 -11.59375 14.109375 -11.828125 14.265625 -11.921875 C 14.429688 -12.015625 14.617188 -12.0625 14.828125 -12.0625 L 23.078125 -12.0625 C 23.316406 -12.0625 23.488281 -12.046875 23.59375 -12.015625 C 23.707031 -11.984375 23.765625 -11.875 23.765625 -11.6875 C 23.765625 -11.59375 23.753906 -11.476562 23.734375 -11.34375 C 23.710938 -11.207031 23.6875 -11.046875 23.65625 -10.859375 L 22.875 -8.234375 C 22.78125 -7.890625 22.703125 -7.625 22.640625 -7.4375 C 22.578125 -7.257812 22.5 -7.125 22.40625 -7.03125 C 22.3125 -6.945312 22.179688 -6.894531 22.015625 -6.875 C 21.859375 -6.863281 21.628906 -6.859375 21.328125 -6.859375 C 21.160156 -6.859375 21.0625 -6.789062 21.03125 -6.65625 C 21 -6.519531 20.972656 -6.378906 20.953125 -6.234375 C 20.878906 -5.773438 20.8125 -5.316406 20.75 -4.859375 C 20.6875 -4.398438 20.625 -3.972656 20.5625 -3.578125 C 20.507812 -3.191406 20.453125 -2.847656 20.390625 -2.546875 C 20.328125 -2.253906 20.265625 -2.039062 20.203125 -1.90625 C 19.492188 -1.445312 18.847656 -1.046875 18.265625 -0.703125 C 17.679688 -0.367188 17.101562 -0.09375 16.53125 0.125 C 15.957031 0.351562 15.347656 0.523438 14.703125 0.640625 C 14.066406 0.753906 13.335938 0.8125 12.515625 0.8125 C 11.035156 0.8125 9.648438 0.546875 8.359375 0.015625 C 7.078125 -0.515625 5.960938 -1.265625 5.015625 -2.234375 C 4.066406 -3.203125 3.320312 -4.351562 2.78125 -5.6875 C 2.238281 -7.03125 1.96875 -8.515625 1.96875 -10.140625 Z M 1.96875 -10.140625 "/></g></g></g><g fill="#000000" fill-opacity="1"><g transform="translate(204.383824, 279.73193)"><g><path d="M 17.921875 -3.15625 C 17.910156 -3.113281 17.90625 -3.070312 17.90625 -3.03125 C 17.90625 -3 17.90625 -2.96875 17.90625 -2.9375 C 17.90625 -2.675781 17.945312 -2.457031 18.03125 -2.28125 C 18.113281 -2.113281 18.203125 -1.972656 18.296875 -1.859375 C 18.398438 -1.753906 18.492188 -1.664062 18.578125 -1.59375 C 18.660156 -1.519531 18.703125 -1.457031 18.703125 -1.40625 C 18.703125 -1.257812 18.546875 -1.125 18.234375 -1 L 14 0.796875 C 13.988281 0.804688 13.953125 0.8125 13.890625 0.8125 C 13.804688 0.8125 13.722656 0.738281 13.640625 0.59375 C 13.554688 0.445312 13.472656 0.257812 13.390625 0.03125 C 13.316406 -0.1875 13.242188 -0.421875 13.171875 -0.671875 C 13.109375 -0.929688 13.050781 -1.171875 13 -1.390625 C 12.34375 -0.628906 11.628906 -0.0703125 10.859375 0.28125 C 10.097656 0.632812 9.34375 0.8125 8.59375 0.8125 C 7.707031 0.8125 6.84375 0.617188 6 0.234375 C 5.164062 -0.148438 4.425781 -0.703125 3.78125 -1.421875 C 3.132812 -2.140625 2.613281 -3.003906 2.21875 -4.015625 C 1.832031 -5.035156 1.640625 -6.175781 1.640625 -7.4375 C 1.640625 -8.9375 1.851562 -10.300781 2.28125 -11.53125 C 2.71875 -12.769531 3.304688 -13.832031 4.046875 -14.71875 C 4.796875 -15.613281 5.664062 -16.300781 6.65625 -16.78125 C 7.644531 -17.269531 8.691406 -17.515625 9.796875 -17.515625 C 10.578125 -17.515625 11.316406 -17.351562 12.015625 -17.03125 C 12.722656 -16.71875 13.390625 -16.3125 14.015625 -15.8125 C 14.078125 -16.125 14.113281 -16.375 14.125 -16.5625 C 14.132812 -16.75 14.15625 -16.894531 14.1875 -17 C 14.226562 -17.101562 14.300781 -17.171875 14.40625 -17.203125 C 14.519531 -17.242188 14.695312 -17.273438 14.9375 -17.296875 C 15.6875 -17.398438 16.4375 -17.5 17.1875 -17.59375 C 17.9375 -17.6875 18.71875 -17.753906 19.53125 -17.796875 Z M 13.21875 -9.078125 C 13.320312 -9.671875 13.390625 -10.234375 13.421875 -10.765625 C 13.460938 -11.296875 13.492188 -11.78125 13.515625 -12.21875 C 13.347656 -12.34375 13.164062 -12.472656 12.96875 -12.609375 C 12.78125 -12.742188 12.570312 -12.867188 12.34375 -12.984375 C 12.125 -13.109375 11.890625 -13.207031 11.640625 -13.28125 C 11.398438 -13.351562 11.140625 -13.390625 10.859375 -13.390625 C 10.296875 -13.390625 9.820312 -13.207031 9.4375 -12.84375 C 9.0625 -12.476562 8.753906 -12.023438 8.515625 -11.484375 C 8.285156 -10.953125 8.117188 -10.390625 8.015625 -9.796875 C 7.910156 -9.203125 7.859375 -8.675781 7.859375 -8.21875 C 7.859375 -6.5625 8.078125 -5.347656 8.515625 -4.578125 C 8.953125 -3.804688 9.554688 -3.421875 10.328125 -3.421875 C 10.640625 -3.421875 10.988281 -3.507812 11.375 -3.6875 C 11.769531 -3.863281 12.164062 -4.109375 12.5625 -4.421875 Z M 13.21875 -9.078125 "/></g></g></g><g fill="#000000" fill-opacity="1"><g transform="translate(223.980432, 279.73193)"><g><path d="M 2.96875 -13.28125 C 3.09375 -14.71875 3.191406 -16.132812 3.265625 -17.53125 C 3.347656 -18.9375 3.4375 -20.378906 3.53125 -21.859375 C 3.550781 -22.203125 3.582031 -22.4375 3.625 -22.5625 C 3.675781 -22.695312 3.796875 -22.785156 3.984375 -22.828125 C 4.960938 -23.003906 5.941406 -23.179688 6.921875 -23.359375 C 7.898438 -23.546875 8.878906 -23.789062 9.859375 -24.09375 C 9.890625 -24.113281 9.9375 -24.125 10 -24.125 C 10.113281 -24.125 10.171875 -24.066406 10.171875 -23.953125 L 8.140625 -1.53125 L 8.140625 -1.265625 C 8.140625 -1.171875 8.097656 -1.09375 8.015625 -1.03125 C 7.941406 -0.976562 7.769531 -0.914062 7.5 -0.84375 L 3.390625 0.65625 C 3.273438 0.707031 3.125 0.757812 2.9375 0.8125 C 2.75 0.875 2.566406 0.90625 2.390625 0.90625 C 2.242188 0.90625 2.113281 0.867188 2 0.796875 C 1.894531 0.722656 1.84375 0.597656 1.84375 0.421875 L 1.84375 0.328125 C 1.925781 -0.722656 2.003906 -1.753906 2.078125 -2.765625 C 2.160156 -3.773438 2.242188 -4.816406 2.328125 -5.890625 C 2.421875 -6.972656 2.519531 -8.113281 2.625 -9.3125 C 2.726562 -10.519531 2.84375 -11.84375 2.96875 -13.28125 Z M 2.96875 -13.28125 "/></g></g></g><g fill="#000000" fill-opacity="1"><g transform="translate(233.747332, 279.73193)"><g><path d="M 2.96875 -13.28125 C 3.09375 -14.71875 3.191406 -16.132812 3.265625 -17.53125 C 3.347656 -18.9375 3.4375 -20.378906 3.53125 -21.859375 C 3.550781 -22.203125 3.582031 -22.4375 3.625 -22.5625 C 3.675781 -22.695312 3.796875 -22.785156 3.984375 -22.828125 C 4.960938 -23.003906 5.941406 -23.179688 6.921875 -23.359375 C 7.898438 -23.546875 8.878906 -23.789062 9.859375 -24.09375 C 9.890625 -24.113281 9.9375 -24.125 10 -24.125 C 10.113281 -24.125 10.171875 -24.066406 10.171875 -23.953125 L 8.140625 -1.53125 L 8.140625 -1.265625 C 8.140625 -1.171875 8.097656 -1.09375 8.015625 -1.03125 C 7.941406 -0.976562 7.769531 -0.914062 7.5 -0.84375 L 3.390625 0.65625 C 3.273438 0.707031 3.125 0.757812 2.9375 0.8125 C 2.75 0.875 2.566406 0.90625 2.390625 0.90625 C 2.242188 0.90625 2.113281 0.867188 2 0.796875 C 1.894531 0.722656 1.84375 0.597656 1.84375 0.421875 L 1.84375 0.328125 C 1.925781 -0.722656 2.003906 -1.753906 2.078125 -2.765625 C 2.160156 -3.773438 2.242188 -4.816406 2.328125 -5.890625 C 2.421875 -6.972656 2.519531 -8.113281 2.625 -9.3125 C 2.726562 -10.519531 2.84375 -11.84375 2.96875 -13.28125 Z M 2.96875 -13.28125 "/></g></g></g><g fill="#000000" fill-opacity="1"><g transform="translate(243.514231, 279.73193)"><g><path d="M 11.234375 -17.515625 C 12.234375 -17.515625 13.140625 -17.328125 13.953125 -16.953125 C 14.765625 -16.585938 15.457031 -16.109375 16.03125 -15.515625 C 16.613281 -14.929688 17.0625 -14.269531 17.375 -13.53125 C 17.695312 -12.800781 17.859375 -12.070312 17.859375 -11.34375 C 17.859375 -10.6875 17.65625 -10.03125 17.25 -9.375 C 16.851562 -8.726562 16.296875 -8.140625 15.578125 -7.609375 C 14.867188 -7.085938 14.007812 -6.664062 13 -6.34375 C 12 -6.019531 10.894531 -5.859375 9.6875 -5.859375 C 9.0625 -5.859375 8.398438 -5.921875 7.703125 -6.046875 C 7.742188 -5.597656 7.875 -5.207031 8.09375 -4.875 C 8.320312 -4.550781 8.601562 -4.285156 8.9375 -4.078125 C 9.269531 -3.867188 9.644531 -3.710938 10.0625 -3.609375 C 10.488281 -3.515625 10.929688 -3.46875 11.390625 -3.46875 C 11.890625 -3.46875 12.367188 -3.507812 12.828125 -3.59375 C 13.296875 -3.6875 13.742188 -3.804688 14.171875 -3.953125 C 14.609375 -4.097656 15.023438 -4.257812 15.421875 -4.4375 C 15.816406 -4.613281 16.191406 -4.796875 16.546875 -4.984375 C 16.640625 -5.003906 16.71875 -5.019531 16.78125 -5.03125 C 16.851562 -5.050781 16.921875 -5.0625 16.984375 -5.0625 C 16.984375 -5.0625 16.976562 -4.972656 16.96875 -4.796875 C 16.96875 -4.628906 16.96875 -4.394531 16.96875 -4.09375 C 16.96875 -3.789062 16.960938 -3.425781 16.953125 -3 C 16.953125 -2.570312 16.945312 -2.09375 16.9375 -1.5625 C 16.96875 -1.507812 16.988281 -1.457031 17 -1.40625 C 17.007812 -1.351562 17.015625 -1.3125 17.015625 -1.28125 C 17.015625 -1.15625 16.898438 -1.019531 16.671875 -0.875 C 16.441406 -0.726562 16.140625 -0.578125 15.765625 -0.421875 C 15.398438 -0.265625 14.976562 -0.113281 14.5 0.03125 C 14.019531 0.175781 13.535156 0.304688 13.046875 0.421875 C 12.554688 0.546875 12.078125 0.640625 11.609375 0.703125 C 11.148438 0.773438 10.75 0.8125 10.40625 0.8125 C 9.28125 0.8125 8.1875 0.613281 7.125 0.21875 C 6.0625 -0.164062 5.117188 -0.722656 4.296875 -1.453125 C 3.472656 -2.191406 2.8125 -3.082031 2.3125 -4.125 C 1.820312 -5.175781 1.578125 -6.351562 1.578125 -7.65625 C 1.578125 -9.03125 1.8125 -10.316406 2.28125 -11.515625 C 2.757812 -12.710938 3.425781 -13.753906 4.28125 -14.640625 C 5.132812 -15.535156 6.148438 -16.238281 7.328125 -16.75 C 8.515625 -17.257812 9.816406 -17.515625 11.234375 -17.515625 Z M 11.046875 -13.34375 C 10.617188 -13.34375 10.222656 -13.25 9.859375 -13.0625 C 9.503906 -12.882812 9.175781 -12.625 8.875 -12.28125 C 8.582031 -11.945312 8.320312 -11.539062 8.09375 -11.0625 C 7.875 -10.582031 7.695312 -10.054688 7.5625 -9.484375 C 8.644531 -9.671875 9.539062 -9.867188 10.25 -10.078125 C 10.96875 -10.285156 11.539062 -10.492188 11.96875 -10.703125 C 12.394531 -10.921875 12.695312 -11.140625 12.875 -11.359375 C 13.050781 -11.578125 13.140625 -11.785156 13.140625 -11.984375 C 13.140625 -12.171875 13.066406 -12.347656 12.921875 -12.515625 C 12.785156 -12.679688 12.613281 -12.828125 12.40625 -12.953125 C 12.195312 -13.078125 11.96875 -13.171875 11.71875 -13.234375 C 11.476562 -13.304688 11.253906 -13.34375 11.046875 -13.34375 Z M 11.046875 -13.34375 "/></g></g></g><g fill="#000000" fill-opacity="1"><g transform="translate(261.446385, 279.73193)"><g><path d="M 13.328125 -11.1875 C 13.222656 -11.4375 13.078125 -11.6875 12.890625 -11.9375 C 12.710938 -12.1875 12.503906 -12.414062 12.265625 -12.625 C 12.023438 -12.832031 11.757812 -13 11.46875 -13.125 C 11.1875 -13.257812 10.890625 -13.328125 10.578125 -13.328125 C 10.148438 -13.328125 9.75 -13.148438 9.375 -12.796875 C 9 -12.441406 8.664062 -11.96875 8.375 -11.375 C 8.09375 -10.78125 7.867188 -10.101562 7.703125 -9.34375 C 7.546875 -8.59375 7.46875 -7.804688 7.46875 -6.984375 C 7.46875 -6.484375 7.507812 -6.007812 7.59375 -5.5625 C 7.6875 -5.125 7.828125 -4.734375 8.015625 -4.390625 C 8.210938 -4.054688 8.457031 -3.789062 8.75 -3.59375 C 9.050781 -3.394531 9.410156 -3.296875 9.828125 -3.296875 C 10.453125 -3.296875 11.023438 -3.488281 11.546875 -3.875 C 12.078125 -4.269531 12.523438 -4.785156 12.890625 -5.421875 C 12.898438 -5.640625 12.914062 -5.898438 12.9375 -6.203125 C 12.957031 -6.503906 12.984375 -6.867188 13.015625 -7.296875 C 13.046875 -7.734375 13.082031 -8.25 13.125 -8.84375 C 13.175781 -9.4375 13.238281 -10.140625 13.3125 -10.953125 Z M 18.53125 -1.71875 C 18.425781 -0.675781 18.1875 0.289062 17.8125 1.1875 C 17.445312 2.09375 16.984375 2.914062 16.421875 3.65625 C 15.867188 4.40625 15.234375 5.078125 14.515625 5.671875 C 13.796875 6.265625 13.035156 6.765625 12.234375 7.171875 C 11.429688 7.578125 10.609375 7.890625 9.765625 8.109375 C 8.921875 8.328125 8.082031 8.4375 7.25 8.4375 C 6.8125 8.4375 6.363281 8.421875 5.90625 8.390625 C 5.445312 8.359375 4.992188 8.296875 4.546875 8.203125 C 4.109375 8.117188 3.691406 7.992188 3.296875 7.828125 C 2.898438 7.660156 2.546875 7.453125 2.234375 7.203125 L 2.234375 7.1875 C 2.234375 7.132812 2.269531 6.953125 2.34375 6.640625 C 2.425781 6.328125 2.519531 5.957031 2.625 5.53125 C 2.738281 5.113281 2.851562 4.675781 2.96875 4.21875 C 3.09375 3.769531 3.195312 3.382812 3.28125 3.0625 C 3.320312 2.914062 3.363281 2.816406 3.40625 2.765625 C 3.445312 2.710938 3.492188 2.6875 3.546875 2.6875 C 3.609375 2.6875 3.644531 2.691406 3.65625 2.703125 C 3.957031 2.898438 4.242188 3.0625 4.515625 3.1875 C 4.785156 3.320312 5.066406 3.425781 5.359375 3.5 C 5.660156 3.582031 5.988281 3.640625 6.34375 3.671875 C 6.695312 3.703125 7.109375 3.71875 7.578125 3.71875 C 8.316406 3.71875 8.96875 3.578125 9.53125 3.296875 C 10.09375 3.015625 10.578125 2.644531 10.984375 2.1875 C 11.398438 1.738281 11.726562 1.242188 11.96875 0.703125 C 12.21875 0.171875 12.390625 -0.351562 12.484375 -0.875 C 11.734375 -0.375 10.96875 0.03125 10.1875 0.34375 C 9.414062 0.65625 8.632812 0.8125 7.84375 0.8125 C 6.769531 0.8125 5.835938 0.59375 5.046875 0.15625 C 4.265625 -0.269531 3.617188 -0.847656 3.109375 -1.578125 C 2.597656 -2.316406 2.21875 -3.160156 1.96875 -4.109375 C 1.71875 -5.054688 1.59375 -6.046875 1.59375 -7.078125 C 1.59375 -7.898438 1.671875 -8.722656 1.828125 -9.546875 C 1.984375 -10.378906 2.207031 -11.179688 2.5 -11.953125 C 2.800781 -12.734375 3.171875 -13.460938 3.609375 -14.140625 C 4.046875 -14.816406 4.550781 -15.40625 5.125 -15.90625 C 5.707031 -16.40625 6.347656 -16.796875 7.046875 -17.078125 C 7.753906 -17.367188 8.519531 -17.515625 9.34375 -17.515625 C 10.238281 -17.515625 11.070312 -17.316406 11.84375 -16.921875 C 12.613281 -16.523438 13.3125 -16.035156 13.9375 -15.453125 C 13.957031 -15.640625 13.972656 -15.785156 13.984375 -15.890625 C 13.992188 -16.003906 14.019531 -16.09375 14.0625 -16.15625 C 14.101562 -16.21875 14.171875 -16.265625 14.265625 -16.296875 C 14.367188 -16.328125 14.519531 -16.363281 14.71875 -16.40625 C 14.832031 -16.425781 15.039062 -16.46875 15.34375 -16.53125 C 15.644531 -16.601562 16.003906 -16.6875 16.421875 -16.78125 C 16.835938 -16.875 17.296875 -16.972656 17.796875 -17.078125 C 18.304688 -17.179688 18.816406 -17.289062 19.328125 -17.40625 C 19.453125 -17.4375 19.566406 -17.453125 19.671875 -17.453125 C 19.992188 -17.453125 20.15625 -17.242188 20.15625 -16.828125 C 20.15625 -16.773438 20.15625 -16.722656 20.15625 -16.671875 C 20.15625 -16.628906 20.148438 -16.582031 20.140625 -16.53125 Z M 18.53125 -1.71875 "/></g></g></g><g fill="#000000" fill-opacity="1"><g transform="translate(281.781007, 279.73193)"><g><path d="M 10.515625 0.8125 C 9.046875 0.8125 7.753906 0.570312 6.640625 0.09375 C 5.523438 -0.382812 4.585938 -1.023438 3.828125 -1.828125 C 3.078125 -2.628906 2.507812 -3.550781 2.125 -4.59375 C 1.75 -5.632812 1.5625 -6.710938 1.5625 -7.828125 C 1.5625 -8.953125 1.742188 -10.019531 2.109375 -11.03125 C 2.484375 -12.039062 3 -12.945312 3.65625 -13.75 C 4.3125 -14.550781 5.097656 -15.21875 6.015625 -15.75 C 6.941406 -16.289062 7.960938 -16.65625 9.078125 -16.84375 C 9.242188 -16.851562 9.328125 -16.890625 9.328125 -16.953125 C 9.328125 -17.066406 9.3125 -17.171875 9.28125 -17.265625 C 9.257812 -17.367188 9.25 -17.457031 9.25 -17.53125 C 9.25 -17.65625 9.269531 -17.738281 9.3125 -17.78125 C 9.351562 -17.820312 9.398438 -17.84375 9.453125 -17.84375 C 11.453125 -17.84375 13.148438 -17.613281 14.546875 -17.15625 C 15.953125 -16.695312 17.09375 -16.070312 17.96875 -15.28125 C 18.851562 -14.5 19.492188 -13.570312 19.890625 -12.5 C 20.285156 -11.4375 20.484375 -10.296875 20.484375 -9.078125 C 20.484375 -7.515625 20.222656 -6.117188 19.703125 -4.890625 C 19.179688 -3.671875 18.46875 -2.632812 17.5625 -1.78125 C 16.65625 -0.9375 15.597656 -0.296875 14.390625 0.140625 C 13.179688 0.585938 11.890625 0.8125 10.515625 0.8125 Z M 7.609375 -8 C 7.609375 -7.4375 7.664062 -6.878906 7.78125 -6.328125 C 7.90625 -5.773438 8.109375 -5.269531 8.390625 -4.8125 C 8.671875 -4.363281 9.035156 -4 9.484375 -3.71875 C 9.929688 -3.445312 10.488281 -3.3125 11.15625 -3.3125 C 11.644531 -3.332031 12.066406 -3.4375 12.421875 -3.625 C 12.785156 -3.820312 13.097656 -4.078125 13.359375 -4.390625 C 13.617188 -4.703125 13.832031 -5.050781 14 -5.4375 C 14.175781 -5.820312 14.316406 -6.21875 14.421875 -6.625 C 14.523438 -7.039062 14.597656 -7.445312 14.640625 -7.84375 C 14.679688 -8.25 14.703125 -8.613281 14.703125 -8.9375 C 14.703125 -9.476562 14.617188 -10.007812 14.453125 -10.53125 C 14.285156 -11.0625 14.046875 -11.523438 13.734375 -11.921875 C 13.421875 -12.316406 13.03125 -12.632812 12.5625 -12.875 C 12.101562 -13.125 11.566406 -13.25 10.953125 -13.25 C 10.328125 -13.25 9.800781 -13.0625 9.375 -12.6875 C 8.945312 -12.320312 8.601562 -11.863281 8.34375 -11.3125 C 8.082031 -10.769531 7.894531 -10.195312 7.78125 -9.59375 C 7.664062 -9 7.609375 -8.46875 7.609375 -8 Z M 7.609375 -8 "/></g></g></g><g fill="#000000" fill-opacity="1"><g transform="translate(103.883001, 308.260151)"><g><path d="M 0.796875 -7.53125 C 0.796875 -9 1.132812 -10.316406 1.8125 -11.484375 C 2.5 -12.648438 3.429688 -13.5625 4.609375 -14.21875 C 5.785156 -14.875 7.070312 -15.203125 8.46875 -15.203125 C 10.0625 -15.203125 11.476562 -14.804688 12.71875 -14.015625 C 13.96875 -13.234375 14.875 -12.125 15.4375 -10.6875 L 12.484375 -10.6875 C 12.085938 -11.476562 11.546875 -12.066406 10.859375 -12.453125 C 10.171875 -12.847656 9.375 -13.046875 8.46875 -13.046875 C 7.46875 -13.046875 6.578125 -12.820312 5.796875 -12.375 C 5.023438 -11.925781 4.421875 -11.285156 3.984375 -10.453125 C 3.546875 -9.617188 3.328125 -8.644531 3.328125 -7.53125 C 3.328125 -6.425781 3.546875 -5.457031 3.984375 -4.625 C 4.421875 -3.789062 5.023438 -3.144531 5.796875 -2.6875 C 6.578125 -2.238281 7.46875 -2.015625 8.46875 -2.015625 C 9.375 -2.015625 10.171875 -2.207031 10.859375 -2.59375 C 11.546875 -2.976562 12.085938 -3.566406 12.484375 -4.359375 L 15.4375 -4.359375 C 14.875 -2.921875 13.96875 -1.8125 12.71875 -1.03125 C 11.476562 -0.257812 10.0625 0.125 8.46875 0.125 C 7.050781 0.125 5.757812 -0.195312 4.59375 -0.84375 C 3.425781 -1.5 2.5 -2.410156 1.8125 -3.578125 C 1.132812 -4.742188 0.796875 -6.0625 0.796875 -7.53125 Z M 0.796875 -7.53125 "/></g></g></g><g fill="#000000" fill-opacity="1"><g transform="translate(120.570122, 308.260151)"><g><path d="M 4.078125 -10.171875 C 4.441406 -10.773438 4.921875 -11.242188 5.515625 -11.578125 C 6.109375 -11.921875 6.816406 -12.09375 7.640625 -12.09375 L 7.640625 -9.546875 L 7.015625 -9.546875 C 6.054688 -9.546875 5.328125 -9.300781 4.828125 -8.8125 C 4.328125 -8.320312 4.078125 -7.472656 4.078125 -6.265625 L 4.078125 0 L 1.625 0 L 1.625 -11.890625 L 4.078125 -11.890625 Z M 4.078125 -10.171875 "/></g></g></g><g fill="#000000" fill-opacity="1"><g transform="translate(128.859714, 308.260151)"><g><path d="M 12.53125 -6.234375 C 12.53125 -5.796875 12.5 -5.394531 12.4375 -5.03125 L 3.34375 -5.03125 C 3.414062 -4.082031 3.769531 -3.316406 4.40625 -2.734375 C 5.039062 -2.160156 5.816406 -1.875 6.734375 -1.875 C 8.054688 -1.875 8.992188 -2.429688 9.546875 -3.546875 L 12.203125 -3.546875 C 11.835938 -2.453125 11.179688 -1.554688 10.234375 -0.859375 C 9.296875 -0.160156 8.128906 0.1875 6.734375 0.1875 C 5.597656 0.1875 4.578125 -0.0664062 3.671875 -0.578125 C 2.773438 -1.085938 2.070312 -1.804688 1.5625 -2.734375 C 1.050781 -3.660156 0.796875 -4.734375 0.796875 -5.953125 C 0.796875 -7.179688 1.039062 -8.257812 1.53125 -9.1875 C 2.03125 -10.113281 2.726562 -10.828125 3.625 -11.328125 C 4.53125 -11.835938 5.566406 -12.09375 6.734375 -12.09375 C 7.859375 -12.09375 8.859375 -11.847656 9.734375 -11.359375 C 10.617188 -10.867188 11.304688 -10.179688 11.796875 -9.296875 C 12.285156 -8.410156 12.53125 -7.390625 12.53125 -6.234375 Z M 9.953125 -7.015625 C 9.941406 -7.921875 9.617188 -8.644531 8.984375 -9.1875 C 8.347656 -9.738281 7.5625 -10.015625 6.625 -10.015625 C 5.78125 -10.015625 5.054688 -9.742188 4.453125 -9.203125 C 3.847656 -8.671875 3.488281 -7.941406 3.375 -7.015625 Z M 9.953125 -7.015625 "/></g></g></g><g fill="#000000" fill-opacity="1"><g transform="translate(142.179189, 308.260151)"><g><path d="M 0.796875 -6 C 0.796875 -7.195312 1.039062 -8.253906 1.53125 -9.171875 C 2.03125 -10.097656 2.707031 -10.816406 3.5625 -11.328125 C 4.425781 -11.835938 5.375 -12.09375 6.40625 -12.09375 C 7.34375 -12.09375 8.160156 -11.90625 8.859375 -11.53125 C 9.554688 -11.164062 10.113281 -10.710938 10.53125 -10.171875 L 10.53125 -11.890625 L 13.015625 -11.890625 L 13.015625 0 L 10.53125 0 L 10.53125 -1.765625 C 10.113281 -1.203125 9.546875 -0.734375 8.828125 -0.359375 C 8.109375 0.00390625 7.289062 0.1875 6.375 0.1875 C 5.351562 0.1875 4.414062 -0.0703125 3.5625 -0.59375 C 2.707031 -1.113281 2.03125 -1.84375 1.53125 -2.78125 C 1.039062 -3.726562 0.796875 -4.800781 0.796875 -6 Z M 10.53125 -5.953125 C 10.53125 -6.773438 10.359375 -7.488281 10.015625 -8.09375 C 9.679688 -8.695312 9.238281 -9.15625 8.6875 -9.46875 C 8.144531 -9.789062 7.5625 -9.953125 6.9375 -9.953125 C 6.300781 -9.953125 5.707031 -9.796875 5.15625 -9.484375 C 4.613281 -9.179688 4.171875 -8.726562 3.828125 -8.125 C 3.492188 -7.53125 3.328125 -6.820312 3.328125 -6 C 3.328125 -5.175781 3.492188 -4.457031 3.828125 -3.84375 C 4.171875 -3.226562 4.617188 -2.753906 5.171875 -2.421875 C 5.722656 -2.097656 6.3125 -1.9375 6.9375 -1.9375 C 7.5625 -1.9375 8.144531 -2.09375 8.6875 -2.40625 C 9.238281 -2.726562 9.679688 -3.195312 10.015625 -3.8125 C 10.359375 -4.425781 10.53125 -5.140625 10.53125 -5.953125 Z M 10.53125 -5.953125 "/></g></g></g><g fill="#000000" fill-opacity="1"><g transform="translate(156.815504, 308.260151)"><g><path d="M 4.484375 -9.890625 L 4.484375 -3.296875 C 4.484375 -2.859375 4.585938 -2.539062 4.796875 -2.34375 C 5.015625 -2.144531 5.375 -2.046875 5.875 -2.046875 L 7.390625 -2.046875 L 7.390625 0 L 5.4375 0 C 4.332031 0 3.484375 -0.257812 2.890625 -0.78125 C 2.304688 -1.300781 2.015625 -2.140625 2.015625 -3.296875 L 2.015625 -9.890625 L 0.609375 -9.890625 L 0.609375 -11.890625 L 2.015625 -11.890625 L 2.015625 -14.859375 L 4.484375 -14.859375 L 4.484375 -11.890625 L 7.390625 -11.890625 L 7.390625 -9.890625 Z M 4.484375 -9.890625 "/></g></g></g><g fill="#000000" fill-opacity="1"><g transform="translate(164.846049, 308.260151)"><g><path d="M 2.875 -13.46875 C 2.425781 -13.46875 2.050781 -13.617188 1.75 -13.921875 C 1.445312 -14.222656 1.296875 -14.597656 1.296875 -15.046875 C 1.296875 -15.492188 1.445312 -15.867188 1.75 -16.171875 C 2.050781 -16.472656 2.425781 -16.625 2.875 -16.625 C 3.300781 -16.625 3.664062 -16.472656 3.96875 -16.171875 C 4.269531 -15.867188 4.421875 -15.492188 4.421875 -15.046875 C 4.421875 -14.597656 4.269531 -14.222656 3.96875 -13.921875 C 3.664062 -13.617188 3.300781 -13.46875 2.875 -13.46875 Z M 4.078125 -11.890625 L 4.078125 0 L 1.625 0 L 1.625 -11.890625 Z M 4.078125 -11.890625 "/></g></g></g><g fill="#000000" fill-opacity="1"><g transform="translate(170.545145, 308.260151)"><g><path d="M 6.21875 -2.203125 L 9.59375 -11.890625 L 12.203125 -11.890625 L 7.671875 0 L 4.734375 0 L 0.21875 -11.890625 L 2.84375 -11.890625 Z M 6.21875 -2.203125 "/></g></g></g><g fill="#000000" fill-opacity="1"><g transform="translate(182.979534, 308.260151)"><g><path d="M 12.53125 -6.234375 C 12.53125 -5.796875 12.5 -5.394531 12.4375 -5.03125 L 3.34375 -5.03125 C 3.414062 -4.082031 3.769531 -3.316406 4.40625 -2.734375 C 5.039062 -2.160156 5.816406 -1.875 6.734375 -1.875 C 8.054688 -1.875 8.992188 -2.429688 9.546875 -3.546875 L 12.203125 -3.546875 C 11.835938 -2.453125 11.179688 -1.554688 10.234375 -0.859375 C 9.296875 -0.160156 8.128906 0.1875 6.734375 0.1875 C 5.597656 0.1875 4.578125 -0.0664062 3.671875 -0.578125 C 2.773438 -1.085938 2.070312 -1.804688 1.5625 -2.734375 C 1.050781 -3.660156 0.796875 -4.734375 0.796875 -5.953125 C 0.796875 -7.179688 1.039062 -8.257812 1.53125 -9.1875 C 2.03125 -10.113281 2.726562 -10.828125 3.625 -11.328125 C 4.53125 -11.835938 5.566406 -12.09375 6.734375 -12.09375 C 7.859375 -12.09375 8.859375 -11.847656 9.734375 -11.359375 C 10.617188 -10.867188 11.304688 -10.179688 11.796875 -9.296875 C 12.285156 -8.410156 12.53125 -7.390625 12.53125 -6.234375 Z M 9.953125 -7.015625 C 9.941406 -7.921875 9.617188 -8.644531 8.984375 -9.1875 C 8.347656 -9.738281 7.5625 -10.015625 6.625 -10.015625 C 5.78125 -10.015625 5.054688 -9.742188 4.453125 -9.203125 C 3.847656 -8.671875 3.488281 -7.941406 3.375 -7.015625 Z M 9.953125 -7.015625 "/></g></g></g><g fill="#000000" fill-opacity="1"><g transform="translate(196.299009, 308.260151)"><g/></g></g><g fill="#000000" fill-opacity="1"><g transform="translate(201.91175, 308.260151)"><g><path d="M 6.5625 0.15625 C 5.550781 0.15625 4.644531 -0.0195312 3.84375 -0.375 C 3.039062 -0.726562 2.40625 -1.226562 1.9375 -1.875 C 1.476562 -2.519531 1.25 -3.273438 1.25 -4.140625 L 3.890625 -4.140625 C 3.941406 -3.492188 4.191406 -2.960938 4.640625 -2.546875 C 5.097656 -2.128906 5.738281 -1.921875 6.5625 -1.921875 C 7.414062 -1.921875 8.078125 -2.125 8.546875 -2.53125 C 9.023438 -2.945312 9.265625 -3.476562 9.265625 -4.125 C 9.265625 -4.625 9.113281 -5.03125 8.8125 -5.34375 C 8.519531 -5.664062 8.15625 -5.910156 7.71875 -6.078125 C 7.28125 -6.253906 6.671875 -6.445312 5.890625 -6.65625 C 4.910156 -6.914062 4.113281 -7.175781 3.5 -7.4375 C 2.894531 -7.707031 2.375 -8.117188 1.9375 -8.671875 C 1.507812 -9.234375 1.296875 -9.984375 1.296875 -10.921875 C 1.296875 -11.785156 1.507812 -12.539062 1.9375 -13.1875 C 2.375 -13.84375 2.976562 -14.34375 3.75 -14.6875 C 4.53125 -15.03125 5.429688 -15.203125 6.453125 -15.203125 C 7.910156 -15.203125 9.101562 -14.835938 10.03125 -14.109375 C 10.957031 -13.378906 11.472656 -12.382812 11.578125 -11.125 L 8.859375 -11.125 C 8.804688 -11.664062 8.539062 -12.128906 8.0625 -12.515625 C 7.59375 -12.910156 6.972656 -13.109375 6.203125 -13.109375 C 5.492188 -13.109375 4.914062 -12.925781 4.46875 -12.5625 C 4.019531 -12.207031 3.796875 -11.691406 3.796875 -11.015625 C 3.796875 -10.554688 3.9375 -10.175781 4.21875 -9.875 C 4.5 -9.582031 4.851562 -9.347656 5.28125 -9.171875 C 5.71875 -9.003906 6.3125 -8.816406 7.0625 -8.609375 C 8.050781 -8.335938 8.859375 -8.066406 9.484375 -7.796875 C 10.117188 -7.523438 10.65625 -7.101562 11.09375 -6.53125 C 11.53125 -5.957031 11.75 -5.195312 11.75 -4.25 C 11.75 -3.488281 11.539062 -2.769531 11.125 -2.09375 C 10.71875 -1.414062 10.117188 -0.867188 9.328125 -0.453125 C 8.546875 -0.046875 7.625 0.15625 6.5625 0.15625 Z M 6.5625 0.15625 "/></g></g></g><g fill="#000000" fill-opacity="1"><g transform="translate(214.950589, 308.260151)"><g><path d="M 4.484375 -9.890625 L 4.484375 -3.296875 C 4.484375 -2.859375 4.585938 -2.539062 4.796875 -2.34375 C 5.015625 -2.144531 5.375 -2.046875 5.875 -2.046875 L 7.390625 -2.046875 L 7.390625 0 L 5.4375 0 C 4.332031 0 3.484375 -0.257812 2.890625 -0.78125 C 2.304688 -1.300781 2.015625 -2.140625 2.015625 -3.296875 L 2.015625 -9.890625 L 0.609375 -9.890625 L 0.609375 -11.890625 L 2.015625 -11.890625 L 2.015625 -14.859375 L 4.484375 -14.859375 L 4.484375 -11.890625 L 7.390625 -11.890625 L 7.390625 -9.890625 Z M 4.484375 -9.890625 "/></g></g></g><g fill="#000000" fill-opacity="1"><g transform="translate(222.981134, 308.260151)"><g><path d="M 12.390625 -11.890625 L 12.390625 0 L 9.9375 0 L 9.9375 -1.40625 C 9.539062 -0.914062 9.03125 -0.53125 8.40625 -0.25 C 7.78125 0.03125 7.113281 0.171875 6.40625 0.171875 C 5.476562 0.171875 4.640625 -0.0195312 3.890625 -0.40625 C 3.148438 -0.800781 2.566406 -1.378906 2.140625 -2.140625 C 1.722656 -2.898438 1.515625 -3.820312 1.515625 -4.90625 L 1.515625 -11.890625 L 3.953125 -11.890625 L 3.953125 -5.265625 C 3.953125 -4.203125 4.21875 -3.382812 4.75 -2.8125 C 5.28125 -2.25 6.007812 -1.96875 6.9375 -1.96875 C 7.851562 -1.96875 8.582031 -2.25 9.125 -2.8125 C 9.664062 -3.382812 9.9375 -4.203125 9.9375 -5.265625 L 9.9375 -11.890625 Z M 12.390625 -11.890625 "/></g></g></g><g fill="#000000" fill-opacity="1"><g transform="translate(236.991404, 308.260151)"><g><path d="M 0.796875 -6 C 0.796875 -7.195312 1.039062 -8.253906 1.53125 -9.171875 C 2.03125 -10.097656 2.707031 -10.816406 3.5625 -11.328125 C 4.425781 -11.835938 5.382812 -12.09375 6.4375 -12.09375 C 7.207031 -12.09375 7.972656 -11.921875 8.734375 -11.578125 C 9.492188 -11.242188 10.09375 -10.796875 10.53125 -10.234375 L 10.53125 -15.984375 L 13.015625 -15.984375 L 13.015625 0 L 10.53125 0 L 10.53125 -1.796875 C 10.132812 -1.210938 9.578125 -0.734375 8.859375 -0.359375 C 8.148438 0.00390625 7.332031 0.1875 6.40625 0.1875 C 5.375 0.1875 4.425781 -0.0703125 3.5625 -0.59375 C 2.707031 -1.113281 2.03125 -1.84375 1.53125 -2.78125 C 1.039062 -3.726562 0.796875 -4.800781 0.796875 -6 Z M 10.53125 -5.953125 C 10.53125 -6.773438 10.359375 -7.488281 10.015625 -8.09375 C 9.679688 -8.695312 9.238281 -9.15625 8.6875 -9.46875 C 8.144531 -9.789062 7.5625 -9.953125 6.9375 -9.953125 C 6.300781 -9.953125 5.707031 -9.796875 5.15625 -9.484375 C 4.613281 -9.179688 4.171875 -8.726562 3.828125 -8.125 C 3.492188 -7.53125 3.328125 -6.820312 3.328125 -6 C 3.328125 -5.175781 3.492188 -4.457031 3.828125 -3.84375 C 4.171875 -3.226562 4.617188 -2.753906 5.171875 -2.421875 C 5.722656 -2.097656 6.3125 -1.9375 6.9375 -1.9375 C 7.5625 -1.9375 8.144531 -2.09375 8.6875 -2.40625 C 9.238281 -2.726562 9.679688 -3.195312 10.015625 -3.8125 C 10.359375 -4.425781 10.53125 -5.140625 10.53125 -5.953125 Z M 10.53125 -5.953125 "/></g></g></g><g fill="#000000" fill-opacity="1"><g transform="translate(251.627711, 308.260151)"><g><path d="M 2.875 -13.46875 C 2.425781 -13.46875 2.050781 -13.617188 1.75 -13.921875 C 1.445312 -14.222656 1.296875 -14.597656 1.296875 -15.046875 C 1.296875 -15.492188 1.445312 -15.867188 1.75 -16.171875 C 2.050781 -16.472656 2.425781 -16.625 2.875 -16.625 C 3.300781 -16.625 3.664062 -16.472656 3.96875 -16.171875 C 4.269531 -15.867188 4.421875 -15.492188 4.421875 -15.046875 C 4.421875 -14.597656 4.269531 -14.222656 3.96875 -13.921875 C 3.664062 -13.617188 3.300781 -13.46875 2.875 -13.46875 Z M 4.078125 -11.890625 L 4.078125 0 L 1.625 0 L 1.625 -11.890625 Z M 4.078125 -11.890625 "/></g></g></g><g fill="#000000" fill-opacity="1"><g transform="translate(257.326815, 308.260151)"><g><path d="M 6.78125 0.1875 C 5.65625 0.1875 4.640625 -0.0664062 3.734375 -0.578125 C 2.828125 -1.085938 2.113281 -1.804688 1.59375 -2.734375 C 1.082031 -3.660156 0.828125 -4.734375 0.828125 -5.953125 C 0.828125 -7.171875 1.09375 -8.242188 1.625 -9.171875 C 2.15625 -10.109375 2.878906 -10.828125 3.796875 -11.328125 C 4.722656 -11.835938 5.753906 -12.09375 6.890625 -12.09375 C 8.023438 -12.09375 9.050781 -11.835938 9.96875 -11.328125 C 10.894531 -10.828125 11.625 -10.109375 12.15625 -9.171875 C 12.6875 -8.242188 12.953125 -7.171875 12.953125 -5.953125 C 12.953125 -4.742188 12.675781 -3.671875 12.125 -2.734375 C 11.582031 -1.804688 10.835938 -1.085938 9.890625 -0.578125 C 8.953125 -0.0664062 7.914062 0.1875 6.78125 0.1875 Z M 6.78125 -1.9375 C 7.414062 -1.9375 8.007812 -2.085938 8.5625 -2.390625 C 9.113281 -2.691406 9.5625 -3.144531 9.90625 -3.75 C 10.257812 -4.363281 10.4375 -5.097656 10.4375 -5.953125 C 10.4375 -6.816406 10.269531 -7.546875 9.9375 -8.140625 C 9.601562 -8.742188 9.160156 -9.195312 8.609375 -9.5 C 8.066406 -9.800781 7.476562 -9.953125 6.84375 -9.953125 C 6.207031 -9.953125 5.617188 -9.800781 5.078125 -9.5 C 4.546875 -9.195312 4.117188 -8.742188 3.796875 -8.140625 C 3.484375 -7.546875 3.328125 -6.816406 3.328125 -5.953125 C 3.328125 -4.671875 3.65625 -3.679688 4.3125 -2.984375 C 4.96875 -2.285156 5.789062 -1.9375 6.78125 -1.9375 Z M 6.78125 -1.9375 "/></g></g></g></svg>