<svg xmlns="http://www.w3.org/2000/svg" xmlns:xlink="http://www.w3.org/1999/xlink" width="500" zoomAndPan="magnify" viewBox="0 0 375 374.999991" height="500" preserveAspectRatio="xMidYMid meet" version="1.0"><defs><g/><clipPath id="d7078c7f0e"><path d="M 180 111.015625 L 268 111.015625 L 268 157 L 180 157 Z M 180 111.015625 " clip-rule="nonzero"/></clipPath><clipPath id="5e1207d615"><path d="M 209 159 L 271 159 L 271 207.765625 L 209 207.765625 Z M 209 159 " clip-rule="nonzero"/></clipPath><clipPath id="3337d09bb8"><path d="M 108.539062 115 L 205 115 L 205 207.765625 L 108.539062 207.765625 Z M 108.539062 115 " clip-rule="nonzero"/></clipPath></defs><rect x="-37.5" width="450" fill="#ffffff" y="-37.499999" height="449.999989" fill-opacity="1"/><rect x="-37.5" width="450" fill="#ffc61a" y="-37.499999" height="449.999989" fill-opacity="1"/><g clip-path="url(#d7078c7f0e)"><path fill="#372a28" d="M 222.667969 128.824219 C 233.320312 128.824219 242.699219 134.265625 248.183594 142.519531 L 267.917969 142.519531 C 261.0625 124.191406 243.390625 111.140625 222.667969 111.140625 C 204.746094 111.140625 189.101562 120.90625 180.769531 135.40625 L 192.230469 156.179688 C 193.859375 140.804688 206.863281 128.824219 222.667969 128.824219 " fill-opacity="1" fill-rule="nonzero"/></g><g clip-path="url(#5e1207d615)"><path fill="#372a28" d="M 220.160156 159.433594 L 220.160156 175.957031 L 248.4375 175.957031 C 242.992188 184.429688 233.488281 190.042969 222.667969 190.042969 C 217.835938 190.042969 213.261719 188.917969 209.195312 186.921875 L 220.652344 207.683594 C 221.320312 207.710938 221.996094 207.726562 222.667969 207.726562 C 249.339844 207.726562 270.960938 186.105469 270.960938 159.433594 L 220.160156 159.433594 " fill-opacity="1" fill-rule="nonzero"/></g><g clip-path="url(#3337d09bb8)"><path fill="#372a28" d="M 108.53125 207.726562 L 167.691406 207.726562 L 167.691406 190.234375 L 138.109375 190.234375 L 152.898438 153.96875 L 182.523438 207.726562 L 204.5 207.726562 L 152.511719 115.898438 L 108.53125 207.726562 " fill-opacity="1" fill-rule="nonzero"/></g><g fill="#372a28" fill-opacity="1"><g transform="translate(96.262477, 248.413173)"><g><path d="M 22 -5.296875 L 9.40625 -5.296875 L 7.3125 0 L -0.203125 0 L 12.203125 -28.78125 L 19.734375 -28.78125 L 31.859375 0 L 24.046875 0 Z M 19.859375 -10.859375 L 15.75 -21.5 L 11.546875 -10.859375 Z M 19.859375 -10.859375 "/></g></g></g><g fill="#372a28" fill-opacity="1"><g transform="translate(127.909218, 248.413173)"><g><path d="M 2.875 -28.78125 L 15.25 -28.78125 C 19.769531 -28.78125 23.445312 -27.445312 26.28125 -24.78125 C 29.125 -22.125 30.546875 -18.660156 30.546875 -14.390625 C 30.546875 -10.140625 29.101562 -6.675781 26.21875 -4 C 23.34375 -1.332031 19.59375 0 14.96875 0 L 2.875 0 Z M 10.1875 -22.9375 L 10.1875 -5.84375 L 15.421875 -5.84375 C 17.660156 -5.84375 19.5 -6.628906 20.9375 -8.203125 C 22.382812 -9.773438 23.109375 -11.820312 23.109375 -14.34375 C 23.109375 -16.863281 22.351562 -18.925781 20.84375 -20.53125 C 19.332031 -22.132812 17.414062 -22.9375 15.09375 -22.9375 Z M 10.1875 -22.9375 "/></g></g></g><g fill="#372a28" fill-opacity="1"><g transform="translate(159.432663, 248.413173)"><g><path d="M 25.40625 -23.015625 L 10.1875 -23.015625 L 10.1875 -17.3125 L 23.921875 -17.3125 L 23.921875 -11.546875 L 10.1875 -11.546875 L 10.1875 -5.75 L 25.859375 -5.75 L 25.859375 0 L 2.875 0 L 2.875 -28.78125 L 25.40625 -28.78125 Z M 25.40625 -23.015625 "/></g></g></g><g fill="#372a28" fill-opacity="1"><g transform="translate(187.133842, 248.413173)"><g><path d="M 10.1875 -6.125 L 22.40625 -6.125 L 22.40625 0 L 2.875 0 L 2.875 -28.78125 L 10.1875 -28.78125 Z M 10.1875 -6.125 "/></g></g></g><g fill="#372a28" fill-opacity="1"><g transform="translate(210.149654, 248.413173)"><g><path d="M 10.1875 0 L 2.875 0 L 2.875 -28.78125 L 10.1875 -28.78125 Z M 10.1875 0 "/></g></g></g><g fill="#372a28" fill-opacity="1"><g transform="translate(223.219355, 248.413173)"><g><path d="M 29.4375 0 L 22.984375 0 L 9.75 -17.71875 L 9.75 0 L 2.875 0 L 2.875 -28.78125 L 9.328125 -28.78125 L 22.609375 -11.015625 L 22.609375 -28.78125 L 29.4375 -28.78125 Z M 29.4375 0 "/></g></g></g><g fill="#372a28" fill-opacity="1"><g transform="translate(255.523694, 248.413173)"><g><path d="M 25.40625 -23.015625 L 10.1875 -23.015625 L 10.1875 -17.3125 L 23.921875 -17.3125 L 23.921875 -11.546875 L 10.1875 -11.546875 L 10.1875 -5.75 L 25.859375 -5.75 L 25.859375 0 L 2.875 0 L 2.875 -28.78125 L 25.40625 -28.78125 Z M 25.40625 -23.015625 "/></g></g></g></svg>