<svg xmlns="http://www.w3.org/2000/svg" xmlns:xlink="http://www.w3.org/1999/xlink" width="500" zoomAndPan="magnify" viewBox="0 0 375 374.999991" height="500" preserveAspectRatio="xMidYMid meet" version="1.0"><defs><g/><clipPath id="d6ae17e69a"><path d="M 158 142 L 254.789062 142 L 254.789062 224.851562 L 158 224.851562 Z M 158 142 " clip-rule="nonzero"/></clipPath><clipPath id="263f68f5ae"><path d="M 205 175 L 254.789062 175 L 254.789062 178 L 205 178 Z M 205 175 " clip-rule="nonzero"/></clipPath><clipPath id="ad45f983b5"><path d="M 120.539062 85.351562 L 208 85.351562 L 208 178 L 120.539062 178 Z M 120.539062 85.351562 " clip-rule="nonzero"/></clipPath></defs><g fill="#000000" fill-opacity="1"><g transform="translate(99.677166, 263.494127)"><g><path d="M 15.015625 0 L 12.578125 -6.234375 L 4.71875 -6.234375 L 2.3125 0 L 0 0 L 7.75 -19.6875 L 9.671875 -19.6875 L 17.375 0 Z M 11.875 -8.28125 L 9.59375 -14.359375 C 9.289062 -15.128906 8.984375 -16.070312 8.671875 -17.1875 C 8.472656 -16.332031 8.191406 -15.390625 7.828125 -14.359375 L 5.53125 -8.28125 Z M 11.875 -8.28125 "/></g></g></g><g fill="#000000" fill-opacity="1"><g transform="translate(126.418213, 263.494127)"><g><path d="M 2.703125 0 L 2.703125 -19.609375 L 4.96875 -19.609375 L 4.96875 -2.0625 L 13.625 -2.0625 L 13.625 0 Z M 2.703125 0 "/></g></g></g><g fill="#000000" fill-opacity="1"><g transform="translate(150.035493, 263.494127)"><g><path d="M 4.96875 0 L 2.703125 0 L 2.703125 -19.609375 L 13.625 -19.609375 L 13.625 -17.578125 L 4.96875 -17.578125 L 4.96875 -10.40625 L 13.109375 -10.40625 L 13.109375 -8.375 L 4.96875 -8.375 Z M 4.96875 0 "/></g></g></g><g fill="#000000" fill-opacity="1"><g transform="translate(173.572332, 263.494127)"><g><path d="M 4.96875 -8.15625 L 4.96875 0 L 2.703125 0 L 2.703125 -19.609375 L 8.078125 -19.609375 C 10.484375 -19.609375 12.257812 -19.144531 13.40625 -18.21875 C 14.550781 -17.300781 15.125 -15.914062 15.125 -14.0625 C 15.125 -11.476562 13.8125 -9.726562 11.1875 -8.8125 L 16.515625 0 L 13.8125 0 L 9.0625 -8.15625 Z M 4.96875 -10.109375 L 8.09375 -10.109375 C 9.707031 -10.109375 10.890625 -10.425781 11.640625 -11.0625 C 12.390625 -11.707031 12.765625 -12.671875 12.765625 -13.953125 C 12.765625 -15.242188 12.378906 -16.175781 11.609375 -16.75 C 10.847656 -17.320312 9.625 -17.609375 7.9375 -17.609375 L 4.96875 -17.609375 Z M 4.96875 -10.109375 "/></g></g></g><g fill="#000000" fill-opacity="1"><g transform="translate(199.911177, 263.494127)"><g><path d="M 13.625 0 L 2.703125 0 L 2.703125 -19.609375 L 13.625 -19.609375 L 13.625 -17.578125 L 4.96875 -17.578125 L 4.96875 -11.265625 L 13.109375 -11.265625 L 13.109375 -9.25 L 4.96875 -9.25 L 4.96875 -2.03125 L 13.625 -2.03125 Z M 13.625 0 "/></g></g></g><g fill="#000000" fill-opacity="1"><g transform="translate(224.547375, 263.494127)"><g><path d="M 18.34375 -10 C 18.34375 -6.757812 17.460938 -4.28125 15.703125 -2.5625 C 13.953125 -0.851562 11.425781 0 8.125 0 L 2.703125 0 L 2.703125 -19.609375 L 8.703125 -19.609375 C 11.753906 -19.609375 14.125 -18.765625 15.8125 -17.078125 C 17.5 -15.390625 18.34375 -13.03125 18.34375 -10 Z M 15.9375 -9.90625 C 15.9375 -12.46875 15.289062 -14.394531 14 -15.6875 C 12.71875 -16.988281 10.8125 -17.640625 8.28125 -17.640625 L 4.96875 -17.640625 L 4.96875 -1.96875 L 7.75 -1.96875 C 10.46875 -1.96875 12.507812 -2.632812 13.875 -3.96875 C 15.25 -5.3125 15.9375 -7.289062 15.9375 -9.90625 Z M 15.9375 -9.90625 "/></g></g></g><g fill="#000000" fill-opacity="1"><g transform="translate(253.929553, 263.494127)"><g><path d="M 19.71875 -9.828125 C 19.71875 -6.691406 18.921875 -4.222656 17.328125 -2.421875 C 15.742188 -0.628906 13.539062 0.265625 10.71875 0.265625 C 7.832031 0.265625 5.601562 -0.613281 4.03125 -2.375 C 2.457031 -4.144531 1.671875 -6.640625 1.671875 -9.859375 C 1.671875 -13.046875 2.457031 -15.519531 4.03125 -17.28125 C 5.601562 -19.039062 7.84375 -19.921875 10.75 -19.921875 C 13.5625 -19.921875 15.757812 -19.023438 17.34375 -17.234375 C 18.925781 -15.441406 19.71875 -12.972656 19.71875 -9.828125 Z M 4.09375 -9.828125 C 4.09375 -7.171875 4.65625 -5.15625 5.78125 -3.78125 C 6.914062 -2.414062 8.5625 -1.734375 10.71875 -1.734375 C 12.882812 -1.734375 14.519531 -2.414062 15.625 -3.78125 C 16.738281 -5.144531 17.296875 -7.160156 17.296875 -9.828125 C 17.296875 -12.460938 16.742188 -14.460938 15.640625 -15.828125 C 14.535156 -17.191406 12.90625 -17.875 10.75 -17.875 C 8.570312 -17.875 6.914062 -17.1875 5.78125 -15.8125 C 4.65625 -14.445312 4.09375 -12.453125 4.09375 -9.828125 Z M 4.09375 -9.828125 "/></g></g></g><g fill="#000000" fill-opacity="1"><g transform="translate(116.644852, 286.072599)"><g><path d="M 6.890625 -6.25 L 10.953125 -6.25 L 10.953125 -0.453125 C 10.316406 -0.242188 9.671875 -0.09375 9.015625 0 C 8.367188 0.101562 7.613281 0.15625 6.75 0.15625 C 4.945312 0.15625 3.539062 -0.378906 2.53125 -1.453125 C 1.519531 -2.523438 1.015625 -4.03125 1.015625 -5.96875 C 1.015625 -7.207031 1.265625 -8.289062 1.765625 -9.21875 C 2.265625 -10.15625 2.984375 -10.867188 3.921875 -11.359375 C 4.859375 -11.859375 5.953125 -12.109375 7.203125 -12.109375 C 8.484375 -12.109375 9.671875 -11.875 10.765625 -11.40625 L 10.234375 -10.1875 C 9.148438 -10.632812 8.113281 -10.859375 7.125 -10.859375 C 5.664062 -10.859375 4.523438 -10.425781 3.703125 -9.5625 C 2.890625 -8.695312 2.484375 -7.5 2.484375 -5.96875 C 2.484375 -4.351562 2.875 -3.128906 3.65625 -2.296875 C 4.445312 -1.460938 5.609375 -1.046875 7.140625 -1.046875 C 7.960938 -1.046875 8.769531 -1.144531 9.5625 -1.34375 L 9.5625 -5.015625 L 6.890625 -5.015625 Z M 6.890625 -6.25 "/></g></g></g><g fill="#000000" fill-opacity="1"><g transform="translate(140.448079, 286.072599)"><g><path d="M 1.640625 0 L 1.640625 -11.9375 L 3.03125 -11.9375 L 3.03125 0 Z M 1.640625 0 "/></g></g></g><g fill="#000000" fill-opacity="1"><g transform="translate(156.744438, 286.072599)"><g><path d="M 10.96875 0 L 9.375 0 L 2.859375 -10.015625 L 2.796875 -10.015625 C 2.878906 -8.835938 2.921875 -7.757812 2.921875 -6.78125 L 2.921875 0 L 1.640625 0 L 1.640625 -11.9375 L 3.203125 -11.9375 L 9.71875 -1.953125 L 9.78125 -1.953125 C 9.769531 -2.097656 9.742188 -2.570312 9.703125 -3.375 C 9.671875 -4.175781 9.660156 -4.742188 9.671875 -5.078125 L 9.671875 -11.9375 L 10.96875 -11.9375 Z M 10.96875 0 "/></g></g></g><g fill="#000000" fill-opacity="1"><g transform="translate(180.980122, 286.072599)"><g><path d="M 4.671875 -5.96875 L 7.859375 -11.9375 L 9.359375 -11.9375 L 5.375 -4.625 L 5.375 0 L 3.96875 0 L 3.96875 -4.5625 L 0 -11.9375 L 1.515625 -11.9375 Z M 4.671875 -5.96875 "/></g></g></g><g fill="#000000" fill-opacity="1"><g transform="translate(201.976436, 286.072599)"><g><path d="M 9.140625 0 L 7.65625 -3.796875 L 2.875 -3.796875 L 1.40625 0 L 0 0 L 4.71875 -11.984375 L 5.890625 -11.984375 L 10.578125 0 Z M 7.21875 -5.046875 L 5.84375 -8.75 C 5.65625 -9.207031 5.46875 -9.78125 5.28125 -10.46875 C 5.164062 -9.945312 4.992188 -9.375 4.765625 -8.75 L 3.359375 -5.046875 Z M 7.21875 -5.046875 "/></g></g></g><g fill="#000000" fill-opacity="1"><g transform="translate(224.188536, 286.072599)"><g><path d="M 3.03125 -4.96875 L 3.03125 0 L 1.640625 0 L 1.640625 -11.9375 L 4.921875 -11.9375 C 6.378906 -11.9375 7.457031 -11.65625 8.15625 -11.09375 C 8.851562 -10.53125 9.203125 -9.6875 9.203125 -8.5625 C 9.203125 -6.988281 8.40625 -5.921875 6.8125 -5.359375 L 10.046875 0 L 8.40625 0 L 5.515625 -4.96875 Z M 3.03125 -6.15625 L 4.9375 -6.15625 C 5.914062 -6.15625 6.628906 -6.347656 7.078125 -6.734375 C 7.535156 -7.128906 7.765625 -7.710938 7.765625 -8.484375 C 7.765625 -9.273438 7.53125 -9.84375 7.0625 -10.1875 C 6.601562 -10.539062 5.859375 -10.71875 4.828125 -10.71875 L 3.03125 -10.71875 Z M 3.03125 -6.15625 "/></g></g></g><g fill="#000000" fill-opacity="1"><g transform="translate(246.155846, 286.072599)"><g><path d="M 11.171875 -6.078125 C 11.171875 -4.109375 10.632812 -2.601562 9.5625 -1.5625 C 8.488281 -0.519531 6.953125 0 4.953125 0 L 1.640625 0 L 1.640625 -11.9375 L 5.296875 -11.9375 C 7.148438 -11.9375 8.59375 -11.421875 9.625 -10.390625 C 10.65625 -9.359375 11.171875 -7.921875 11.171875 -6.078125 Z M 9.703125 -6.03125 C 9.703125 -7.59375 9.3125 -8.765625 8.53125 -9.546875 C 7.75 -10.335938 6.585938 -10.734375 5.046875 -10.734375 L 3.03125 -10.734375 L 3.03125 -1.203125 L 4.71875 -1.203125 C 6.375 -1.203125 7.617188 -1.609375 8.453125 -2.421875 C 9.285156 -3.234375 9.703125 -4.4375 9.703125 -6.03125 Z M 9.703125 -6.03125 "/></g></g></g><g clip-path="url(#d6ae17e69a)"><path fill="#2b2b2b" d="M 206.648438 224.851562 C 180.238281 224.851562 158.757812 203.191406 158.757812 176.542969 C 158.757812 163.914062 163.546875 151.996094 172.226562 142.976562 C 172.757812 142.417969 173.636719 142.40625 174.195312 142.933594 C 174.753906 143.464844 174.769531 144.355469 174.238281 144.898438 C 166.058594 153.402344 161.550781 164.640625 161.550781 176.527344 C 161.550781 201.628906 181.773438 222.039062 206.632812 222.039062 C 231.492188 222.039062 251.730469 201.617188 251.730469 176.527344 C 251.730469 175.761719 252.359375 175.136719 253.125 175.136719 C 253.894531 175.136719 254.519531 175.761719 254.519531 176.527344 C 254.535156 203.191406 233.054688 224.851562 206.648438 224.851562 Z M 206.648438 224.851562 " fill-opacity="1" fill-rule="nonzero"/></g><path fill="#2b2b2b" d="M 239.515625 144.785156 C 239.152344 144.785156 238.792969 144.648438 238.527344 144.367188 C 230.027344 135.777344 218.707031 131.042969 206.648438 131.042969 C 199.863281 131.042969 193.34375 132.535156 187.261719 135.457031 C 186.5625 135.792969 185.726562 135.5 185.390625 134.804688 C 185.054688 134.109375 185.347656 133.273438 186.046875 132.9375 C 192.507812 129.820312 199.445312 128.246094 206.648438 128.246094 C 219.460938 128.246094 231.476562 133.273438 240.507812 142.40625 C 241.050781 142.949219 241.039062 143.839844 240.492188 144.367188 C 240.230469 144.660156 239.867188 144.785156 239.515625 144.785156 Z M 239.515625 144.785156 " fill-opacity="1" fill-rule="nonzero"/><g clip-path="url(#263f68f5ae)"><path fill="#2b2b2b" d="M 253.125 177.949219 L 206.648438 177.949219 C 205.878906 177.949219 205.25 177.320312 205.25 176.554688 C 205.25 175.789062 205.878906 175.164062 206.648438 175.164062 L 253.125 175.164062 C 253.894531 175.164062 254.519531 175.789062 254.519531 176.554688 C 254.519531 177.320312 253.894531 177.949219 253.125 177.949219 Z M 253.125 177.949219 " fill-opacity="1" fill-rule="nonzero"/></g><g clip-path="url(#ad45f983b5)"><path fill="#2b2b2b" d="M 206.523438 177.824219 C 205.992188 177.824219 205.503906 177.53125 205.265625 177.015625 L 164.425781 90.238281 L 123.601562 177.015625 C 123.265625 177.710938 122.441406 178.019531 121.742188 177.683594 C 121.046875 177.363281 120.738281 176.527344 121.074219 175.832031 L 163.167969 86.355469 C 163.628906 85.378906 165.234375 85.378906 165.695312 86.355469 L 207.792969 175.832031 C 208.125 176.527344 207.820312 177.363281 207.121094 177.683594 C 206.925781 177.78125 206.71875 177.824219 206.523438 177.824219 Z M 206.523438 177.824219 " fill-opacity="1" fill-rule="nonzero"/></g></svg>