<svg xmlns="http://www.w3.org/2000/svg" xmlns:xlink="http://www.w3.org/1999/xlink" width="500" zoomAndPan="magnify" viewBox="0 0 375 374.999991" height="500" preserveAspectRatio="xMidYMid meet" version="1.0"><defs><g/><clipPath id="bd3cf59e28"><path d="M 122.09375 102.367188 L 250 102.367188 L 250 225.367188 L 122.09375 225.367188 Z M 122.09375 102.367188 " clip-rule="nonzero"/></clipPath></defs><rect x="-37.5" width="450" fill="#ffffff" y="-37.499999" height="449.999989" fill-opacity="1"/><rect x="-37.5" width="450" fill="#000000" y="-37.499999" height="449.999989" fill-opacity="1"/><g clip-path="url(#bd3cf59e28)"><path fill="#ffffff" d="M 248.164062 136.226562 C 242.882812 115.746094 225.359375 102.554688 204.207031 102.542969 C 179.722656 102.523438 155.234375 102.535156 130.753906 102.535156 L 140.347656 119.4375 C 161.644531 119.398438 182.933594 119.410156 204.234375 119.425781 C 211.261719 119.425781 217.589844 121.488281 222.925781 126.167969 C 231.234375 133.449219 233.757812 142.890625 232.652344 153.496094 C 231.390625 165.769531 223.335938 176.078125 212.34375 178.714844 C 207.683594 179.839844 202.667969 179.398438 197.839844 179.882812 C 195.105469 180.164062 193.714844 179.027344 192.421875 176.746094 C 183.523438 161.085938 174.488281 145.496094 165.496094 129.898438 C 163.855469 127.046875 162.066406 127.015625 160.445312 129.816406 C 158.058594 133.945312 155.671875 138.082031 153.285156 142.214844 C 143.199219 159.695312 133.109375 177.164062 123.035156 194.65625 C 122.730469 195.195312 122.523438 195.785156 122.097656 196.730469 L 124.832031 196.730469 C 143.765625 196.730469 162.699219 196.773438 181.632812 196.667969 C 183.011719 196.65625 183.964844 196.949219 184.742188 197.625 C 185.238281 198.035156 185.648438 198.589844 186.058594 199.316406 C 191.003906 208.054688 196.058594 216.730469 201.035156 225.460938 L 220.621094 225.460938 C 218.285156 221.402344 216.046875 217.539062 213.824219 213.679688 C 210.660156 208.199219 207.511719 202.710938 204.390625 197.261719 C 204.765625 196.964844 204.882812 196.796875 205.019531 196.789062 C 205.585938 196.734375 206.167969 196.714844 206.746094 196.695312 C 215.402344 196.335938 223.25 193.625 230.367188 188.71875 C 247.953125 176.65625 252.894531 154.609375 248.164062 136.226562 Z M 151.238281 179.644531 C 155.152344 172.847656 158.929688 166.296875 162.925781 159.355469 C 165.179688 163.269531 167.355469 167.054688 169.542969 170.863281 C 171.21875 173.753906 172.886719 176.667969 174.601562 179.644531 Z M 151.238281 179.644531 " fill-opacity="1" fill-rule="nonzero"/></g><g fill="#ffffff" fill-opacity="1"><g transform="translate(90.785626, 262.85322)"><g><path d="M 4.375 0 L 6.25 -5 L 14.296875 -5 L 16.203125 0.3125 L 20.265625 -0.25 L 12.015625 -21.234375 L 8.578125 -21.234375 L 0.3125 0 Z M 10.203125 -15.671875 L 13.046875 -8.265625 L 7.4375 -8.265625 Z M 10.203125 -15.671875 "/></g></g></g><g fill="#ffffff" fill-opacity="1"><g transform="translate(111.359963, 262.85322)"><g><path d="M 8.546875 0 L 11.984375 0 L 20.265625 -21.234375 L 16.203125 -21.234375 L 10.359375 -5.5625 L 4.375 -21.546875 L 0.3125 -20.984375 Z M 8.546875 0 "/></g></g></g><g fill="#ffffff" fill-opacity="1"><g transform="translate(131.934301, 262.85322)"><g><path d="M 6.6875 -3.15625 L 6.6875 -9.109375 L 14.265625 -9.109375 L 13.609375 -12.328125 L 6.6875 -12.328125 L 6.6875 -18.046875 L 15.953125 -18.046875 L 15.328125 -21.234375 L 2.65625 -21.234375 L 2.65625 0 L 17.515625 0 L 16.859375 -3.15625 Z M 6.6875 -3.15625 "/></g></g></g><g fill="#ffffff" fill-opacity="1"><g transform="translate(150.07344, 262.85322)"><g><path d="M 6.6875 0 L 6.6875 -8.046875 L 10.484375 -8.046875 L 14.984375 0 L 19.296875 0 L 14.078125 -9.109375 C 15.179688 -9.648438 16.0625 -10.398438 16.71875 -11.359375 C 17.375 -12.316406 17.703125 -13.429688 17.703125 -14.703125 C 17.703125 -16.828125 16.914062 -18.445312 15.34375 -19.5625 C 13.769531 -20.675781 11.753906 -21.234375 9.296875 -21.234375 L 2.65625 -21.234375 L 2.65625 0 Z M 9.171875 -17.859375 C 12.003906 -17.859375 13.421875 -16.742188 13.421875 -14.515625 C 13.421875 -13.429688 13.039062 -12.632812 12.28125 -12.125 C 11.519531 -11.613281 10.503906 -11.359375 9.234375 -11.359375 L 6.6875 -11.359375 L 6.6875 -17.859375 Z M 9.171875 -17.859375 "/></g></g></g><g fill="#ffffff" fill-opacity="1"><g transform="translate(169.679937, 262.85322)"><g><path d="M 18.671875 -21.234375 L 14.390625 -21.234375 L 9.234375 -12.359375 L 4.3125 -21.671875 L 0.3125 -20.515625 L 7.25 -8.265625 L 7.25 0 L 11.296875 0 L 11.296875 -8.109375 Z M 18.671875 -21.234375 "/></g></g></g><g fill="#ffffff" fill-opacity="1"><g transform="translate(188.662026, 262.85322)"><g/></g></g><g fill="#ffffff" fill-opacity="1"><g transform="translate(195.686645, 262.85322)"><g><path d="M 10.703125 0 C 13.828125 -0.0390625 16.238281 -1.003906 17.9375 -2.890625 C 19.632812 -4.773438 20.484375 -7.390625 20.484375 -10.734375 C 20.484375 -12.816406 20.125 -14.644531 19.40625 -16.21875 C 18.6875 -17.789062 17.59375 -19.019531 16.125 -19.90625 C 14.65625 -20.789062 12.847656 -21.234375 10.703125 -21.234375 L 2.65625 -21.234375 L 2.65625 0 Z M 10.859375 -17.796875 C 12.691406 -17.796875 14.054688 -17.1875 14.953125 -15.96875 C 15.847656 -14.75 16.296875 -13.003906 16.296875 -10.734375 C 16.296875 -8.203125 15.800781 -6.347656 14.8125 -5.171875 C 13.820312 -3.992188 12.429688 -3.40625 10.640625 -3.40625 L 6.6875 -3.40625 L 6.6875 -17.796875 Z M 10.859375 -17.796875 "/></g></g></g><g fill="#ffffff" fill-opacity="1"><g transform="translate(217.26004, 262.85322)"><g><path d="M 4.375 0 L 6.25 -5 L 14.296875 -5 L 16.203125 0.3125 L 20.265625 -0.25 L 12.015625 -21.234375 L 8.578125 -21.234375 L 0.3125 0 Z M 10.203125 -15.671875 L 13.046875 -8.265625 L 7.4375 -8.265625 Z M 10.203125 -15.671875 "/></g></g></g><g fill="#ffffff" fill-opacity="1"><g transform="translate(237.834377, 262.85322)"><g><path d="M 8.546875 0 L 11.984375 0 L 20.265625 -21.234375 L 16.203125 -21.234375 L 10.359375 -5.5625 L 4.375 -21.546875 L 0.3125 -20.984375 Z M 8.546875 0 "/></g></g></g><g fill="#ffffff" fill-opacity="1"><g transform="translate(258.408715, 262.85322)"><g><path d="M 2.65625 -21.234375 L 2.65625 0 L 6.6875 0 L 6.6875 -21.234375 Z M 2.65625 -21.234375 "/></g></g></g><g fill="#ffffff" fill-opacity="1"><g transform="translate(267.743663, 262.85322)"><g><path d="M 1.46875 -1.40625 C 2.175781 -0.96875 3.179688 -0.554688 4.484375 -0.171875 C 5.785156 0.210938 6.875 0.40625 7.75 0.40625 C 9.40625 0.40625 10.832031 0.15625 12.03125 -0.34375 C 13.226562 -0.84375 14.132812 -1.53125 14.75 -2.40625 C 15.363281 -3.28125 15.671875 -4.289062 15.671875 -5.4375 C 15.671875 -6.457031 15.425781 -7.34375 14.9375 -8.09375 C 14.445312 -8.851562 13.835938 -9.5 13.109375 -10.03125 C 12.378906 -10.5625 11.398438 -11.179688 10.171875 -11.890625 L 9.265625 -12.421875 L 8.265625 -12.984375 C 7.210938 -13.609375 6.453125 -14.125 5.984375 -14.53125 C 5.515625 -14.9375 5.28125 -15.441406 5.28125 -16.046875 C 5.28125 -16.753906 5.578125 -17.289062 6.171875 -17.65625 C 6.765625 -18.019531 7.523438 -18.203125 8.453125 -18.203125 C 9.265625 -18.203125 10.019531 -18.085938 10.71875 -17.859375 C 11.414062 -17.628906 12.191406 -17.304688 13.046875 -16.890625 L 14.390625 -20.140625 C 12.179688 -21.203125 10.179688 -21.734375 8.390625 -21.734375 C 6.878906 -21.734375 5.578125 -21.488281 4.484375 -21 C 3.390625 -20.507812 2.550781 -19.832031 1.96875 -18.96875 C 1.382812 -18.101562 1.09375 -17.128906 1.09375 -16.046875 C 1.09375 -15.023438 1.390625 -14.101562 1.984375 -13.28125 C 2.578125 -12.457031 3.285156 -11.742188 4.109375 -11.140625 C 4.929688 -10.535156 6.039062 -9.816406 7.4375 -8.984375 L 8.359375 -8.421875 C 9.421875 -7.847656 10.207031 -7.347656 10.71875 -6.921875 C 11.226562 -6.492188 11.484375 -6.019531 11.484375 -5.5 C 11.484375 -4.75 11.160156 -4.175781 10.515625 -3.78125 C 9.867188 -3.382812 8.925781 -3.1875 7.6875 -3.1875 C 6.875 -3.1875 5.976562 -3.335938 5 -3.640625 C 4.019531 -3.941406 3.144531 -4.289062 2.375 -4.6875 Z M 1.46875 -1.40625 "/></g></g></g></svg>