<svg xmlns="http://www.w3.org/2000/svg" xmlns:xlink="http://www.w3.org/1999/xlink" width="500" zoomAndPan="magnify" viewBox="0 0 375 374.999991" height="500" preserveAspectRatio="xMidYMid meet" version="1.0"><defs><g/><clipPath id="08281fa87a"><path d="M 218.621094 87.902344 L 317.621094 87.902344 L 317.621094 237.902344 L 218.621094 237.902344 Z M 218.621094 87.902344 " clip-rule="nonzero"/></clipPath><clipPath id="ad6f4df3f4"><path d="M 257.171875 87.902344 L 257.320312 87.902344 L 257.320312 204.171875 L 257.171875 204.171875 Z M 257.171875 204.171875 L 317.601562 204.171875 L 317.601562 237.902344 L 257.171875 237.902344 Z M 257.171875 204.171875 " clip-rule="nonzero"/></clipPath><linearGradient x1="341.599993" gradientTransform="matrix(0.1875, 0, 0, 0.1875, 193.12199, 87.902408)" y1="400" x2="663.89999" gradientUnits="userSpaceOnUse" y2="400" id="c3f34627f9"><stop stop-opacity="1" stop-color="rgb(33.299255%, 14.498901%, 0%)" offset="0"/><stop stop-opacity="1" stop-color="rgb(33.738708%, 14.938354%, 0.158691%)" offset="0.00390625"/><stop stop-opacity="1" stop-color="rgb(34.179688%, 15.379333%, 0.318909%)" offset="0.0078125"/><stop stop-opacity="1" stop-color="rgb(35.443115%, 16.642761%, 0.778198%)" offset="0.0117188"/><stop stop-opacity="1" stop-color="rgb(36.708069%, 17.907715%, 1.239014%)" offset="0.015625"/><stop stop-opacity="1" stop-color="rgb(37.939453%, 19.134521%, 1.681519%)" offset="0.0195312"/><stop stop-opacity="1" stop-color="rgb(39.172363%, 20.361328%, 2.124023%)" offset="0.0234375"/><stop stop-opacity="1" stop-color="rgb(40.252686%, 21.411133%, 2.484131%)" offset="0.0273438"/><stop stop-opacity="1" stop-color="rgb(41.333008%, 22.460938%, 2.844238%)" offset="0.03125"/><stop stop-opacity="1" stop-color="rgb(42.411804%, 23.509216%, 3.204346%)" offset="0.0351562"/><stop stop-opacity="1" stop-color="rgb(43.492126%, 24.559021%, 3.564453%)" offset="0.0390625"/><stop stop-opacity="1" stop-color="rgb(44.572449%, 25.608826%, 3.923035%)" offset="0.0429688"/><stop stop-opacity="1" stop-color="rgb(45.652771%, 26.65863%, 4.283142%)" offset="0.046875"/><stop stop-opacity="1" stop-color="rgb(46.733093%, 27.708435%, 4.64325%)" offset="0.0507813"/><stop stop-opacity="1" stop-color="rgb(47.813416%, 28.75824%, 5.003357%)" offset="0.0546875"/><stop stop-opacity="1" stop-color="rgb(48.893738%, 29.806519%, 5.363464%)" offset="0.0585938"/><stop stop-opacity="1" stop-color="rgb(49.97406%, 30.856323%, 5.723572%)" offset="0.0625"/><stop stop-opacity="1" stop-color="rgb(51.054382%, 31.906128%, 6.083679%)" offset="0.0664062"/><stop stop-opacity="1" stop-color="rgb(52.134705%, 32.955933%, 6.443787%)" offset="0.0703125"/><stop stop-opacity="1" stop-color="rgb(53.065491%, 33.876038%, 6.758118%)" offset="0.0742188"/><stop stop-opacity="1" stop-color="rgb(53.996277%, 34.796143%, 7.073975%)" offset="0.078125"/><stop stop-opacity="1" stop-color="rgb(54.844666%, 35.644531%, 7.362366%)" offset="0.0820312"/><stop stop-opacity="1" stop-color="rgb(55.693054%, 36.49292%, 7.652283%)" offset="0.0859375"/><stop stop-opacity="1" stop-color="rgb(56.541443%, 37.341309%, 7.9422%)" offset="0.0898437"/><stop stop-opacity="1" stop-color="rgb(57.391357%, 38.191223%, 8.232117%)" offset="0.09375"/><stop stop-opacity="1" stop-color="rgb(58.239746%, 39.039612%, 8.522034%)" offset="0.0976562"/><stop stop-opacity="1" stop-color="rgb(59.088135%, 39.888%, 8.811951%)" offset="0.101562"/><stop stop-opacity="1" stop-color="rgb(59.936523%, 40.736389%, 9.100342%)" offset="0.105469"/><stop stop-opacity="1" stop-color="rgb(60.784912%, 41.586304%, 9.390259%)" offset="0.109375"/><stop stop-opacity="1" stop-color="rgb(61.633301%, 42.434692%, 9.680176%)" offset="0.113281"/><stop stop-opacity="1" stop-color="rgb(62.483215%, 43.283081%, 9.970093%)" offset="0.117188"/><stop stop-opacity="1" stop-color="rgb(63.331604%, 44.13147%, 10.26001%)" offset="0.121094"/><stop stop-opacity="1" stop-color="rgb(64.179993%, 44.981384%, 10.549927%)" offset="0.125"/><stop stop-opacity="1" stop-color="rgb(64.99176%, 45.787048%, 10.827637%)" offset="0.128906"/><stop stop-opacity="1" stop-color="rgb(65.803528%, 46.592712%, 11.106873%)" offset="0.132812"/><stop stop-opacity="1" stop-color="rgb(66.485596%, 47.250366%, 11.347961%)" offset="0.136719"/><stop stop-opacity="1" stop-color="rgb(67.167664%, 47.90802%, 11.590576%)" offset="0.140625"/><stop stop-opacity="1" stop-color="rgb(67.849731%, 48.564148%, 11.831665%)" offset="0.144531"/><stop stop-opacity="1" stop-color="rgb(68.531799%, 49.221802%, 12.07428%)" offset="0.148438"/><stop stop-opacity="1" stop-color="rgb(69.213867%, 49.879456%, 12.315369%)" offset="0.152344"/><stop stop-opacity="1" stop-color="rgb(69.897461%, 50.537109%, 12.557983%)" offset="0.15625"/><stop stop-opacity="1" stop-color="rgb(70.579529%, 51.194763%, 12.799072%)" offset="0.160156"/><stop stop-opacity="1" stop-color="rgb(71.261597%, 51.852417%, 13.041687%)" offset="0.164063"/><stop stop-opacity="1" stop-color="rgb(71.943665%, 52.508545%, 13.282776%)" offset="0.167969"/><stop stop-opacity="1" stop-color="rgb(72.625732%, 53.166199%, 13.525391%)" offset="0.171875"/><stop stop-opacity="1" stop-color="rgb(73.3078%, 53.823853%, 13.766479%)" offset="0.175781"/><stop stop-opacity="1" stop-color="rgb(73.989868%, 54.481506%, 14.009094%)" offset="0.179688"/><stop stop-opacity="1" stop-color="rgb(74.671936%, 55.137634%, 14.250183%)" offset="0.183594"/><stop stop-opacity="1" stop-color="rgb(75.354004%, 55.795288%, 14.492798%)" offset="0.1875"/><stop stop-opacity="1" stop-color="rgb(76.000977%, 56.422424%, 14.718628%)" offset="0.191406"/><stop stop-opacity="1" stop-color="rgb(76.649475%, 57.049561%, 14.945984%)" offset="0.195313"/><stop stop-opacity="1" stop-color="rgb(77.116394%, 57.516479%, 15.092468%)" offset="0.199219"/><stop stop-opacity="1" stop-color="rgb(77.583313%, 57.983398%, 15.238953%)" offset="0.203125"/><stop stop-opacity="1" stop-color="rgb(78.048706%, 58.448792%, 15.385437%)" offset="0.207031"/><stop stop-opacity="1" stop-color="rgb(78.515625%, 58.91571%, 15.531921%)" offset="0.210938"/><stop stop-opacity="1" stop-color="rgb(78.982544%, 59.382629%, 15.678406%)" offset="0.214844"/><stop stop-opacity="1" stop-color="rgb(79.449463%, 59.849548%, 15.82489%)" offset="0.21875"/><stop stop-opacity="1" stop-color="rgb(79.916382%, 60.316467%, 15.971375%)" offset="0.222656"/><stop stop-opacity="1" stop-color="rgb(80.383301%, 60.783386%, 16.117859%)" offset="0.226563"/><stop stop-opacity="1" stop-color="rgb(80.848694%, 61.248779%, 16.264343%)" offset="0.230469"/><stop stop-opacity="1" stop-color="rgb(81.315613%, 61.715698%, 16.410828%)" offset="0.234375"/><stop stop-opacity="1" stop-color="rgb(81.782532%, 62.182617%, 16.557312%)" offset="0.238281"/><stop stop-opacity="1" stop-color="rgb(82.249451%, 62.649536%, 16.703796%)" offset="0.242188"/><stop stop-opacity="1" stop-color="rgb(82.71637%, 63.116455%, 16.850281%)" offset="0.246094"/><stop stop-opacity="1" stop-color="rgb(83.183289%, 63.583374%, 16.996765%)" offset="0.25"/><stop stop-opacity="1" stop-color="rgb(83.648682%, 64.048767%, 17.14325%)" offset="0.253906"/><stop stop-opacity="1" stop-color="rgb(84.115601%, 64.515686%, 17.29126%)" offset="0.257813"/><stop stop-opacity="1" stop-color="rgb(84.58252%, 64.982605%, 17.437744%)" offset="0.261719"/><stop stop-opacity="1" stop-color="rgb(85.049438%, 65.449524%, 17.584229%)" offset="0.265625"/><stop stop-opacity="1" stop-color="rgb(85.372925%, 65.77301%, 17.698669%)" offset="0.269531"/><stop stop-opacity="1" stop-color="rgb(85.696411%, 66.096497%, 17.81311%)" offset="0.273438"/><stop stop-opacity="1" stop-color="rgb(86.010742%, 66.410828%, 17.926025%)" offset="0.277344"/><stop stop-opacity="1" stop-color="rgb(86.326599%, 66.726685%, 18.03894%)" offset="0.28125"/><stop stop-opacity="1" stop-color="rgb(86.642456%, 67.042542%, 18.151855%)" offset="0.285156"/><stop stop-opacity="1" stop-color="rgb(86.958313%, 67.358398%, 18.264771%)" offset="0.289063"/><stop stop-opacity="1" stop-color="rgb(87.272644%, 67.672729%, 18.377686%)" offset="0.292969"/><stop stop-opacity="1" stop-color="rgb(87.588501%, 67.988586%, 18.490601%)" offset="0.296875"/><stop stop-opacity="1" stop-color="rgb(87.902832%, 68.302917%, 18.603516%)" offset="0.300781"/><stop stop-opacity="1" stop-color="rgb(88.218689%, 68.618774%, 18.716431%)" offset="0.304688"/><stop stop-opacity="1" stop-color="rgb(88.534546%, 68.934631%, 18.829346%)" offset="0.308594"/><stop stop-opacity="1" stop-color="rgb(88.850403%, 69.250488%, 18.942261%)" offset="0.3125"/><stop stop-opacity="1" stop-color="rgb(89.164734%, 69.564819%, 19.055176%)" offset="0.316406"/><stop stop-opacity="1" stop-color="rgb(89.480591%, 69.880676%, 19.168091%)" offset="0.320313"/><stop stop-opacity="1" stop-color="rgb(89.796448%, 70.196533%, 19.281006%)" offset="0.324219"/><stop stop-opacity="1" stop-color="rgb(90.112305%, 70.51239%, 19.395447%)" offset="0.328125"/><stop stop-opacity="1" stop-color="rgb(90.426636%, 70.826721%, 19.508362%)" offset="0.332031"/><stop stop-opacity="1" stop-color="rgb(90.742493%, 71.142578%, 19.621277%)" offset="0.335938"/><stop stop-opacity="1" stop-color="rgb(91.056824%, 71.456909%, 19.734192%)" offset="0.339844"/><stop stop-opacity="1" stop-color="rgb(91.372681%, 71.772766%, 19.847107%)" offset="0.34375"/><stop stop-opacity="1" stop-color="rgb(91.638184%, 72.038269%, 19.943237%)" offset="0.347656"/><stop stop-opacity="1" stop-color="rgb(91.905212%, 72.305298%, 20.039368%)" offset="0.351563"/><stop stop-opacity="1" stop-color="rgb(92.068481%, 72.468567%, 20.098877%)" offset="0.359375"/><stop stop-opacity="1" stop-color="rgb(92.39502%, 72.793579%, 20.220947%)" offset="0.367188"/><stop stop-opacity="1" stop-color="rgb(92.720032%, 73.120117%, 20.341492%)" offset="0.375"/><stop stop-opacity="1" stop-color="rgb(93.04657%, 73.446655%, 20.463562%)" offset="0.382812"/><stop stop-opacity="1" stop-color="rgb(93.373108%, 73.773193%, 20.584106%)" offset="0.390625"/><stop stop-opacity="1" stop-color="rgb(93.699646%, 74.099731%, 20.706177%)" offset="0.398438"/><stop stop-opacity="1" stop-color="rgb(94.024658%, 74.424744%, 20.826721%)" offset="0.40625"/><stop stop-opacity="1" stop-color="rgb(94.351196%, 74.751282%, 20.948792%)" offset="0.414062"/><stop stop-opacity="1" stop-color="rgb(94.677734%, 75.07782%, 21.069336%)" offset="0.421875"/><stop stop-opacity="1" stop-color="rgb(95.004272%, 75.404358%, 21.191406%)" offset="0.429688"/><stop stop-opacity="1" stop-color="rgb(95.330811%, 75.730896%, 21.313477%)" offset="0.4375"/><stop stop-opacity="1" stop-color="rgb(95.655823%, 76.055908%, 21.434021%)" offset="0.445313"/><stop stop-opacity="1" stop-color="rgb(95.968628%, 76.368713%, 21.549988%)" offset="0.453125"/><stop stop-opacity="1" stop-color="rgb(96.264648%, 76.664734%, 21.647644%)" offset="0.46875"/><stop stop-opacity="1" stop-color="rgb(96.556091%, 76.956177%, 21.734619%)" offset="0.484375"/><stop stop-opacity="1" stop-color="rgb(96.847534%, 77.24762%, 21.820068%)" offset="0.5"/><stop stop-opacity="1" stop-color="rgb(97.137451%, 77.537537%, 21.907043%)" offset="0.515625"/><stop stop-opacity="1" stop-color="rgb(97.428894%, 77.828979%, 21.992493%)" offset="0.53125"/><stop stop-opacity="1" stop-color="rgb(97.720337%, 78.120422%, 22.079468%)" offset="0.546875"/><stop stop-opacity="1" stop-color="rgb(98.01178%, 78.410339%, 22.164917%)" offset="0.5625"/><stop stop-opacity="1" stop-color="rgb(98.301697%, 78.701782%, 22.251892%)" offset="0.578125"/><stop stop-opacity="1" stop-color="rgb(98.59314%, 78.993225%, 22.337341%)" offset="0.59375"/><stop stop-opacity="1" stop-color="rgb(98.797607%, 79.196167%, 22.399902%)" offset="0.625"/><stop stop-opacity="1" stop-color="rgb(98.979187%, 79.377747%, 22.465515%)" offset="0.75"/><stop stop-opacity="1" stop-color="rgb(99.226379%, 79.626465%, 22.558594%)" offset="0.875"/><stop stop-opacity="1" stop-color="rgb(99.475098%, 79.875183%, 22.651672%)" offset="1"/></linearGradient><clipPath id="2b202ed17b"><path d="M 57.378906 88.347656 L 218.628906 88.347656 L 218.628906 237.597656 L 57.378906 237.597656 Z M 57.378906 88.347656 " clip-rule="nonzero"/></clipPath><clipPath id="818c737dc9"><path d="M 137 88.347656 L 218.628906 88.347656 L 218.628906 237.597656 L 137 237.597656 Z M 137 88.347656 " clip-rule="nonzero"/></clipPath><clipPath id="738fa8e8c5"><path d="M 137.417969 182.558594 L 156.925781 182.558594 L 137.863281 126.394531 L 137.417969 127.742188 L 137.417969 88.347656 L 162.082031 88.347656 L 218.363281 237.597656 L 174.636719 237.597656 L 167.242188 216.121094 L 137.417969 216.121094 Z M 137.417969 182.558594 " clip-rule="nonzero"/></clipPath><linearGradient x1="397.100002" gradientTransform="matrix(0.201501, 0, 0, 0.201091, 57.402724, 82.537078)" y1="400" x2="798.799979" gradientUnits="userSpaceOnUse" y2="400" id="c66720d3c4"><stop stop-opacity="1" stop-color="rgb(33.299255%, 14.498901%, 0%)" offset="0"/><stop stop-opacity="1" stop-color="rgb(33.764648%, 14.964294%, 0.169373%)" offset="0.00390625"/><stop stop-opacity="1" stop-color="rgb(34.231567%, 15.431213%, 0.338745%)" offset="0.0078125"/><stop stop-opacity="1" stop-color="rgb(35.494995%, 16.694641%, 0.798035%)" offset="0.0117187"/><stop stop-opacity="1" stop-color="rgb(36.758423%, 17.959595%, 1.257324%)" offset="0.015625"/><stop stop-opacity="1" stop-color="rgb(37.986755%, 19.181824%, 1.696777%)" offset="0.0195312"/><stop stop-opacity="1" stop-color="rgb(39.215088%, 20.404053%, 2.137756%)" offset="0.0234375"/><stop stop-opacity="1" stop-color="rgb(40.29541%, 21.452332%, 2.497864%)" offset="0.0273438"/><stop stop-opacity="1" stop-color="rgb(41.375732%, 22.502136%, 2.857971%)" offset="0.03125"/><stop stop-opacity="1" stop-color="rgb(42.454529%, 23.551941%, 3.218079%)" offset="0.0351562"/><stop stop-opacity="1" stop-color="rgb(43.534851%, 24.601746%, 3.578186%)" offset="0.0390625"/><stop stop-opacity="1" stop-color="rgb(44.615173%, 25.650024%, 3.938293%)" offset="0.0429688"/><stop stop-opacity="1" stop-color="rgb(45.695496%, 26.699829%, 4.298401%)" offset="0.046875"/><stop stop-opacity="1" stop-color="rgb(46.774292%, 27.748108%, 4.658508%)" offset="0.0507813"/><stop stop-opacity="1" stop-color="rgb(47.854614%, 28.797913%, 5.018616%)" offset="0.0546875"/><stop stop-opacity="1" stop-color="rgb(48.934937%, 29.847717%, 5.377197%)" offset="0.0585938"/><stop stop-opacity="1" stop-color="rgb(50.015259%, 30.897522%, 5.737305%)" offset="0.0625"/><stop stop-opacity="1" stop-color="rgb(51.094055%, 31.945801%, 6.097412%)" offset="0.0664062"/><stop stop-opacity="1" stop-color="rgb(52.174377%, 32.995605%, 6.45752%)" offset="0.0703125"/><stop stop-opacity="1" stop-color="rgb(53.100586%, 33.911133%, 6.770325%)" offset="0.0742187"/><stop stop-opacity="1" stop-color="rgb(54.026794%, 34.82666%, 7.084656%)" offset="0.078125"/><stop stop-opacity="1" stop-color="rgb(54.875183%, 35.675049%, 7.373047%)" offset="0.0820312"/><stop stop-opacity="1" stop-color="rgb(55.725098%, 36.524963%, 7.662964%)" offset="0.0859375"/><stop stop-opacity="1" stop-color="rgb(56.573486%, 37.373352%, 7.952881%)" offset="0.0898437"/><stop stop-opacity="1" stop-color="rgb(57.421875%, 38.221741%, 8.242798%)" offset="0.09375"/><stop stop-opacity="1" stop-color="rgb(58.270264%, 39.070129%, 8.531189%)" offset="0.0976562"/><stop stop-opacity="1" stop-color="rgb(59.118652%, 39.918518%, 8.821106%)" offset="0.101562"/><stop stop-opacity="1" stop-color="rgb(59.967041%, 40.766907%, 9.111023%)" offset="0.105469"/><stop stop-opacity="1" stop-color="rgb(60.81543%, 41.615295%, 9.40094%)" offset="0.109375"/><stop stop-opacity="1" stop-color="rgb(61.663818%, 42.463684%, 9.690857%)" offset="0.113281"/><stop stop-opacity="1" stop-color="rgb(62.513733%, 43.313599%, 9.980774%)" offset="0.117188"/><stop stop-opacity="1" stop-color="rgb(63.362122%, 44.161987%, 10.269165%)" offset="0.121094"/><stop stop-opacity="1" stop-color="rgb(64.21051%, 45.010376%, 10.559082%)" offset="0.125"/><stop stop-opacity="1" stop-color="rgb(65.019226%, 45.812988%, 10.836792%)" offset="0.128906"/><stop stop-opacity="1" stop-color="rgb(65.827942%, 46.615601%, 11.116028%)" offset="0.132812"/><stop stop-opacity="1" stop-color="rgb(66.508484%, 47.271729%, 11.357117%)" offset="0.136719"/><stop stop-opacity="1" stop-color="rgb(67.190552%, 47.929382%, 11.599731%)" offset="0.140625"/><stop stop-opacity="1" stop-color="rgb(67.87262%, 48.587036%, 11.84082%)" offset="0.144531"/><stop stop-opacity="1" stop-color="rgb(68.554688%, 49.24469%, 12.083435%)" offset="0.148438"/><stop stop-opacity="1" stop-color="rgb(69.236755%, 49.900818%, 12.324524%)" offset="0.152344"/><stop stop-opacity="1" stop-color="rgb(69.918823%, 50.558472%, 12.565613%)" offset="0.15625"/><stop stop-opacity="1" stop-color="rgb(70.600891%, 51.216125%, 12.806702%)" offset="0.160156"/><stop stop-opacity="1" stop-color="rgb(71.282959%, 51.873779%, 13.049316%)" offset="0.164062"/><stop stop-opacity="1" stop-color="rgb(71.965027%, 52.529907%, 13.290405%)" offset="0.167969"/><stop stop-opacity="1" stop-color="rgb(72.647095%, 53.187561%, 13.53302%)" offset="0.171875"/><stop stop-opacity="1" stop-color="rgb(73.329163%, 53.843689%, 13.774109%)" offset="0.175781"/><stop stop-opacity="1" stop-color="rgb(74.01123%, 54.501343%, 14.016724%)" offset="0.179688"/><stop stop-opacity="1" stop-color="rgb(74.693298%, 55.158997%, 14.257812%)" offset="0.183594"/><stop stop-opacity="1" stop-color="rgb(75.375366%, 55.81665%, 14.500427%)" offset="0.1875"/><stop stop-opacity="1" stop-color="rgb(76.019287%, 56.439209%, 14.724731%)" offset="0.191406"/><stop stop-opacity="1" stop-color="rgb(76.663208%, 57.063293%, 14.950562%)" offset="0.195313"/><stop stop-opacity="1" stop-color="rgb(77.130127%, 57.530212%, 15.097046%)" offset="0.199219"/><stop stop-opacity="1" stop-color="rgb(77.597046%, 57.997131%, 15.24353%)" offset="0.203125"/><stop stop-opacity="1" stop-color="rgb(78.062439%, 58.462524%, 15.390015%)" offset="0.207031"/><stop stop-opacity="1" stop-color="rgb(78.529358%, 58.929443%, 15.536499%)" offset="0.210938"/><stop stop-opacity="1" stop-color="rgb(78.996277%, 59.396362%, 15.682983%)" offset="0.214844"/><stop stop-opacity="1" stop-color="rgb(79.463196%, 59.863281%, 15.829468%)" offset="0.21875"/><stop stop-opacity="1" stop-color="rgb(79.928589%, 60.328674%, 15.975952%)" offset="0.222656"/><stop stop-opacity="1" stop-color="rgb(80.395508%, 60.795593%, 16.122437%)" offset="0.226563"/><stop stop-opacity="1" stop-color="rgb(80.862427%, 61.262512%, 16.268921%)" offset="0.230469"/><stop stop-opacity="1" stop-color="rgb(81.329346%, 61.729431%, 16.415405%)" offset="0.234375"/><stop stop-opacity="1" stop-color="rgb(81.796265%, 62.194824%, 16.56189%)" offset="0.238281"/><stop stop-opacity="1" stop-color="rgb(82.263184%, 62.661743%, 16.708374%)" offset="0.242188"/><stop stop-opacity="1" stop-color="rgb(82.728577%, 63.128662%, 16.854858%)" offset="0.246094"/><stop stop-opacity="1" stop-color="rgb(83.195496%, 63.595581%, 17.001343%)" offset="0.25"/><stop stop-opacity="1" stop-color="rgb(83.662415%, 64.0625%, 17.147827%)" offset="0.253906"/><stop stop-opacity="1" stop-color="rgb(84.129333%, 64.529419%, 17.294312%)" offset="0.257813"/><stop stop-opacity="1" stop-color="rgb(84.594727%, 64.994812%, 17.440796%)" offset="0.261719"/><stop stop-opacity="1" stop-color="rgb(85.061646%, 65.461731%, 17.58728%)" offset="0.265625"/><stop stop-opacity="1" stop-color="rgb(85.38208%, 65.782166%, 17.701721%)" offset="0.269531"/><stop stop-opacity="1" stop-color="rgb(85.704041%, 66.104126%, 17.816162%)" offset="0.273438"/><stop stop-opacity="1" stop-color="rgb(86.019897%, 66.419983%, 17.929077%)" offset="0.277344"/><stop stop-opacity="1" stop-color="rgb(86.335754%, 66.73584%, 18.041992%)" offset="0.28125"/><stop stop-opacity="1" stop-color="rgb(86.650085%, 67.050171%, 18.154907%)" offset="0.285156"/><stop stop-opacity="1" stop-color="rgb(86.965942%, 67.366028%, 18.267822%)" offset="0.289063"/><stop stop-opacity="1" stop-color="rgb(87.280273%, 67.680359%, 18.380737%)" offset="0.292969"/><stop stop-opacity="1" stop-color="rgb(87.59613%, 67.996216%, 18.493652%)" offset="0.296875"/><stop stop-opacity="1" stop-color="rgb(87.911987%, 68.310547%, 18.606567%)" offset="0.300781"/><stop stop-opacity="1" stop-color="rgb(88.227844%, 68.626404%, 18.719482%)" offset="0.304688"/><stop stop-opacity="1" stop-color="rgb(88.542175%, 68.942261%, 18.832397%)" offset="0.308594"/><stop stop-opacity="1" stop-color="rgb(88.858032%, 69.258118%, 18.945312%)" offset="0.3125"/><stop stop-opacity="1" stop-color="rgb(89.172363%, 69.572449%, 19.058228%)" offset="0.316406"/><stop stop-opacity="1" stop-color="rgb(89.48822%, 69.888306%, 19.171143%)" offset="0.320313"/><stop stop-opacity="1" stop-color="rgb(89.802551%, 70.202637%, 19.284058%)" offset="0.324219"/><stop stop-opacity="1" stop-color="rgb(90.118408%, 70.518494%, 19.396973%)" offset="0.328125"/><stop stop-opacity="1" stop-color="rgb(90.434265%, 70.834351%, 19.509888%)" offset="0.332031"/><stop stop-opacity="1" stop-color="rgb(90.750122%, 71.150208%, 19.622803%)" offset="0.335938"/><stop stop-opacity="1" stop-color="rgb(91.064453%, 71.464539%, 19.735718%)" offset="0.339844"/><stop stop-opacity="1" stop-color="rgb(91.38031%, 71.780396%, 19.848633%)" offset="0.34375"/><stop stop-opacity="1" stop-color="rgb(91.644287%, 72.044373%, 19.943237%)" offset="0.347656"/><stop stop-opacity="1" stop-color="rgb(91.908264%, 72.30835%, 20.039368%)" offset="0.351563"/><stop stop-opacity="1" stop-color="rgb(92.071533%, 72.471619%, 20.100403%)" offset="0.359375"/><stop stop-opacity="1" stop-color="rgb(92.398071%, 72.798157%, 20.220947%)" offset="0.367188"/><stop stop-opacity="1" stop-color="rgb(92.724609%, 73.123169%, 20.343018%)" offset="0.375"/><stop stop-opacity="1" stop-color="rgb(93.049622%, 73.449707%, 20.465088%)" offset="0.382813"/><stop stop-opacity="1" stop-color="rgb(93.37616%, 73.776245%, 20.585632%)" offset="0.390625"/><stop stop-opacity="1" stop-color="rgb(93.702698%, 74.102783%, 20.707703%)" offset="0.398438"/><stop stop-opacity="1" stop-color="rgb(94.02771%, 74.427795%, 20.828247%)" offset="0.40625"/><stop stop-opacity="1" stop-color="rgb(94.354248%, 74.754333%, 20.950317%)" offset="0.414063"/><stop stop-opacity="1" stop-color="rgb(94.680786%, 75.080872%, 21.070862%)" offset="0.421875"/><stop stop-opacity="1" stop-color="rgb(95.007324%, 75.40741%, 21.192932%)" offset="0.429688"/><stop stop-opacity="1" stop-color="rgb(95.332336%, 75.732422%, 21.313477%)" offset="0.4375"/><stop stop-opacity="1" stop-color="rgb(95.658875%, 76.05896%, 21.435547%)" offset="0.445313"/><stop stop-opacity="1" stop-color="rgb(95.97168%, 76.371765%, 21.551514%)" offset="0.453125"/><stop stop-opacity="1" stop-color="rgb(96.266174%, 76.66626%, 21.64917%)" offset="0.46875"/><stop stop-opacity="1" stop-color="rgb(96.557617%, 76.957703%, 21.734619%)" offset="0.484375"/><stop stop-opacity="1" stop-color="rgb(96.847534%, 77.24762%, 21.821594%)" offset="0.5"/><stop stop-opacity="1" stop-color="rgb(97.138977%, 77.539062%, 21.907043%)" offset="0.515625"/><stop stop-opacity="1" stop-color="rgb(97.43042%, 77.830505%, 21.994019%)" offset="0.53125"/><stop stop-opacity="1" stop-color="rgb(97.720337%, 78.120422%, 22.079468%)" offset="0.546875"/><stop stop-opacity="1" stop-color="rgb(98.01178%, 78.411865%, 22.166443%)" offset="0.5625"/><stop stop-opacity="1" stop-color="rgb(98.303223%, 78.703308%, 22.251892%)" offset="0.578125"/><stop stop-opacity="1" stop-color="rgb(98.59314%, 78.993225%, 22.338867%)" offset="0.59375"/><stop stop-opacity="1" stop-color="rgb(98.797607%, 79.197693%, 22.399902%)" offset="0.625"/><stop stop-opacity="1" stop-color="rgb(98.979187%, 79.379272%, 22.465515%)" offset="0.75"/><stop stop-opacity="1" stop-color="rgb(99.226379%, 79.626465%, 22.558594%)" offset="0.875"/><stop stop-opacity="1" stop-color="rgb(99.475098%, 79.875183%, 22.651672%)" offset="1"/></linearGradient></defs><g clip-path="url(#08281fa87a)"><path fill="#feea3a" d="M 218.640625 237.902344 L 218.640625 87.902344 L 257.320312 87.902344 L 257.320312 204.171875 L 317.585938 204.171875 L 317.585938 237.902344 Z M 218.640625 237.902344 " fill-opacity="1" fill-rule="nonzero"/></g><g clip-path="url(#ad6f4df3f4)"><path fill="url(#c3f34627f9)" d="M 257.171875 87.902344 L 257.171875 237.902344 L 317.601562 237.902344 L 317.601562 87.902344 Z M 257.171875 87.902344 " fill-rule="nonzero"/></g><g clip-path="url(#2b202ed17b)"><path fill="#feea3a" d="M 174.878906 237.597656 L 167.484375 216.121094 L 108.523438 216.121094 L 101.128906 237.597656 L 57.402344 237.597656 L 113.683594 88.347656 L 162.101562 88.347656 L 218.601562 237.597656 Z M 137.882812 126.394531 L 118.820312 182.558594 L 156.945312 182.558594 Z M 137.882812 126.394531 " fill-opacity="1" fill-rule="nonzero"/></g><g clip-path="url(#818c737dc9)"><g clip-path="url(#738fa8e8c5)"><path fill="url(#c66720d3c4)" d="M 137.417969 88.347656 L 137.417969 237.597656 L 218.363281 237.597656 L 218.363281 88.347656 Z M 137.417969 88.347656 " fill-rule="nonzero"/></g></g><g fill="#feea3a" fill-opacity="1"><g transform="translate(76.031871, 282.907949)"><g><path d="M 11.5625 0 L 9.953125 0 L 8.765625 -3.53125 L 3.28125 -3.53125 L 2.09375 0 L 0.515625 0 L 5 -12.84375 L 7.078125 -12.84375 Z M 5.921875 -11.296875 L 3.703125 -4.796875 L 8.328125 -4.796875 L 6.140625 -11.296875 Z M 5.921875 -11.296875 "/></g></g></g><g fill="#feea3a" fill-opacity="1"><g transform="translate(89.900173, 282.907949)"><g><path d="M 11.5625 0 L 9.953125 0 L 8.765625 -3.53125 L 3.28125 -3.53125 L 2.09375 0 L 0.515625 0 L 5 -12.84375 L 7.078125 -12.84375 Z M 5.921875 -11.296875 L 3.703125 -4.796875 L 8.328125 -4.796875 L 6.140625 -11.296875 Z M 5.921875 -11.296875 "/></g></g></g><g fill="#feea3a" fill-opacity="1"><g transform="translate(103.768475, 282.907949)"><g><path d="M 1.9375 0 L 1.9375 -12.84375 L 6.609375 -12.84375 C 7.472656 -12.84375 8.195312 -12.703125 8.78125 -12.421875 C 9.363281 -12.140625 9.800781 -11.738281 10.09375 -11.21875 C 10.382812 -10.695312 10.53125 -10.082031 10.53125 -9.375 C 10.53125 -8.582031 10.332031 -7.925781 9.9375 -7.40625 C 9.539062 -6.882812 8.921875 -6.492188 8.078125 -6.234375 L 8.078125 -6.0625 C 8.492188 -5.894531 8.832031 -5.632812 9.09375 -5.28125 C 9.363281 -4.925781 9.609375 -4.398438 9.828125 -3.703125 L 11.015625 0 L 9.453125 0 L 8.171875 -3.921875 C 8.023438 -4.390625 7.847656 -4.753906 7.640625 -5.015625 C 7.441406 -5.285156 7.191406 -5.476562 6.890625 -5.59375 C 6.585938 -5.707031 6.203125 -5.765625 5.734375 -5.765625 L 3.453125 -5.765625 L 3.453125 0 Z M 6.578125 -7.046875 C 7.378906 -7.046875 7.972656 -7.234375 8.359375 -7.609375 C 8.753906 -7.984375 8.953125 -8.550781 8.953125 -9.3125 C 8.953125 -10.070312 8.753906 -10.632812 8.359375 -11 C 7.972656 -11.375 7.378906 -11.5625 6.578125 -11.5625 L 3.453125 -11.5625 L 3.453125 -7.046875 Z M 6.578125 -7.046875 "/></g></g></g><g fill="#feea3a" fill-opacity="1"><g transform="translate(117.461109, 282.907949)"><g><path d="M 7.046875 0.1875 C 5.929688 0.1875 4.941406 -0.0507812 4.078125 -0.53125 C 3.210938 -1.007812 2.53125 -1.742188 2.03125 -2.734375 C 1.53125 -3.722656 1.28125 -4.953125 1.28125 -6.421875 C 1.28125 -7.890625 1.53125 -9.117188 2.03125 -10.109375 C 2.53125 -11.097656 3.210938 -11.832031 4.078125 -12.3125 C 4.941406 -12.789062 5.929688 -13.03125 7.046875 -13.03125 C 8.160156 -13.03125 9.148438 -12.789062 10.015625 -12.3125 C 10.890625 -11.832031 11.570312 -11.097656 12.0625 -10.109375 C 12.5625 -9.117188 12.8125 -7.890625 12.8125 -6.421875 C 12.8125 -4.953125 12.5625 -3.722656 12.0625 -2.734375 C 11.570312 -1.742188 10.890625 -1.007812 10.015625 -0.53125 C 9.148438 -0.0507812 8.160156 0.1875 7.046875 0.1875 Z M 7.046875 -1.21875 C 8.378906 -1.21875 9.40625 -1.632812 10.125 -2.46875 C 10.84375 -3.300781 11.203125 -4.617188 11.203125 -6.421875 C 11.203125 -8.222656 10.84375 -9.539062 10.125 -10.375 C 9.40625 -11.21875 8.378906 -11.640625 7.046875 -11.640625 C 4.285156 -11.640625 2.90625 -9.898438 2.90625 -6.421875 C 2.90625 -2.953125 4.285156 -1.21875 7.046875 -1.21875 Z M 7.046875 -1.21875 "/></g></g></g><g fill="#feea3a" fill-opacity="1"><g transform="translate(133.349579, 282.907949)"><g><path d="M 3.421875 0 L 1.9375 0 L 1.9375 -12.84375 L 3.796875 -12.84375 L 10.0625 -3.03125 L 10.28125 -3.0625 L 10.28125 -12.84375 L 11.75 -12.84375 L 11.75 0 L 10.171875 0 L 3.640625 -10.5 L 3.421875 -10.46875 Z M 3.421875 0 "/></g></g></g><g fill="#feea3a" fill-opacity="1"><g transform="translate(148.842807, 282.907949)"><g/></g></g><g fill="#feea3a" fill-opacity="1"><g transform="translate(155.052039, 282.907949)"><g><path d="M 3.453125 -12.84375 L 3.453125 -1.25 L 9.640625 -1.25 L 9.640625 0 L 1.9375 0 L 1.9375 -12.84375 Z M 3.453125 -12.84375 "/></g></g></g><g fill="#feea3a" fill-opacity="1"><g transform="translate(167.031931, 282.907949)"><g><path d="M 7.046875 0.1875 C 5.929688 0.1875 4.941406 -0.0507812 4.078125 -0.53125 C 3.210938 -1.007812 2.53125 -1.742188 2.03125 -2.734375 C 1.53125 -3.722656 1.28125 -4.953125 1.28125 -6.421875 C 1.28125 -7.890625 1.53125 -9.117188 2.03125 -10.109375 C 2.53125 -11.097656 3.210938 -11.832031 4.078125 -12.3125 C 4.941406 -12.789062 5.929688 -13.03125 7.046875 -13.03125 C 8.160156 -13.03125 9.148438 -12.789062 10.015625 -12.3125 C 10.890625 -11.832031 11.570312 -11.097656 12.0625 -10.109375 C 12.5625 -9.117188 12.8125 -7.890625 12.8125 -6.421875 C 12.8125 -4.953125 12.5625 -3.722656 12.0625 -2.734375 C 11.570312 -1.742188 10.890625 -1.007812 10.015625 -0.53125 C 9.148438 -0.0507812 8.160156 0.1875 7.046875 0.1875 Z M 7.046875 -1.21875 C 8.378906 -1.21875 9.40625 -1.632812 10.125 -2.46875 C 10.84375 -3.300781 11.203125 -4.617188 11.203125 -6.421875 C 11.203125 -8.222656 10.84375 -9.539062 10.125 -10.375 C 9.40625 -11.21875 8.378906 -11.640625 7.046875 -11.640625 C 4.285156 -11.640625 2.90625 -9.898438 2.90625 -6.421875 C 2.90625 -2.953125 4.285156 -1.21875 7.046875 -1.21875 Z M 7.046875 -1.21875 "/></g></g></g><g fill="#feea3a" fill-opacity="1"><g transform="translate(182.920403, 282.907949)"><g><path d="M 3.453125 -6.0625 L 3.453125 -1.25 L 10 -1.25 L 10 0 L 1.9375 0 L 1.9375 -12.84375 L 9.859375 -12.84375 L 9.859375 -11.609375 L 3.453125 -11.609375 L 3.453125 -7.296875 L 9.109375 -7.296875 L 9.109375 -6.0625 Z M 3.453125 -6.0625 "/></g></g></g><g fill="#feea3a" fill-opacity="1"><g transform="translate(195.567829, 282.907949)"><g><path d="M 1.9375 0 L 1.9375 -12.84375 L 6.8125 -12.84375 C 7.601562 -12.84375 8.273438 -12.71875 8.828125 -12.46875 C 9.378906 -12.21875 9.789062 -11.859375 10.0625 -11.390625 C 10.34375 -10.929688 10.484375 -10.378906 10.484375 -9.734375 C 10.484375 -9.171875 10.332031 -8.664062 10.03125 -8.21875 C 9.726562 -7.769531 9.296875 -7.414062 8.734375 -7.15625 L 8.734375 -6.984375 C 9.585938 -6.765625 10.234375 -6.378906 10.671875 -5.828125 C 11.117188 -5.273438 11.34375 -4.578125 11.34375 -3.734375 C 11.34375 -2.535156 10.992188 -1.613281 10.296875 -0.96875 C 9.597656 -0.320312 8.5625 0 7.1875 0 Z M 6.734375 -7.453125 C 7.453125 -7.453125 8.003906 -7.632812 8.390625 -8 C 8.785156 -8.375 8.984375 -8.890625 8.984375 -9.546875 C 8.984375 -10.234375 8.789062 -10.75 8.40625 -11.09375 C 8.03125 -11.4375 7.472656 -11.609375 6.734375 -11.609375 L 3.453125 -11.609375 L 3.453125 -7.453125 Z M 7.0625 -1.25 C 8.894531 -1.25 9.8125 -2.078125 9.8125 -3.734375 C 9.8125 -5.378906 8.894531 -6.203125 7.0625 -6.203125 L 3.453125 -6.203125 L 3.453125 -1.25 Z M 7.0625 -1.25 "/></g></g></g><g fill="#feea3a" fill-opacity="1"><g transform="translate(209.725989, 282.907949)"><g/></g></g><g fill="#feea3a" fill-opacity="1"><g transform="translate(215.935221, 282.907949)"><g><path d="M 3.453125 -12.84375 L 3.453125 -1.25 L 9.640625 -1.25 L 9.640625 0 L 1.9375 0 L 1.9375 -12.84375 Z M 3.453125 -12.84375 "/></g></g></g><g fill="#feea3a" fill-opacity="1"><g transform="translate(227.915112, 282.907949)"><g><path d="M 3.453125 0 L 1.9375 0 L 1.9375 -12.84375 L 3.453125 -12.84375 Z M 3.453125 0 "/></g></g></g><g fill="#feea3a" fill-opacity="1"><g transform="translate(235.116868, 282.907949)"><g><path d="M 3.34375 0 L 1.9375 0 L 1.9375 -12.84375 L 4.1875 -12.84375 L 8.078125 -1.96875 L 8.265625 -1.96875 L 12.15625 -12.84375 L 14.3125 -12.84375 L 14.3125 0 L 12.890625 0 L 12.890625 -10.484375 L 12.671875 -10.515625 L 8.875 0 L 7.359375 0 L 3.5625 -10.515625 L 3.34375 -10.484375 Z M 3.34375 0 "/></g></g></g><g fill="#feea3a" fill-opacity="1"><g transform="translate(253.174831, 282.907949)"><g><path d="M 3.453125 0 L 1.9375 0 L 1.9375 -12.84375 L 3.453125 -12.84375 Z M 3.453125 0 "/></g></g></g><g fill="#feea3a" fill-opacity="1"><g transform="translate(260.376586, 282.907949)"><g><path d="M 10.03125 -12.84375 L 10.03125 -11.5625 L 6 -11.5625 L 6 0 L 4.5 0 L 4.5 -11.5625 L 0.46875 -11.5625 L 0.46875 -12.84375 Z M 10.03125 -12.84375 "/></g></g></g><g fill="#feea3a" fill-opacity="1"><g transform="translate(272.663878, 282.907949)"><g><path d="M 3.453125 -6.0625 L 3.453125 -1.25 L 10 -1.25 L 10 0 L 1.9375 0 L 1.9375 -12.84375 L 9.859375 -12.84375 L 9.859375 -11.609375 L 3.453125 -11.609375 L 3.453125 -7.296875 L 9.109375 -7.296875 L 9.109375 -6.0625 Z M 3.453125 -6.0625 "/></g></g></g><g fill="#feea3a" fill-opacity="1"><g transform="translate(285.311292, 282.907949)"><g><path d="M 6.09375 -12.84375 C 7.394531 -12.84375 8.515625 -12.609375 9.453125 -12.140625 C 10.390625 -11.679688 11.109375 -10.972656 11.609375 -10.015625 C 12.117188 -9.066406 12.375 -7.867188 12.375 -6.421875 C 12.375 -4.984375 12.117188 -3.785156 11.609375 -2.828125 C 11.109375 -1.867188 10.390625 -1.15625 9.453125 -0.6875 C 8.515625 -0.226562 7.394531 0 6.09375 0 L 1.9375 0 L 1.9375 -12.84375 Z M 5.953125 -1.28125 C 7.023438 -1.28125 7.910156 -1.445312 8.609375 -1.78125 C 9.316406 -2.113281 9.851562 -2.65625 10.21875 -3.40625 C 10.582031 -4.164062 10.765625 -5.171875 10.765625 -6.421875 C 10.765625 -7.679688 10.582031 -8.6875 10.21875 -9.4375 C 9.851562 -10.1875 9.316406 -10.726562 8.609375 -11.0625 C 7.910156 -11.394531 7.023438 -11.5625 5.953125 -11.5625 L 3.453125 -11.5625 L 3.453125 -1.28125 Z M 5.953125 -1.28125 "/></g></g></g></svg>