<svg xmlns="http://www.w3.org/2000/svg" xmlns:xlink="http://www.w3.org/1999/xlink" width="500" zoomAndPan="magnify" viewBox="0 0 375 374.999991" height="500" preserveAspectRatio="xMidYMid meet" version="1.0"><defs><g/><clipPath id="aa36d4d3b9"><path d="M 104.109375 76 L 270.609375 76 L 270.609375 261.441406 L 104.109375 261.441406 Z M 104.109375 76 " clip-rule="nonzero"/></clipPath></defs><rect x="-37.5" width="450" fill="#ffffff" y="-37.499999" height="449.999989" fill-opacity="1"/><rect x="-37.5" width="450" fill="#ffffff" y="-37.499999" height="449.999989" fill-opacity="1"/><g clip-path="url(#aa36d4d3b9)"><path fill="#50a41c" d="M 270.859375 180.507812 C 270.878906 182.367188 270.722656 184.226562 270.617188 186.085938 C 270.5625 187.019531 270.421875 187.941406 270.332031 188.867188 C 270.222656 189.796875 270.140625 190.726562 269.96875 191.640625 C 267.828125 206.425781 261.351562 220.578125 251.671875 232.089844 C 242.007812 243.609375 229.109375 252.523438 214.699219 257.3125 C 211.09375 258.480469 207.425781 259.515625 203.683594 260.171875 L 202.28125 260.441406 C 201.816406 260.53125 201.34375 260.582031 200.875 260.652344 L 198.050781 261.054688 L 195.207031 261.320312 L 193.785156 261.449219 L 192.363281 261.507812 L 189.507812 261.625 L 186.652344 261.597656 L 185.222656 261.582031 C 184.746094 261.566406 184.269531 261.527344 183.796875 261.5 L 180.941406 261.328125 L 178.097656 261.011719 L 176.671875 260.851562 L 175.257812 260.617188 L 172.433594 260.148438 L 169.628906 259.546875 C 154.703125 256.171875 140.71875 248.558594 129.679688 237.796875 C 118.628906 227.050781 110.566406 213.167969 106.742188 198.097656 L 106.054688 195.261719 L 105.5 192.402344 C 105.410156 191.921875 105.304688 191.445312 105.234375 190.96875 L 105.027344 189.523438 C 104.898438 188.558594 104.742188 187.597656 104.636719 186.632812 C 104.476562 184.695312 104.234375 182.757812 104.199219 180.8125 C 104.167969 179.839844 104.105469 178.867188 104.105469 177.894531 L 104.140625 174.972656 C 104.273438 167.175781 105.585938 159.394531 107.871094 151.902344 C 110.117188 144.394531 113.542969 137.25 117.769531 130.628906 C 118.269531 129.785156 118.859375 129 119.414062 128.1875 C 119.988281 127.386719 120.527344 126.5625 121.125 125.785156 C 122.347656 124.246094 123.503906 122.648438 124.828125 121.191406 C 125.476562 120.449219 126.113281 119.695312 126.773438 118.96875 C 127.257812 118.46875 127.628906 117.878906 127.890625 117.234375 C 144.351562 76.683594 201.492188 61.269531 245.433594 96.484375 C 246.117188 97.03125 245.757812 98.136719 244.886719 98.171875 C 230.191406 98.761719 219.742188 111.699219 204.78125 123.28125 C 188.929688 135.554688 168.015625 146.304688 131.625 139.226562 C 131.480469 139.199219 131.339844 139.164062 131.199219 139.132812 C 129.691406 138.761719 129.238281 136.839844 130.457031 135.878906 C 131.738281 134.863281 133.039062 133.863281 134.351562 132.878906 C 137.652344 130.410156 141.046875 128.035156 144.5 125.746094 C 146.226562 124.597656 147.96875 123.472656 149.722656 122.363281 C 151.480469 121.257812 153.25 120.175781 155.035156 119.113281 C 158.601562 116.980469 162.222656 114.9375 165.898438 112.988281 C 169.570312 111.039062 173.300781 109.195312 177.089844 107.476562 C 180.882812 105.753906 184.734375 104.167969 188.671875 102.800781 C 190.636719 102.117188 192.628906 101.492188 194.644531 100.957031 C 195.765625 100.65625 196.894531 100.382812 198.03125 100.144531 C 198.167969 100.113281 198.132812 99.917969 197.996094 99.933594 C 196.839844 100.085938 195.6875 100.273438 194.535156 100.488281 C 192.472656 100.875 190.421875 101.34375 188.390625 101.878906 C 184.324219 102.949219 180.320312 104.253906 176.367188 105.691406 C 172.414062 107.132812 168.503906 108.707031 164.648438 110.390625 C 160.785156 112.074219 156.96875 113.855469 153.195312 115.734375 C 151.304688 116.671875 149.429688 117.632812 147.5625 118.617188 C 145.695312 119.601562 143.839844 120.609375 141.996094 121.640625 C 139.492188 123.039062 137.011719 124.484375 134.554688 125.976562 L 134.371094 126.160156 C 133.769531 126.78125 133.191406 127.425781 132.601562 128.0625 C 131.390625 129.308594 130.339844 130.683594 129.214844 132.007812 C 128.664062 132.675781 128.171875 133.394531 127.644531 134.082031 C 127.132812 134.78125 126.585938 135.457031 126.125 136.195312 C 122.222656 141.929688 118.980469 148.164062 116.785156 154.78125 C 114.554688 161.382812 113.164062 168.292969 112.835938 175.300781 L 112.722656 177.929688 C 112.695312 178.804688 112.730469 179.679688 112.730469 180.558594 C 112.703125 182.316406 112.875 184.0625 112.960938 185.816406 C 113.03125 186.691406 113.148438 187.5625 113.238281 188.433594 L 113.382812 189.746094 C 113.433594 190.179688 113.519531 190.613281 113.585938 191.046875 L 114.007812 193.648438 L 114.554688 196.226562 C 117.597656 209.957031 124.539062 222.863281 134.417969 233.070312 C 144.285156 243.285156 157.03125 250.765625 170.890625 254.34375 L 173.496094 254.988281 L 176.132812 255.503906 L 177.449219 255.765625 L 178.78125 255.953125 L 181.441406 256.332031 L 184.121094 256.574219 C 184.570312 256.617188 185.015625 256.664062 185.464844 256.695312 L 186.808594 256.75 L 189.5 256.855469 L 192.199219 256.828125 L 193.546875 256.8125 L 194.890625 256.730469 L 197.585938 256.558594 L 200.269531 256.261719 C 200.714844 256.207031 201.164062 256.171875 201.609375 256.101562 L 202.941406 255.886719 C 206.507812 255.371094 210.011719 254.492188 213.476562 253.488281 C 227.3125 249.347656 239.960938 241.199219 249.648438 230.335938 C 259.34375 219.484375 266.105469 205.898438 268.648438 191.421875 C 268.84375 190.527344 268.953125 189.617188 269.085938 188.707031 C 269.203125 187.796875 269.367188 186.890625 269.449219 185.976562 C 269.609375 184.144531 269.820312 182.320312 269.855469 180.476562 C 269.941406 178.640625 269.988281 176.800781 269.925781 174.960938 C 269.882812 173.117188 269.777344 171.277344 269.601562 169.445312 C 268.917969 162.105469 267.226562 154.84375 264.558594 147.9375 C 267.433594 154.761719 269.355469 161.996094 270.265625 169.371094 C 270.5 171.214844 270.660156 173.070312 270.761719 174.925781 C 270.878906 176.785156 270.890625 178.644531 270.859375 180.507812 " fill-opacity="1" fill-rule="nonzero"/></g><g fill="#50a41c" fill-opacity="1"><g transform="translate(140.911109, 236.02875)"><g><path d="M 148.15625 23.21875 C 141.050781 26.757812 133.492188 28.53125 125.484375 28.53125 C 118.378906 28.53125 111.914062 27.441406 106.09375 25.265625 C 93.53125 20.617188 82.835938 11.5625 74.015625 -1.90625 C 71.734375 -5.1875 67.5 -11.46875 61.3125 -20.75 C 55.125 -30.039062 51.117188 -35.957031 49.296875 -38.5 C 46.109375 -43.507812 43.554688 -46.242188 41.640625 -46.703125 L 41.640625 -48.0625 C 41.734375 -48.0625 41.847656 -48.0625 41.984375 -48.0625 C 42.117188 -48.0625 42.273438 -48.0625 42.453125 -48.0625 C 42.640625 -48.0625 42.820312 -48.0625 43 -48.0625 C 43.1875 -48.0625 43.414062 -48.0625 43.6875 -48.0625 C 43.96875 -48.0625 44.195312 -48.0625 44.375 -48.0625 C 49.019531 -48.0625 53.300781 -49.109375 57.21875 -51.203125 C 63.132812 -54.484375 66.09375 -60.535156 66.09375 -69.359375 C 66.09375 -75.828125 64.269531 -80.8125 60.625 -84.3125 C 56.988281 -87.820312 52.617188 -89.578125 47.515625 -89.578125 L 37.140625 -89.578125 L 37.140625 -9.96875 C 37.140625 -7.601562 38.003906 -5.578125 39.734375 -3.890625 C 41.460938 -2.203125 43.507812 -1.359375 45.875 -1.359375 L 47.65625 -1.359375 L 47.65625 0 L 6.140625 0 L 6.140625 -1.359375 L 7.921875 -1.359375 C 10.191406 -1.359375 12.191406 -2.175781 13.921875 -3.8125 C 15.648438 -5.457031 16.5625 -7.460938 16.65625 -9.828125 L 16.65625 -85.609375 C 16.5625 -87.984375 15.671875 -90.007812 13.984375 -91.6875 C 12.304688 -93.375 10.285156 -94.21875 7.921875 -94.21875 L 6.140625 -94.21875 L 6.140625 -95.578125 L 52.984375 -95.578125 C 64.722656 -95.578125 73.828125 -92.894531 80.296875 -87.53125 C 85.390625 -83.34375 87.9375 -77.425781 87.9375 -69.78125 C 87.9375 -62.132812 85.453125 -55.921875 80.484375 -51.140625 C 75.523438 -46.359375 69.863281 -43.96875 63.5 -43.96875 C 62.945312 -43.96875 62.351562 -44.015625 61.71875 -44.109375 C 65.445312 -42.097656 68.5625 -39.863281 71.0625 -37.40625 C 73.570312 -34.957031 75.757812 -32.640625 77.625 -30.453125 C 79.488281 -28.265625 81.082031 -26.328125 82.40625 -24.640625 C 83.726562 -22.960938 85.476562 -20.734375 87.65625 -17.953125 C 89.84375 -15.179688 92.117188 -12.289062 94.484375 -9.28125 C 96.859375 -6.28125 99.476562 -3.207031 102.34375 -0.0625 C 105.207031 3.070312 108.390625 6.050781 111.890625 8.875 C 115.398438 11.695312 118.976562 14.019531 122.625 15.84375 C 130.351562 19.757812 138.863281 21.757812 148.15625 21.84375 Z M 148.15625 23.21875 "/></g></g></g><g fill="#000000" fill-opacity="1"><g transform="translate(77.416391, 290.744487)"><g><path d="M 6.515625 -13.4375 L 5.640625 -13.4375 C 5.609375 -13.4375 5.585938 -13.4375 5.578125 -13.4375 L 5.578125 -1.5 C 5.585938 -1.144531 5.71875 -0.835938 5.96875 -0.578125 C 6.21875 -0.328125 6.519531 -0.203125 6.875 -0.203125 L 7.15625 -0.203125 L 7.15625 0 L 0.921875 0 L 0.921875 -0.203125 L 1.1875 -0.203125 C 1.675781 -0.203125 2.050781 -0.414062 2.3125 -0.84375 C 2.425781 -1.03125 2.488281 -1.238281 2.5 -1.46875 L 2.5 -12.84375 C 2.488281 -13.195312 2.351562 -13.5 2.09375 -13.75 C 1.84375 -14.007812 1.539062 -14.140625 1.1875 -14.140625 L 0.921875 -14.140625 L 0.921875 -14.34375 L 7.953125 -14.34375 C 9.273438 -14.34375 10.394531 -14.054688 11.3125 -13.484375 C 11.769531 -13.191406 12.132812 -12.789062 12.40625 -12.28125 C 12.6875 -11.769531 12.828125 -11.097656 12.828125 -10.265625 C 12.828125 -9.441406 12.539062 -8.644531 11.96875 -7.875 C 11.394531 -7.113281 10.5625 -6.679688 9.46875 -6.578125 C 10.257812 -6.316406 10.953125 -5.710938 11.546875 -4.765625 C 13.023438 -2.410156 14.117188 -1.003906 14.828125 -0.546875 C 15.179688 -0.328125 15.625 -0.210938 16.15625 -0.203125 L 16.15625 0 L 14.15625 0 C 12.96875 0 11.976562 -0.15625 11.1875 -0.46875 C 10.40625 -0.78125 9.789062 -1.332031 9.34375 -2.125 C 9.082031 -2.582031 8.515625 -3.753906 7.640625 -5.640625 C 7.253906 -6.460938 6.789062 -6.914062 6.25 -7 L 6.25 -7.203125 L 6.875 -7.203125 C 7.488281 -7.203125 8.03125 -7.382812 8.5 -7.75 C 8.976562 -8.125 9.300781 -8.726562 9.46875 -9.5625 C 9.519531 -9.851562 9.546875 -10.082031 9.546875 -10.25 C 9.546875 -11.363281 9.316406 -12.171875 8.859375 -12.671875 C 8.410156 -13.171875 7.832031 -13.425781 7.125 -13.4375 C 6.988281 -13.4375 6.785156 -13.4375 6.515625 -13.4375 Z M 6.515625 -13.4375 "/></g></g></g><g fill="#000000" fill-opacity="1"><g transform="translate(92.713024, 290.744487)"><g><path d="M 0.71875 -6.140625 C 0.71875 -8.109375 1.375 -9.671875 2.6875 -10.828125 C 4.007812 -11.984375 5.765625 -12.5625 7.953125 -12.5625 C 10.148438 -12.5625 11.910156 -11.984375 13.234375 -10.828125 C 14.554688 -9.671875 15.21875 -8.109375 15.21875 -6.140625 C 15.21875 -4.179688 14.554688 -2.625 13.234375 -1.46875 C 11.910156 -0.3125 10.15625 0.265625 7.96875 0.265625 C 5.78125 0.265625 4.023438 -0.3125 2.703125 -1.46875 C 1.378906 -2.625 0.71875 -4.179688 0.71875 -6.140625 Z M 3.84375 -6.140625 C 3.84375 -4.421875 4.210938 -3.054688 4.953125 -2.046875 C 5.703125 -1.046875 6.703125 -0.546875 7.953125 -0.546875 C 9.203125 -0.546875 10.195312 -1.046875 10.9375 -2.046875 C 11.6875 -3.054688 12.0625 -4.421875 12.0625 -6.140625 C 12.0625 -7.859375 11.6875 -9.21875 10.9375 -10.21875 C 10.195312 -11.226562 9.203125 -11.734375 7.953125 -11.734375 C 6.703125 -11.734375 5.703125 -11.226562 4.953125 -10.21875 C 4.210938 -9.21875 3.84375 -7.859375 3.84375 -6.140625 Z M 3.84375 -6.140625 "/></g></g></g><g fill="#000000" fill-opacity="1"><g transform="translate(108.623974, 290.744487)"><g><path d="M 0.9375 -1.6875 C 0.9375 -2.570312 1.132812 -3.328125 1.53125 -3.953125 L 1.703125 -3.953125 C 1.691406 -3.859375 1.6875 -3.769531 1.6875 -3.6875 C 1.6875 -2.851562 1.984375 -2.117188 2.578125 -1.484375 C 3.171875 -0.859375 4 -0.546875 5.0625 -0.546875 C 5.820312 -0.546875 6.410156 -0.722656 6.828125 -1.078125 C 7.242188 -1.441406 7.453125 -1.835938 7.453125 -2.265625 C 7.453125 -2.703125 7.332031 -3.054688 7.09375 -3.328125 C 6.851562 -3.597656 6.460938 -3.910156 5.921875 -4.265625 L 3.015625 -6.109375 C 1.785156 -6.867188 1.171875 -7.847656 1.171875 -9.046875 C 1.171875 -9.171875 1.175781 -9.300781 1.1875 -9.4375 C 1.269531 -10.40625 1.644531 -11.164062 2.3125 -11.71875 C 2.976562 -12.28125 3.765625 -12.5625 4.671875 -12.5625 C 5.585938 -12.5625 6.550781 -12.5 7.5625 -12.375 L 8.671875 -12.375 L 8.375 -9.671875 L 8.1875 -9.671875 C 8.1875 -10.304688 7.960938 -10.804688 7.515625 -11.171875 C 7.078125 -11.546875 6.492188 -11.734375 5.765625 -11.734375 C 5.035156 -11.734375 4.457031 -11.578125 4.03125 -11.265625 C 3.613281 -10.960938 3.40625 -10.5625 3.40625 -10.0625 C 3.40625 -9.644531 3.609375 -9.289062 4.015625 -9 C 4.179688 -8.875 4.421875 -8.710938 4.734375 -8.515625 L 7.984375 -6.515625 C 9.109375 -5.828125 9.671875 -4.882812 9.671875 -3.6875 C 9.671875 -2.414062 9.222656 -1.4375 8.328125 -0.75 C 7.429688 -0.0703125 6.273438 0.265625 4.859375 0.265625 C 3.984375 0.265625 3.207031 0.164062 2.53125 -0.03125 C 1.863281 -0.238281 1.375 -0.5 1.0625 -0.8125 C 0.976562 -1.0625 0.9375 -1.351562 0.9375 -1.6875 Z M 0.9375 -1.6875 "/></g></g></g><g fill="#000000" fill-opacity="1"><g transform="translate(119.149373, 290.744487)"><g><path d="M 13.640625 -0.203125 L 13.796875 -0.203125 L 13.796875 0 L 7.78125 0 L 7.78125 -0.203125 L 7.9375 -0.203125 C 8.21875 -0.203125 8.414062 -0.285156 8.53125 -0.453125 C 8.65625 -0.617188 8.71875 -0.769531 8.71875 -0.90625 C 8.71875 -1.039062 8.691406 -1.179688 8.640625 -1.328125 L 7.84375 -3.21875 L 3.5 -3.21875 L 2.671875 -1.3125 C 2.617188 -1.175781 2.59375 -1.035156 2.59375 -0.890625 C 2.59375 -0.742188 2.65625 -0.59375 2.78125 -0.4375 C 2.914062 -0.28125 3.117188 -0.203125 3.390625 -0.203125 L 3.5625 -0.203125 L 3.5625 0 L -0.53125 0 L -0.53125 -0.203125 L -0.375 -0.203125 C -0.0820312 -0.203125 0.203125 -0.289062 0.484375 -0.46875 C 0.773438 -0.644531 1.007812 -0.910156 1.1875 -1.265625 L 5.421875 -10.359375 C 6.023438 -11.710938 6.335938 -12.546875 6.359375 -12.859375 L 6.546875 -12.859375 L 12.046875 -1.359375 C 12.222656 -0.960938 12.457031 -0.671875 12.75 -0.484375 C 13.039062 -0.296875 13.335938 -0.203125 13.640625 -0.203125 Z M 3.84375 -4.015625 L 7.5 -4.015625 L 5.6875 -8.296875 Z M 3.84375 -4.015625 "/></g></g></g><g fill="#000000" fill-opacity="1"><g transform="translate(132.336827, 290.744487)"><g/></g></g><g fill="#000000" fill-opacity="1"><g transform="translate(137.45618, 290.744487)"><g><path d="M 19.40625 -0.203125 L 19.71875 -0.203125 L 19.71875 0 L 13.578125 0 L 13.578125 -0.1875 L 13.890625 -0.1875 C 14.117188 -0.195312 14.316406 -0.289062 14.484375 -0.46875 C 14.648438 -0.644531 14.71875 -0.84375 14.6875 -1.0625 L 13.890625 -8.5 L 10.03125 -1.859375 C 9.53125 -1.015625 9.273438 -0.257812 9.265625 0.40625 L 9.046875 0.40625 L 3.796875 -8.4375 L 2.984375 -1.0625 C 2.960938 -0.84375 3.03125 -0.640625 3.1875 -0.453125 C 3.351562 -0.273438 3.554688 -0.1875 3.796875 -0.1875 L 4.09375 -0.1875 L 4.09375 0 L -0.1875 0 L -0.1875 -0.203125 L 0.140625 -0.203125 C 0.523438 -0.203125 0.859375 -0.316406 1.140625 -0.546875 C 1.421875 -0.785156 1.585938 -1.101562 1.640625 -1.5 L 3.34375 -14.625 L 3.515625 -14.625 L 9.875 -4.171875 L 15.984375 -14.625 L 16.15625 -14.625 L 17.90625 -1.5 C 17.96875 -1.101562 18.140625 -0.785156 18.421875 -0.546875 C 18.703125 -0.316406 19.03125 -0.203125 19.40625 -0.203125 Z M 19.40625 -0.203125 "/></g></g></g><g fill="#000000" fill-opacity="1"><g transform="translate(156.971156, 290.744487)"><g><path d="M 13.640625 -0.203125 L 13.796875 -0.203125 L 13.796875 0 L 7.78125 0 L 7.78125 -0.203125 L 7.9375 -0.203125 C 8.21875 -0.203125 8.414062 -0.285156 8.53125 -0.453125 C 8.65625 -0.617188 8.71875 -0.769531 8.71875 -0.90625 C 8.71875 -1.039062 8.691406 -1.179688 8.640625 -1.328125 L 7.84375 -3.21875 L 3.5 -3.21875 L 2.671875 -1.3125 C 2.617188 -1.175781 2.59375 -1.035156 2.59375 -0.890625 C 2.59375 -0.742188 2.65625 -0.59375 2.78125 -0.4375 C 2.914062 -0.28125 3.117188 -0.203125 3.390625 -0.203125 L 3.5625 -0.203125 L 3.5625 0 L -0.53125 0 L -0.53125 -0.203125 L -0.375 -0.203125 C -0.0820312 -0.203125 0.203125 -0.289062 0.484375 -0.46875 C 0.773438 -0.644531 1.007812 -0.910156 1.1875 -1.265625 L 5.421875 -10.359375 C 6.023438 -11.710938 6.335938 -12.546875 6.359375 -12.859375 L 6.546875 -12.859375 L 12.046875 -1.359375 C 12.222656 -0.960938 12.457031 -0.671875 12.75 -0.484375 C 13.039062 -0.296875 13.335938 -0.203125 13.640625 -0.203125 Z M 3.84375 -4.015625 L 7.5 -4.015625 L 5.6875 -8.296875 Z M 3.84375 -4.015625 "/></g></g></g><g fill="#000000" fill-opacity="1"><g transform="translate(170.15861, 290.744487)"><g><path d="M 5.796875 -11.453125 L 5.140625 -11.453125 L 5.140625 -1.296875 C 5.140625 -0.960938 5.25 -0.695312 5.46875 -0.5 C 5.695312 -0.300781 5.957031 -0.203125 6.25 -0.203125 L 6.46875 -0.203125 L 6.46875 0 L 0.84375 0 L 0.84375 -0.203125 L 1.078125 -0.203125 C 1.378906 -0.203125 1.632812 -0.300781 1.84375 -0.5 C 2.0625 -0.707031 2.171875 -0.960938 2.171875 -1.265625 L 2.171875 -11.015625 C 2.171875 -11.316406 2.0625 -11.566406 1.84375 -11.765625 C 1.632812 -11.972656 1.390625 -12.078125 1.109375 -12.078125 L 0.84375 -12.078125 L 0.84375 -12.296875 L 7.125 -12.296875 C 8.351562 -12.296875 9.382812 -12.054688 10.21875 -11.578125 C 11.144531 -11.046875 11.609375 -10.164062 11.609375 -8.9375 C 11.609375 -8.144531 11.367188 -7.429688 10.890625 -6.796875 C 10.421875 -6.160156 9.710938 -5.773438 8.765625 -5.640625 C 9.140625 -5.515625 9.503906 -5.28125 9.859375 -4.9375 C 10.222656 -4.59375 10.515625 -4.242188 10.734375 -3.890625 C 11.171875 -3.109375 11.628906 -2.394531 12.109375 -1.75 C 12.585938 -1.101562 12.972656 -0.679688 13.265625 -0.484375 C 13.554688 -0.296875 13.914062 -0.203125 14.34375 -0.203125 L 14.34375 0 L 12.625 0 C 11.488281 0 10.613281 -0.132812 10 -0.40625 C 9.394531 -0.675781 8.851562 -1.195312 8.375 -1.96875 C 7.632812 -3.144531 7.175781 -4.070312 7 -4.75 C 6.84375 -5.15625 6.648438 -5.460938 6.421875 -5.671875 C 6.191406 -5.878906 5.976562 -5.992188 5.78125 -6.015625 L 5.78125 -6.1875 L 6.28125 -6.1875 C 7.445312 -6.195312 8.160156 -6.878906 8.421875 -8.234375 C 8.472656 -8.441406 8.5 -8.617188 8.5 -8.765625 C 8.5 -8.921875 8.488281 -9.128906 8.46875 -9.390625 C 8.457031 -9.660156 8.375 -9.960938 8.21875 -10.296875 C 8.0625 -10.628906 7.863281 -10.867188 7.625 -11.015625 C 7.195312 -11.273438 6.757812 -11.414062 6.3125 -11.4375 C 6.15625 -11.445312 5.984375 -11.453125 5.796875 -11.453125 Z M 5.796875 -11.453125 "/></g></g></g><g fill="#000000" fill-opacity="1"><g transform="translate(183.612277, 290.744487)"><g><path d="M 0.703125 -0.203125 L 0.9375 -0.203125 C 1.269531 -0.203125 1.550781 -0.304688 1.78125 -0.515625 C 2.007812 -0.734375 2.125 -0.992188 2.125 -1.296875 L 2.125 -11 C 2.125 -11.300781 2.007812 -11.554688 1.78125 -11.765625 C 1.550781 -11.972656 1.269531 -12.078125 0.9375 -12.078125 L 0.703125 -12.078125 L 0.703125 -12.296875 L 6.515625 -12.296875 L 6.515625 -12.078125 L 6.265625 -12.078125 C 5.953125 -12.078125 5.675781 -11.972656 5.4375 -11.765625 C 5.207031 -11.566406 5.085938 -11.316406 5.078125 -11.015625 L 5.078125 -1.296875 C 5.085938 -0.972656 5.207031 -0.707031 5.4375 -0.5 C 5.675781 -0.300781 5.953125 -0.203125 6.265625 -0.203125 L 6.515625 -0.203125 L 6.515625 0 L 0.703125 0 Z M 0.703125 -0.203125 "/></g></g></g><g fill="#000000" fill-opacity="1"><g transform="translate(190.820329, 290.744487)"><g><path d="M 13.640625 -0.203125 L 13.796875 -0.203125 L 13.796875 0 L 7.78125 0 L 7.78125 -0.203125 L 7.9375 -0.203125 C 8.21875 -0.203125 8.414062 -0.285156 8.53125 -0.453125 C 8.65625 -0.617188 8.71875 -0.769531 8.71875 -0.90625 C 8.71875 -1.039062 8.691406 -1.179688 8.640625 -1.328125 L 7.84375 -3.21875 L 3.5 -3.21875 L 2.671875 -1.3125 C 2.617188 -1.175781 2.59375 -1.035156 2.59375 -0.890625 C 2.59375 -0.742188 2.65625 -0.59375 2.78125 -0.4375 C 2.914062 -0.28125 3.117188 -0.203125 3.390625 -0.203125 L 3.5625 -0.203125 L 3.5625 0 L -0.53125 0 L -0.53125 -0.203125 L -0.375 -0.203125 C -0.0820312 -0.203125 0.203125 -0.289062 0.484375 -0.46875 C 0.773438 -0.644531 1.007812 -0.910156 1.1875 -1.265625 L 5.421875 -10.359375 C 6.023438 -11.710938 6.335938 -12.546875 6.359375 -12.859375 L 6.546875 -12.859375 L 12.046875 -1.359375 C 12.222656 -0.960938 12.457031 -0.671875 12.75 -0.484375 C 13.039062 -0.296875 13.335938 -0.203125 13.640625 -0.203125 Z M 3.84375 -4.015625 L 7.5 -4.015625 L 5.6875 -8.296875 Z M 3.84375 -4.015625 "/></g></g></g><g fill="#000000" fill-opacity="1"><g transform="translate(204.007783, 290.744487)"><g/></g></g><g fill="#000000" fill-opacity="1"><g transform="translate(209.127136, 290.744487)"><g><path d="M 15.109375 -0.203125 L 15.296875 -0.203125 L 15.296875 0 L 8.765625 0 L 8.765625 -0.203125 L 8.953125 -0.203125 C 9.242188 -0.203125 9.460938 -0.296875 9.609375 -0.484375 C 9.753906 -0.671875 9.828125 -0.84375 9.828125 -1 C 9.828125 -1.164062 9.789062 -1.332031 9.71875 -1.5 L 8.71875 -4.015625 L 3.921875 -4.015625 L 2.859375 -1.5 C 2.796875 -1.320312 2.765625 -1.15625 2.765625 -1 C 2.765625 -0.84375 2.835938 -0.671875 2.984375 -0.484375 C 3.140625 -0.296875 3.363281 -0.203125 3.65625 -0.203125 L 3.828125 -0.203125 L 3.828125 0 L -0.5625 0 L -0.5625 -0.203125 L -0.375 -0.203125 C -0.0625 -0.203125 0.25 -0.296875 0.5625 -0.484375 C 0.882812 -0.679688 1.144531 -0.972656 1.34375 -1.359375 L 6.078125 -12.0625 C 6.722656 -13.414062 7.066406 -14.3125 7.109375 -14.75 L 7.28125 -14.75 L 13.375 -1.390625 C 13.570312 -0.992188 13.828125 -0.695312 14.140625 -0.5 C 14.460938 -0.300781 14.785156 -0.203125 15.109375 -0.203125 Z M 4.28125 -4.875 L 8.375 -4.875 L 6.390625 -9.921875 Z M 4.28125 -4.875 "/></g></g></g><g fill="#000000" fill-opacity="1"><g transform="translate(223.788972, 290.744487)"><g><path d="M 2.53125 -1.453125 C 1.3125 -2.597656 0.703125 -4.164062 0.703125 -6.15625 C 0.703125 -8.15625 1.3125 -9.722656 2.53125 -10.859375 C 3.75 -11.992188 5.429688 -12.5625 7.578125 -12.5625 C 8.535156 -12.5625 9.476562 -12.472656 10.40625 -12.296875 C 11.332031 -12.128906 12.082031 -11.898438 12.65625 -11.609375 L 12.65625 -8.359375 L 12.5 -8.359375 C 11.894531 -10.609375 10.457031 -11.734375 8.1875 -11.734375 C 6.769531 -11.734375 5.6875 -11.238281 4.9375 -10.25 C 4.195312 -9.257812 3.828125 -7.878906 3.828125 -6.109375 C 3.828125 -4.347656 4.164062 -2.976562 4.84375 -2 C 5.519531 -1.03125 6.476562 -0.546875 7.71875 -0.546875 C 8.40625 -0.546875 9.019531 -0.707031 9.5625 -1.03125 C 10.113281 -1.351562 10.476562 -1.816406 10.65625 -2.421875 L 10.671875 -4.875 C 10.671875 -5.132812 10.59375 -5.332031 10.4375 -5.46875 C 10.28125 -5.613281 10.054688 -5.6875 9.765625 -5.6875 L 9.484375 -5.6875 L 9.484375 -5.859375 L 14.75 -5.859375 L 14.75 -5.6875 L 14.5 -5.6875 C 13.90625 -5.6875 13.609375 -5.414062 13.609375 -4.875 L 13.609375 -2.125 C 13.128906 -1.507812 12.320312 -0.957031 11.1875 -0.46875 C 10.050781 0.0195312 8.804688 0.265625 7.453125 0.265625 C 5.390625 0.253906 3.75 -0.316406 2.53125 -1.453125 Z M 2.53125 -1.453125 "/></g></g></g><g fill="#000000" fill-opacity="1"><g transform="translate(238.737486, 290.744487)"><g><path d="M 14.03125 -12.078125 L 13.75 -12.078125 C 13.488281 -12.078125 13.269531 -12 13.09375 -11.84375 C 12.914062 -11.6875 12.816406 -11.488281 12.796875 -11.25 L 12.796875 -4.46875 C 12.796875 -2.988281 12.34375 -1.828125 11.4375 -0.984375 C 10.539062 -0.148438 9.203125 0.265625 7.421875 0.265625 C 5.640625 0.265625 4.253906 -0.140625 3.265625 -0.953125 C 2.273438 -1.773438 1.78125 -2.929688 1.78125 -4.421875 L 1.78125 -11.21875 C 1.78125 -11.46875 1.6875 -11.671875 1.5 -11.828125 C 1.320312 -11.992188 1.101562 -12.078125 0.84375 -12.078125 L 0.546875 -12.078125 L 0.546875 -12.296875 L 5.9375 -12.296875 L 5.9375 -12.078125 L 5.65625 -12.078125 C 5.394531 -12.078125 5.175781 -11.992188 5 -11.828125 C 4.820312 -11.671875 4.734375 -11.46875 4.734375 -11.21875 L 4.734375 -4.5625 C 4.734375 -3.3125 5.019531 -2.328125 5.59375 -1.609375 C 6.175781 -0.898438 6.992188 -0.546875 8.046875 -0.546875 C 9.097656 -0.546875 9.925781 -0.878906 10.53125 -1.546875 C 11.144531 -2.222656 11.453125 -3.15625 11.453125 -4.34375 L 11.453125 -11.21875 C 11.441406 -11.476562 11.34375 -11.6875 11.15625 -11.84375 C 10.976562 -12 10.765625 -12.078125 10.515625 -12.078125 L 10.25 -12.078125 L 10.25 -12.296875 L 14.03125 -12.296875 Z M 14.03125 -12.078125 "/></g></g></g><g fill="#000000" fill-opacity="1"><g transform="translate(253.153589, 290.744487)"><g><path d="M 13.640625 -0.203125 L 13.796875 -0.203125 L 13.796875 0 L 7.78125 0 L 7.78125 -0.203125 L 7.9375 -0.203125 C 8.21875 -0.203125 8.414062 -0.285156 8.53125 -0.453125 C 8.65625 -0.617188 8.71875 -0.769531 8.71875 -0.90625 C 8.71875 -1.039062 8.691406 -1.179688 8.640625 -1.328125 L 7.84375 -3.21875 L 3.5 -3.21875 L 2.671875 -1.3125 C 2.617188 -1.175781 2.59375 -1.035156 2.59375 -0.890625 C 2.59375 -0.742188 2.65625 -0.59375 2.78125 -0.4375 C 2.914062 -0.28125 3.117188 -0.203125 3.390625 -0.203125 L 3.5625 -0.203125 L 3.5625 0 L -0.53125 0 L -0.53125 -0.203125 L -0.375 -0.203125 C -0.0820312 -0.203125 0.203125 -0.289062 0.484375 -0.46875 C 0.773438 -0.644531 1.007812 -0.910156 1.1875 -1.265625 L 5.421875 -10.359375 C 6.023438 -11.710938 6.335938 -12.546875 6.359375 -12.859375 L 6.546875 -12.859375 L 12.046875 -1.359375 C 12.222656 -0.960938 12.457031 -0.671875 12.75 -0.484375 C 13.039062 -0.296875 13.335938 -0.203125 13.640625 -0.203125 Z M 3.84375 -4.015625 L 7.5 -4.015625 L 5.6875 -8.296875 Z M 3.84375 -4.015625 "/></g></g></g><g fill="#000000" fill-opacity="1"><g transform="translate(266.341043, 290.744487)"><g><path d="M 12.75 -10.65625 C 14 -9.570312 14.625 -8.066406 14.625 -6.140625 C 14.625 -4.210938 14 -2.707031 12.75 -1.625 C 11.507812 -0.539062 9.789062 0 7.59375 0 L 0.671875 0 L 0.671875 -0.203125 L 0.9375 -0.203125 C 1.25 -0.203125 1.515625 -0.3125 1.734375 -0.53125 C 1.953125 -0.75 2.070312 -1.007812 2.09375 -1.3125 L 2.09375 -11.015625 C 2.0625 -11.316406 1.9375 -11.566406 1.71875 -11.765625 C 1.5 -11.972656 1.234375 -12.078125 0.921875 -12.078125 L 0.671875 -12.078125 L 0.671875 -12.296875 L 7.59375 -12.296875 C 9.789062 -12.296875 11.507812 -11.75 12.75 -10.65625 Z M 7.359375 -0.8125 C 8.640625 -0.8125 9.648438 -1.28125 10.390625 -2.21875 C 11.140625 -3.164062 11.515625 -4.472656 11.515625 -6.140625 C 11.515625 -7.804688 11.140625 -9.113281 10.390625 -10.0625 C 9.648438 -11.007812 8.640625 -11.484375 7.359375 -11.484375 L 5.046875 -11.484375 L 5.046875 -0.8125 Z M 7.359375 -0.8125 "/></g></g></g><g fill="#000000" fill-opacity="1"><g transform="translate(281.658156, 290.744487)"><g><path d="M 0.71875 -6.140625 C 0.71875 -8.109375 1.375 -9.671875 2.6875 -10.828125 C 4.007812 -11.984375 5.765625 -12.5625 7.953125 -12.5625 C 10.148438 -12.5625 11.910156 -11.984375 13.234375 -10.828125 C 14.554688 -9.671875 15.21875 -8.109375 15.21875 -6.140625 C 15.21875 -4.179688 14.554688 -2.625 13.234375 -1.46875 C 11.910156 -0.3125 10.15625 0.265625 7.96875 0.265625 C 5.78125 0.265625 4.023438 -0.3125 2.703125 -1.46875 C 1.378906 -2.625 0.71875 -4.179688 0.71875 -6.140625 Z M 3.84375 -6.140625 C 3.84375 -4.421875 4.210938 -3.054688 4.953125 -2.046875 C 5.703125 -1.046875 6.703125 -0.546875 7.953125 -0.546875 C 9.203125 -0.546875 10.195312 -1.046875 10.9375 -2.046875 C 11.6875 -3.054688 12.0625 -4.421875 12.0625 -6.140625 C 12.0625 -7.859375 11.6875 -9.21875 10.9375 -10.21875 C 10.195312 -11.226562 9.203125 -11.734375 7.953125 -11.734375 C 6.703125 -11.734375 5.703125 -11.226562 4.953125 -10.21875 C 4.210938 -9.21875 3.84375 -7.859375 3.84375 -6.140625 Z M 3.84375 -6.140625 "/></g></g></g><g fill="#000000" fill-opacity="1"><g transform="translate(118.935999, 309.623954)"><g><path d="M 8.71875 0 L 7.453125 0 L 2.34375 -7.75 L 2.34375 0 L 1.078125 0 L 1.078125 -9.734375 L 2.34375 -9.734375 L 7.453125 -2.015625 L 7.453125 -9.734375 L 8.71875 -9.734375 Z M 8.71875 0 "/></g></g></g><g fill="#000000" fill-opacity="1"><g transform="translate(128.744325, 309.623954)"><g><path d="M 0.59375 -3.84375 C 0.59375 -4.625 0.75 -5.3125 1.0625 -5.90625 C 1.382812 -6.5 1.820312 -6.957031 2.375 -7.28125 C 2.925781 -7.601562 3.546875 -7.765625 4.234375 -7.765625 C 4.898438 -7.765625 5.476562 -7.617188 5.96875 -7.328125 C 6.46875 -7.046875 6.835938 -6.6875 7.078125 -6.25 L 7.078125 -7.640625 L 8.359375 -7.640625 L 8.359375 0 L 7.078125 0 L 7.078125 -1.421875 C 6.828125 -0.972656 6.453125 -0.601562 5.953125 -0.3125 C 5.453125 -0.0195312 4.875 0.125 4.21875 0.125 C 3.53125 0.125 2.910156 -0.0390625 2.359375 -0.375 C 1.816406 -0.707031 1.382812 -1.175781 1.0625 -1.78125 C 0.75 -2.382812 0.59375 -3.070312 0.59375 -3.84375 Z M 7.078125 -3.84375 C 7.078125 -4.414062 6.957031 -4.914062 6.71875 -5.34375 C 6.488281 -5.769531 6.175781 -6.097656 5.78125 -6.328125 C 5.382812 -6.554688 4.953125 -6.671875 4.484375 -6.671875 C 4.003906 -6.671875 3.566406 -6.554688 3.171875 -6.328125 C 2.785156 -6.109375 2.472656 -5.785156 2.234375 -5.359375 C 2.003906 -4.929688 1.890625 -4.425781 1.890625 -3.84375 C 1.890625 -3.257812 2.003906 -2.75 2.234375 -2.3125 C 2.472656 -1.882812 2.785156 -1.554688 3.171875 -1.328125 C 3.566406 -1.097656 4.003906 -0.984375 4.484375 -0.984375 C 4.953125 -0.984375 5.382812 -1.097656 5.78125 -1.328125 C 6.175781 -1.554688 6.488281 -1.882812 6.71875 -2.3125 C 6.957031 -2.75 7.078125 -3.257812 7.078125 -3.84375 Z M 7.078125 -3.84375 "/></g></g></g><g fill="#000000" fill-opacity="1"><g transform="translate(138.175948, 309.623954)"><g><path d="M 2.625 -6.59375 L 2.625 -2.09375 C 2.625 -1.71875 2.703125 -1.453125 2.859375 -1.296875 C 3.015625 -1.148438 3.289062 -1.078125 3.6875 -1.078125 L 4.625 -1.078125 L 4.625 0 L 3.46875 0 C 2.757812 0 2.226562 -0.160156 1.875 -0.484375 C 1.53125 -0.816406 1.359375 -1.351562 1.359375 -2.09375 L 1.359375 -6.59375 L 0.359375 -6.59375 L 0.359375 -7.640625 L 1.359375 -7.640625 L 1.359375 -9.578125 L 2.625 -9.578125 L 2.625 -7.640625 L 4.625 -7.640625 L 4.625 -6.59375 Z M 2.625 -6.59375 "/></g></g></g><g fill="#000000" fill-opacity="1"><g transform="translate(143.254511, 309.623954)"><g><path d="M 7.859375 -7.640625 L 7.859375 0 L 6.578125 0 L 6.578125 -1.125 C 6.335938 -0.738281 6 -0.4375 5.5625 -0.21875 C 5.132812 0 4.660156 0.109375 4.140625 0.109375 C 3.546875 0.109375 3.007812 -0.0078125 2.53125 -0.25 C 2.0625 -0.5 1.6875 -0.867188 1.40625 -1.359375 C 1.132812 -1.859375 1 -2.460938 1 -3.171875 L 1 -7.640625 L 2.265625 -7.640625 L 2.265625 -3.328125 C 2.265625 -2.578125 2.453125 -2 2.828125 -1.59375 C 3.210938 -1.1875 3.734375 -0.984375 4.390625 -0.984375 C 5.066406 -0.984375 5.597656 -1.191406 5.984375 -1.609375 C 6.378906 -2.035156 6.578125 -2.648438 6.578125 -3.453125 L 6.578125 -7.640625 Z M 7.859375 -7.640625 "/></g></g></g><g fill="#000000" fill-opacity="1"><g transform="translate(152.183855, 309.623954)"><g><path d="M 2.34375 -6.40625 C 2.5625 -6.84375 2.878906 -7.179688 3.296875 -7.421875 C 3.710938 -7.660156 4.21875 -7.78125 4.8125 -7.78125 L 4.8125 -6.46875 L 4.484375 -6.46875 C 3.054688 -6.46875 2.34375 -5.695312 2.34375 -4.15625 L 2.34375 0 L 1.078125 0 L 1.078125 -7.640625 L 2.34375 -7.640625 Z M 2.34375 -6.40625 "/></g></g></g><g fill="#000000" fill-opacity="1"><g transform="translate(157.387981, 309.623954)"><g><path d="M 8.046875 -4.109375 C 8.046875 -3.867188 8.035156 -3.613281 8.015625 -3.34375 L 1.890625 -3.34375 C 1.941406 -2.59375 2.203125 -2.003906 2.671875 -1.578125 C 3.140625 -1.160156 3.707031 -0.953125 4.375 -0.953125 C 4.925781 -0.953125 5.382812 -1.078125 5.75 -1.328125 C 6.125 -1.585938 6.382812 -1.929688 6.53125 -2.359375 L 7.890625 -2.359375 C 7.691406 -1.617188 7.285156 -1.019531 6.671875 -0.5625 C 6.054688 -0.101562 5.289062 0.125 4.375 0.125 C 3.65625 0.125 3.007812 -0.0351562 2.4375 -0.359375 C 1.863281 -0.679688 1.410156 -1.144531 1.078125 -1.75 C 0.753906 -2.351562 0.59375 -3.050781 0.59375 -3.84375 C 0.59375 -4.625 0.75 -5.3125 1.0625 -5.90625 C 1.382812 -6.507812 1.832031 -6.96875 2.40625 -7.28125 C 2.976562 -7.601562 3.632812 -7.765625 4.375 -7.765625 C 5.101562 -7.765625 5.742188 -7.609375 6.296875 -7.296875 C 6.859375 -6.984375 7.289062 -6.546875 7.59375 -5.984375 C 7.894531 -5.429688 8.046875 -4.804688 8.046875 -4.109375 Z M 6.734375 -4.375 C 6.734375 -4.863281 6.625 -5.28125 6.40625 -5.625 C 6.195312 -5.976562 5.910156 -6.242188 5.546875 -6.421875 C 5.179688 -6.609375 4.773438 -6.703125 4.328125 -6.703125 C 3.679688 -6.703125 3.132812 -6.492188 2.6875 -6.078125 C 2.238281 -5.671875 1.976562 -5.101562 1.90625 -4.375 Z M 6.734375 -4.375 "/></g></g></g><g fill="#000000" fill-opacity="1"><g transform="translate(166.038281, 309.623954)"><g/></g></g><g fill="#000000" fill-opacity="1"><g transform="translate(169.763498, 309.623954)"><g><path d="M 5.9375 -5.015625 C 6.289062 -4.953125 6.613281 -4.804688 6.90625 -4.578125 C 7.207031 -4.347656 7.441406 -4.054688 7.609375 -3.703125 C 7.785156 -3.359375 7.875 -2.992188 7.875 -2.609375 C 7.875 -2.117188 7.742188 -1.675781 7.484375 -1.28125 C 7.234375 -0.882812 6.867188 -0.570312 6.390625 -0.34375 C 5.910156 -0.113281 5.347656 0 4.703125 0 L 1.078125 0 L 1.078125 -9.71875 L 4.5625 -9.71875 C 5.21875 -9.71875 5.78125 -9.609375 6.25 -9.390625 C 6.71875 -9.171875 7.066406 -8.875 7.296875 -8.5 C 7.523438 -8.132812 7.640625 -7.71875 7.640625 -7.25 C 7.640625 -6.675781 7.484375 -6.203125 7.171875 -5.828125 C 6.867188 -5.453125 6.457031 -5.179688 5.9375 -5.015625 Z M 2.34375 -5.53125 L 4.484375 -5.53125 C 5.078125 -5.53125 5.535156 -5.664062 5.859375 -5.9375 C 6.179688 -6.21875 6.34375 -6.609375 6.34375 -7.109375 C 6.34375 -7.597656 6.179688 -7.976562 5.859375 -8.25 C 5.535156 -8.53125 5.066406 -8.671875 4.453125 -8.671875 L 2.34375 -8.671875 Z M 4.59375 -1.046875 C 5.226562 -1.046875 5.71875 -1.191406 6.0625 -1.484375 C 6.414062 -1.785156 6.59375 -2.203125 6.59375 -2.734375 C 6.59375 -3.273438 6.40625 -3.703125 6.03125 -4.015625 C 5.664062 -4.328125 5.171875 -4.484375 4.546875 -4.484375 L 2.34375 -4.484375 L 2.34375 -1.046875 Z M 4.59375 -1.046875 "/></g></g></g><g fill="#000000" fill-opacity="1"><g transform="translate(178.316139, 309.623954)"><g><path d="M 8.046875 -4.109375 C 8.046875 -3.867188 8.035156 -3.613281 8.015625 -3.34375 L 1.890625 -3.34375 C 1.941406 -2.59375 2.203125 -2.003906 2.671875 -1.578125 C 3.140625 -1.160156 3.707031 -0.953125 4.375 -0.953125 C 4.925781 -0.953125 5.382812 -1.078125 5.75 -1.328125 C 6.125 -1.585938 6.382812 -1.929688 6.53125 -2.359375 L 7.890625 -2.359375 C 7.691406 -1.617188 7.285156 -1.019531 6.671875 -0.5625 C 6.054688 -0.101562 5.289062 0.125 4.375 0.125 C 3.65625 0.125 3.007812 -0.0351562 2.4375 -0.359375 C 1.863281 -0.679688 1.410156 -1.144531 1.078125 -1.75 C 0.753906 -2.351562 0.59375 -3.050781 0.59375 -3.84375 C 0.59375 -4.625 0.75 -5.3125 1.0625 -5.90625 C 1.382812 -6.507812 1.832031 -6.96875 2.40625 -7.28125 C 2.976562 -7.601562 3.632812 -7.765625 4.375 -7.765625 C 5.101562 -7.765625 5.742188 -7.609375 6.296875 -7.296875 C 6.859375 -6.984375 7.289062 -6.546875 7.59375 -5.984375 C 7.894531 -5.429688 8.046875 -4.804688 8.046875 -4.109375 Z M 6.734375 -4.375 C 6.734375 -4.863281 6.625 -5.28125 6.40625 -5.625 C 6.195312 -5.976562 5.910156 -6.242188 5.546875 -6.421875 C 5.179688 -6.609375 4.773438 -6.703125 4.328125 -6.703125 C 3.679688 -6.703125 3.132812 -6.492188 2.6875 -6.078125 C 2.238281 -5.671875 1.976562 -5.101562 1.90625 -4.375 Z M 6.734375 -4.375 "/></g></g></g><g fill="#000000" fill-opacity="1"><g transform="translate(186.966439, 309.623954)"><g><path d="M 0.59375 -3.84375 C 0.59375 -4.625 0.75 -5.3125 1.0625 -5.90625 C 1.382812 -6.5 1.820312 -6.957031 2.375 -7.28125 C 2.925781 -7.601562 3.546875 -7.765625 4.234375 -7.765625 C 4.898438 -7.765625 5.476562 -7.617188 5.96875 -7.328125 C 6.46875 -7.046875 6.835938 -6.6875 7.078125 -6.25 L 7.078125 -7.640625 L 8.359375 -7.640625 L 8.359375 0 L 7.078125 0 L 7.078125 -1.421875 C 6.828125 -0.972656 6.453125 -0.601562 5.953125 -0.3125 C 5.453125 -0.0195312 4.875 0.125 4.21875 0.125 C 3.53125 0.125 2.910156 -0.0390625 2.359375 -0.375 C 1.816406 -0.707031 1.382812 -1.175781 1.0625 -1.78125 C 0.75 -2.382812 0.59375 -3.070312 0.59375 -3.84375 Z M 7.078125 -3.84375 C 7.078125 -4.414062 6.957031 -4.914062 6.71875 -5.34375 C 6.488281 -5.769531 6.175781 -6.097656 5.78125 -6.328125 C 5.382812 -6.554688 4.953125 -6.671875 4.484375 -6.671875 C 4.003906 -6.671875 3.566406 -6.554688 3.171875 -6.328125 C 2.785156 -6.109375 2.472656 -5.785156 2.234375 -5.359375 C 2.003906 -4.929688 1.890625 -4.425781 1.890625 -3.84375 C 1.890625 -3.257812 2.003906 -2.75 2.234375 -2.3125 C 2.472656 -1.882812 2.785156 -1.554688 3.171875 -1.328125 C 3.566406 -1.097656 4.003906 -0.984375 4.484375 -0.984375 C 4.953125 -0.984375 5.382812 -1.097656 5.78125 -1.328125 C 6.175781 -1.554688 6.488281 -1.882812 6.71875 -2.3125 C 6.957031 -2.75 7.078125 -3.257812 7.078125 -3.84375 Z M 7.078125 -3.84375 "/></g></g></g><g fill="#000000" fill-opacity="1"><g transform="translate(196.398063, 309.623954)"><g><path d="M 7.859375 -7.640625 L 7.859375 0 L 6.578125 0 L 6.578125 -1.125 C 6.335938 -0.738281 6 -0.4375 5.5625 -0.21875 C 5.132812 0 4.660156 0.109375 4.140625 0.109375 C 3.546875 0.109375 3.007812 -0.0078125 2.53125 -0.25 C 2.0625 -0.5 1.6875 -0.867188 1.40625 -1.359375 C 1.132812 -1.859375 1 -2.460938 1 -3.171875 L 1 -7.640625 L 2.265625 -7.640625 L 2.265625 -3.328125 C 2.265625 -2.578125 2.453125 -2 2.828125 -1.59375 C 3.210938 -1.1875 3.734375 -0.984375 4.390625 -0.984375 C 5.066406 -0.984375 5.597656 -1.191406 5.984375 -1.609375 C 6.378906 -2.035156 6.578125 -2.648438 6.578125 -3.453125 L 6.578125 -7.640625 Z M 7.859375 -7.640625 "/></g></g></g><g fill="#000000" fill-opacity="1"><g transform="translate(205.327406, 309.623954)"><g><path d="M 2.625 -6.59375 L 2.625 -2.09375 C 2.625 -1.71875 2.703125 -1.453125 2.859375 -1.296875 C 3.015625 -1.148438 3.289062 -1.078125 3.6875 -1.078125 L 4.625 -1.078125 L 4.625 0 L 3.46875 0 C 2.757812 0 2.226562 -0.160156 1.875 -0.484375 C 1.53125 -0.816406 1.359375 -1.351562 1.359375 -2.09375 L 1.359375 -6.59375 L 0.359375 -6.59375 L 0.359375 -7.640625 L 1.359375 -7.640625 L 1.359375 -9.578125 L 2.625 -9.578125 L 2.625 -7.640625 L 4.625 -7.640625 L 4.625 -6.59375 Z M 2.625 -6.59375 "/></g></g></g><g fill="#000000" fill-opacity="1"><g transform="translate(210.405969, 309.623954)"><g><path d="M 7.65625 -7.640625 L 3.0625 3.59375 L 1.75 3.59375 L 3.25 -0.078125 L 0.171875 -7.640625 L 1.578125 -7.640625 L 3.984375 -1.453125 L 6.34375 -7.640625 Z M 7.65625 -7.640625 "/></g></g></g><g fill="#000000" fill-opacity="1"><g transform="translate(218.260995, 309.623954)"><g/></g></g><g fill="#000000" fill-opacity="1"><g transform="translate(221.986213, 309.623954)"><g><path d="M 0.59375 -4.875 C 0.59375 -5.820312 0.804688 -6.671875 1.234375 -7.421875 C 1.671875 -8.179688 2.257812 -8.773438 3 -9.203125 C 3.738281 -9.628906 4.554688 -9.84375 5.453125 -9.84375 C 6.515625 -9.84375 7.441406 -9.585938 8.234375 -9.078125 C 9.023438 -8.566406 9.601562 -7.84375 9.96875 -6.90625 L 8.4375 -6.90625 C 8.164062 -7.488281 7.773438 -7.9375 7.265625 -8.25 C 6.765625 -8.570312 6.160156 -8.734375 5.453125 -8.734375 C 4.773438 -8.734375 4.164062 -8.570312 3.625 -8.25 C 3.082031 -7.9375 2.65625 -7.488281 2.34375 -6.90625 C 2.039062 -6.332031 1.890625 -5.65625 1.890625 -4.875 C 1.890625 -4.101562 2.039062 -3.425781 2.34375 -2.84375 C 2.65625 -2.257812 3.082031 -1.804688 3.625 -1.484375 C 4.164062 -1.171875 4.773438 -1.015625 5.453125 -1.015625 C 6.160156 -1.015625 6.765625 -1.171875 7.265625 -1.484375 C 7.773438 -1.796875 8.164062 -2.242188 8.4375 -2.828125 L 9.96875 -2.828125 C 9.601562 -1.898438 9.023438 -1.179688 8.234375 -0.671875 C 7.441406 -0.171875 6.515625 0.078125 5.453125 0.078125 C 4.554688 0.078125 3.738281 -0.128906 3 -0.546875 C 2.257812 -0.972656 1.671875 -1.5625 1.234375 -2.3125 C 0.804688 -3.070312 0.59375 -3.925781 0.59375 -4.875 Z M 0.59375 -4.875 "/></g></g></g><g fill="#000000" fill-opacity="1"><g transform="translate(232.75723, 309.623954)"><g><path d="M 0.59375 -3.84375 C 0.59375 -4.625 0.75 -5.3125 1.0625 -5.90625 C 1.382812 -6.5 1.820312 -6.957031 2.375 -7.28125 C 2.925781 -7.601562 3.546875 -7.765625 4.234375 -7.765625 C 4.898438 -7.765625 5.476562 -7.617188 5.96875 -7.328125 C 6.46875 -7.046875 6.835938 -6.6875 7.078125 -6.25 L 7.078125 -7.640625 L 8.359375 -7.640625 L 8.359375 0 L 7.078125 0 L 7.078125 -1.421875 C 6.828125 -0.972656 6.453125 -0.601562 5.953125 -0.3125 C 5.453125 -0.0195312 4.875 0.125 4.21875 0.125 C 3.53125 0.125 2.910156 -0.0390625 2.359375 -0.375 C 1.816406 -0.707031 1.382812 -1.175781 1.0625 -1.78125 C 0.75 -2.382812 0.59375 -3.070312 0.59375 -3.84375 Z M 7.078125 -3.84375 C 7.078125 -4.414062 6.957031 -4.914062 6.71875 -5.34375 C 6.488281 -5.769531 6.175781 -6.097656 5.78125 -6.328125 C 5.382812 -6.554688 4.953125 -6.671875 4.484375 -6.671875 C 4.003906 -6.671875 3.566406 -6.554688 3.171875 -6.328125 C 2.785156 -6.109375 2.472656 -5.785156 2.234375 -5.359375 C 2.003906 -4.929688 1.890625 -4.425781 1.890625 -3.84375 C 1.890625 -3.257812 2.003906 -2.75 2.234375 -2.3125 C 2.472656 -1.882812 2.785156 -1.554688 3.171875 -1.328125 C 3.566406 -1.097656 4.003906 -0.984375 4.484375 -0.984375 C 4.953125 -0.984375 5.382812 -1.097656 5.78125 -1.328125 C 6.175781 -1.554688 6.488281 -1.882812 6.71875 -2.3125 C 6.957031 -2.75 7.078125 -3.257812 7.078125 -3.84375 Z M 7.078125 -3.84375 "/></g></g></g><g fill="#000000" fill-opacity="1"><g transform="translate(242.188854, 309.623954)"><g><path d="M 2.34375 -6.40625 C 2.5625 -6.84375 2.878906 -7.179688 3.296875 -7.421875 C 3.710938 -7.660156 4.21875 -7.78125 4.8125 -7.78125 L 4.8125 -6.46875 L 4.484375 -6.46875 C 3.054688 -6.46875 2.34375 -5.695312 2.34375 -4.15625 L 2.34375 0 L 1.078125 0 L 1.078125 -7.640625 L 2.34375 -7.640625 Z M 2.34375 -6.40625 "/></g></g></g><g fill="#000000" fill-opacity="1"><g transform="translate(247.39298, 309.623954)"><g><path d="M 8.046875 -4.109375 C 8.046875 -3.867188 8.035156 -3.613281 8.015625 -3.34375 L 1.890625 -3.34375 C 1.941406 -2.59375 2.203125 -2.003906 2.671875 -1.578125 C 3.140625 -1.160156 3.707031 -0.953125 4.375 -0.953125 C 4.925781 -0.953125 5.382812 -1.078125 5.75 -1.328125 C 6.125 -1.585938 6.382812 -1.929688 6.53125 -2.359375 L 7.890625 -2.359375 C 7.691406 -1.617188 7.285156 -1.019531 6.671875 -0.5625 C 6.054688 -0.101562 5.289062 0.125 4.375 0.125 C 3.65625 0.125 3.007812 -0.0351562 2.4375 -0.359375 C 1.863281 -0.679688 1.410156 -1.144531 1.078125 -1.75 C 0.753906 -2.351562 0.59375 -3.050781 0.59375 -3.84375 C 0.59375 -4.625 0.75 -5.3125 1.0625 -5.90625 C 1.382812 -6.507812 1.832031 -6.96875 2.40625 -7.28125 C 2.976562 -7.601562 3.632812 -7.765625 4.375 -7.765625 C 5.101562 -7.765625 5.742188 -7.609375 6.296875 -7.296875 C 6.859375 -6.984375 7.289062 -6.546875 7.59375 -5.984375 C 7.894531 -5.429688 8.046875 -4.804688 8.046875 -4.109375 Z M 6.734375 -4.375 C 6.734375 -4.863281 6.625 -5.28125 6.40625 -5.625 C 6.195312 -5.976562 5.910156 -6.242188 5.546875 -6.421875 C 5.179688 -6.609375 4.773438 -6.703125 4.328125 -6.703125 C 3.679688 -6.703125 3.132812 -6.492188 2.6875 -6.078125 C 2.238281 -5.671875 1.976562 -5.101562 1.90625 -4.375 Z M 6.734375 -4.375 "/></g></g></g></svg>