<svg xmlns="http://www.w3.org/2000/svg" xmlns:xlink="http://www.w3.org/1999/xlink" width="500" zoomAndPan="magnify" viewBox="0 0 375 374.999991" height="500" preserveAspectRatio="xMidYMid meet" version="1.0"><defs><g/><clipPath id="7c0414a0d2"><path d="M 94.710938 91.542969 L 276 91.542969 L 276 205 L 94.710938 205 Z M 94.710938 91.542969 " clip-rule="nonzero"/></clipPath><clipPath id="74e1f9f738"><path d="M 96 142 L 279.960938 142 L 279.960938 210.042969 L 96 210.042969 Z M 96 142 " clip-rule="nonzero"/></clipPath></defs><g clip-path="url(#7c0414a0d2)"><path fill="#ee4036" d="M 171.328125 141.128906 C 164.902344 143.109375 158.355469 145.75 151.808594 149.230469 L 147.902344 140.648438 L 140.9375 155.773438 C 125.320312 166.28125 109.707031 181.886719 94.929688 204.160156 L 147.484375 91.542969 L 148.144531 91.542969 Z M 249.527344 137.886719 C 237.152344 132.0625 228.984375 129.839844 228.984375 123.417969 C 228.984375 117.835938 234.992188 113.214844 243.101562 113.214844 C 249.105469 113.214844 255.351562 115.792969 258.535156 122.21875 L 274.511719 111.050781 C 269.707031 98.027344 257.515625 91.960938 242.800781 91.960938 C 222.980469 91.960938 207.183594 104.269531 207.183594 122.9375 C 207.183594 128.582031 208.625 133.082031 210.96875 136.804688 C 240.097656 138.90625 264.121094 151.632812 275.773438 159.015625 C 271.390625 150.070312 262.078125 143.828125 249.527344 137.886719 Z M 249.527344 137.886719 " fill-opacity="1" fill-rule="nonzero"/></g><g clip-path="url(#74e1f9f738)"><path fill="#726ab4" d="M 279.738281 177.867188 C 279.738281 181.40625 279.195312 184.710938 278.234375 187.710938 L 278.234375 187.832031 C 273.730469 201.636719 259.496094 209.980469 240.636719 209.980469 C 222.980469 209.980469 209.886719 202.597656 202.679688 189.273438 L 220.035156 177.085938 C 224.78125 184.710938 231.6875 188.191406 241 188.191406 C 251.148438 188.191406 257.996094 184.050781 257.996094 178.285156 C 257.996094 177.144531 257.695312 176.066406 257.214844 174.984375 C 226.765625 159.195312 201.058594 158.355469 180.457031 164.058594 L 201.898438 210.042969 L 177.933594 210.042969 L 170.96875 194.675781 L 162.378906 175.824219 L 160.636719 172.042969 C 134.210938 186.390625 120.214844 209.441406 119.917969 209.980469 L 96.070312 209.980469 C 110.90625 187.652344 126.460938 172.101562 142.078125 161.597656 C 145.683594 159.136719 149.285156 156.976562 152.890625 155.054688 C 159.4375 151.574219 165.984375 148.871094 172.410156 146.949219 C 186.222656 142.75 199.617188 141.667969 212.050781 142.566406 C 241.179688 144.667969 265.203125 157.394531 276.855469 164.78125 C 278.777344 168.679688 279.738281 172.945312 279.738281 177.867188 Z M 279.738281 177.867188 " fill-opacity="1" fill-rule="nonzero"/></g><g fill="#ee4036" fill-opacity="1"><g transform="translate(83.963344, 256.057718)"><g><path d="M 1.890625 0.28125 C 1.660156 0.207031 1.5 0.0625 1.40625 -0.15625 C 1.3125 -0.375 1.3125 -0.601562 1.40625 -0.84375 L 10.1875 -24.53125 C 10.351562 -24.90625 10.632812 -25.09375 11.03125 -25.09375 C 11.425781 -25.09375 11.703125 -24.90625 11.859375 -24.53125 L 20.6875 -0.84375 C 20.78125 -0.601562 20.773438 -0.375 20.671875 -0.15625 C 20.566406 0.0625 20.394531 0.207031 20.15625 0.28125 C 19.945312 0.375 19.734375 0.367188 19.515625 0.265625 C 19.296875 0.160156 19.140625 -0.0078125 19.046875 -0.25 L 11.03125 -21.703125 L 6.15625 -8.71875 L 12.78125 -8.71875 C 13.007812 -8.71875 13.203125 -8.628906 13.359375 -8.453125 C 13.523438 -8.273438 13.609375 -8.0625 13.609375 -7.8125 C 13.609375 -7.570312 13.523438 -7.367188 13.359375 -7.203125 C 13.203125 -7.046875 13.007812 -6.96875 12.78125 -6.96875 L 5.5 -6.96875 L 3.015625 -0.25 C 2.921875 -0.0078125 2.765625 0.160156 2.546875 0.265625 C 2.335938 0.367188 2.117188 0.375 1.890625 0.28125 Z M 1.890625 0.28125 "/></g></g></g><g fill="#ee4036" fill-opacity="1"><g transform="translate(106.00836, 256.057718)"><g><path d="M 10.8125 0.453125 C 10.414062 0.453125 10.148438 0.265625 10.015625 -0.109375 L 1.40625 -23.875 C 1.3125 -24.101562 1.3125 -24.320312 1.40625 -24.53125 C 1.5 -24.738281 1.660156 -24.890625 1.890625 -24.984375 C 2.117188 -25.078125 2.335938 -25.070312 2.546875 -24.96875 C 2.765625 -24.863281 2.921875 -24.695312 3.015625 -24.46875 L 10.8125 -2.96875 L 18.65625 -24.46875 C 18.75 -24.695312 18.898438 -24.863281 19.109375 -24.96875 C 19.316406 -25.070312 19.539062 -25.078125 19.78125 -24.984375 C 20.007812 -24.890625 20.175781 -24.738281 20.28125 -24.53125 C 20.382812 -24.320312 20.390625 -24.101562 20.296875 -23.875 L 11.65625 -0.109375 C 11.507812 0.265625 11.226562 0.453125 10.8125 0.453125 Z M 10.8125 0.453125 "/></g></g></g><g fill="#ee4036" fill-opacity="1"><g transform="translate(127.703461, 256.057718)"><g><path d="M 3.5 0 C 3.269531 0 3.066406 -0.0859375 2.890625 -0.265625 C 2.710938 -0.441406 2.625 -0.644531 2.625 -0.875 L 2.625 -23.625 C 2.625 -23.851562 2.710938 -24.054688 2.890625 -24.234375 C 3.066406 -24.410156 3.269531 -24.5 3.5 -24.5 L 15.78125 -24.5 C 16.039062 -24.5 16.25 -24.410156 16.40625 -24.234375 C 16.570312 -24.054688 16.65625 -23.851562 16.65625 -23.625 C 16.65625 -23.394531 16.570312 -23.191406 16.40625 -23.015625 C 16.25 -22.835938 16.039062 -22.75 15.78125 -22.75 L 4.375 -22.75 L 4.375 -13.328125 L 13.859375 -13.328125 C 14.085938 -13.328125 14.289062 -13.242188 14.46875 -13.078125 C 14.644531 -12.921875 14.734375 -12.710938 14.734375 -12.453125 C 14.734375 -12.222656 14.644531 -12.019531 14.46875 -11.84375 C 14.289062 -11.664062 14.085938 -11.578125 13.859375 -11.578125 L 4.375 -11.578125 L 4.375 -1.75 L 15.78125 -1.75 C 16.039062 -1.75 16.25 -1.664062 16.40625 -1.5 C 16.570312 -1.34375 16.65625 -1.132812 16.65625 -0.875 C 16.65625 -0.644531 16.570312 -0.441406 16.40625 -0.265625 C 16.25 -0.0859375 16.039062 0 15.78125 0 Z M 3.5 0 "/></g></g></g><g fill="#ee4036" fill-opacity="1"><g transform="translate(146.354252, 256.057718)"><g><path d="M 3.5 0.484375 C 3.269531 0.484375 3.066406 0.398438 2.890625 0.234375 C 2.710938 0.078125 2.625 -0.113281 2.625 -0.34375 L 2.625 -23.625 C 2.625 -23.851562 2.710938 -24.054688 2.890625 -24.234375 C 3.066406 -24.410156 3.269531 -24.5 3.5 -24.5 L 12.109375 -24.5 C 13.410156 -24.5 14.59375 -24.175781 15.65625 -23.53125 C 16.71875 -22.894531 17.570312 -22.046875 18.21875 -20.984375 C 18.863281 -19.921875 19.1875 -18.75 19.1875 -17.46875 C 19.1875 -16.363281 18.945312 -15.332031 18.46875 -14.375 C 17.988281 -13.425781 17.335938 -12.617188 16.515625 -11.953125 C 15.703125 -11.285156 14.769531 -10.835938 13.71875 -10.609375 L 19.140625 -0.765625 C 19.253906 -0.535156 19.273438 -0.304688 19.203125 -0.078125 C 19.140625 0.140625 19.015625 0.304688 18.828125 0.421875 C 18.597656 0.535156 18.367188 0.554688 18.140625 0.484375 C 17.921875 0.421875 17.753906 0.28125 17.640625 0.0625 L 11.859375 -10.390625 L 6.75 -10.390625 C 6.519531 -10.390625 6.316406 -10.476562 6.140625 -10.65625 C 5.960938 -10.832031 5.875 -11.035156 5.875 -11.265625 C 5.875 -11.523438 5.960938 -11.734375 6.140625 -11.890625 C 6.316406 -12.054688 6.519531 -12.140625 6.75 -12.140625 L 12.109375 -12.140625 C 13.085938 -12.140625 13.976562 -12.378906 14.78125 -12.859375 C 15.59375 -13.335938 16.238281 -13.976562 16.71875 -14.78125 C 17.195312 -15.59375 17.4375 -16.488281 17.4375 -17.46875 C 17.4375 -18.445312 17.195312 -19.332031 16.71875 -20.125 C 16.238281 -20.914062 15.59375 -21.550781 14.78125 -22.03125 C 13.976562 -22.507812 13.085938 -22.75 12.109375 -22.75 L 4.375 -22.75 L 4.375 -0.34375 C 4.375 -0.113281 4.289062 0.078125 4.125 0.234375 C 3.96875 0.398438 3.757812 0.484375 3.5 0.484375 Z M 3.5 0.484375 "/></g></g></g><g fill="#ee4036" fill-opacity="1"><g transform="translate(167.489474, 256.057718)"><g><path d="M 10.4375 0.453125 C 10.195312 0.453125 9.988281 0.367188 9.8125 0.203125 C 9.644531 0.046875 9.5625 -0.148438 9.5625 -0.390625 L 9.5625 -10.5 L 1.328125 -23.65625 C 1.191406 -23.863281 1.148438 -24.082031 1.203125 -24.3125 C 1.265625 -24.550781 1.390625 -24.742188 1.578125 -24.890625 C 1.804688 -25.003906 2.035156 -25.035156 2.265625 -24.984375 C 2.503906 -24.941406 2.679688 -24.816406 2.796875 -24.609375 L 10.4375 -12.421875 L 17.953125 -24.609375 C 18.097656 -24.816406 18.285156 -24.945312 18.515625 -25 C 18.742188 -25.0625 18.96875 -25.023438 19.1875 -24.890625 C 19.363281 -24.742188 19.484375 -24.550781 19.546875 -24.3125 C 19.609375 -24.082031 19.566406 -23.863281 19.421875 -23.65625 L 11.3125 -10.5 L 11.3125 -0.390625 C 11.3125 -0.148438 11.226562 0.046875 11.0625 0.203125 C 10.894531 0.367188 10.6875 0.453125 10.4375 0.453125 Z M 10.4375 0.453125 "/></g></g></g><g fill="#ee4036" fill-opacity="1"><g transform="translate(188.239785, 256.057718)"><g/></g></g><g fill="#ee4036" fill-opacity="1"><g transform="translate(197.687649, 256.057718)"><g><path d="M 3.5 0 C 3.269531 0 3.066406 -0.0859375 2.890625 -0.265625 C 2.710938 -0.441406 2.625 -0.644531 2.625 -0.875 L 2.625 -23.625 C 2.625 -23.851562 2.710938 -24.054688 2.890625 -24.234375 C 3.066406 -24.410156 3.269531 -24.5 3.5 -24.5 L 10.640625 -24.5 C 12.128906 -24.5 13.476562 -24.128906 14.6875 -23.390625 C 15.90625 -22.660156 16.878906 -21.6875 17.609375 -20.46875 C 18.347656 -19.257812 18.71875 -17.910156 18.71875 -16.421875 L 18.71875 -8.125 C 18.71875 -6.625 18.347656 -5.257812 17.609375 -4.03125 C 16.878906 -2.8125 15.90625 -1.832031 14.6875 -1.09375 C 13.476562 -0.363281 12.128906 0 10.640625 0 Z M 4.375 -1.75 L 10.640625 -1.75 C 11.804688 -1.75 12.867188 -2.035156 13.828125 -2.609375 C 14.785156 -3.179688 15.546875 -3.953125 16.109375 -4.921875 C 16.679688 -5.890625 16.96875 -6.957031 16.96875 -8.125 L 16.96875 -16.421875 C 16.96875 -17.585938 16.679688 -18.644531 16.109375 -19.59375 C 15.546875 -20.550781 14.785156 -21.316406 13.828125 -21.890625 C 12.867188 -22.460938 11.804688 -22.75 10.640625 -22.75 L 4.375 -22.75 Z M 4.375 -1.75 "/></g></g></g><g fill="#ee4036" fill-opacity="1"><g transform="translate(218.36798, 256.057718)"><g><path d="M 1.890625 0.28125 C 1.660156 0.207031 1.5 0.0625 1.40625 -0.15625 C 1.3125 -0.375 1.3125 -0.601562 1.40625 -0.84375 L 10.1875 -24.53125 C 10.351562 -24.90625 10.632812 -25.09375 11.03125 -25.09375 C 11.425781 -25.09375 11.703125 -24.90625 11.859375 -24.53125 L 20.6875 -0.84375 C 20.78125 -0.601562 20.773438 -0.375 20.671875 -0.15625 C 20.566406 0.0625 20.394531 0.207031 20.15625 0.28125 C 19.945312 0.375 19.734375 0.367188 19.515625 0.265625 C 19.296875 0.160156 19.140625 -0.0078125 19.046875 -0.25 L 11.03125 -21.703125 L 6.15625 -8.71875 L 12.78125 -8.71875 C 13.007812 -8.71875 13.203125 -8.628906 13.359375 -8.453125 C 13.523438 -8.273438 13.609375 -8.0625 13.609375 -7.8125 C 13.609375 -7.570312 13.523438 -7.367188 13.359375 -7.203125 C 13.203125 -7.046875 13.007812 -6.96875 12.78125 -6.96875 L 5.5 -6.96875 L 3.015625 -0.25 C 2.921875 -0.0078125 2.765625 0.160156 2.546875 0.265625 C 2.335938 0.367188 2.117188 0.375 1.890625 0.28125 Z M 1.890625 0.28125 "/></g></g></g><g fill="#ee4036" fill-opacity="1"><g transform="translate(240.412995, 256.057718)"><g><path d="M 10.8125 0.453125 C 10.414062 0.453125 10.148438 0.265625 10.015625 -0.109375 L 1.40625 -23.875 C 1.3125 -24.101562 1.3125 -24.320312 1.40625 -24.53125 C 1.5 -24.738281 1.660156 -24.890625 1.890625 -24.984375 C 2.117188 -25.078125 2.335938 -25.070312 2.546875 -24.96875 C 2.765625 -24.863281 2.921875 -24.695312 3.015625 -24.46875 L 10.8125 -2.96875 L 18.65625 -24.46875 C 18.75 -24.695312 18.898438 -24.863281 19.109375 -24.96875 C 19.316406 -25.070312 19.539062 -25.078125 19.78125 -24.984375 C 20.007812 -24.890625 20.175781 -24.738281 20.28125 -24.53125 C 20.382812 -24.320312 20.390625 -24.101562 20.296875 -23.875 L 11.65625 -0.109375 C 11.507812 0.265625 11.226562 0.453125 10.8125 0.453125 Z M 10.8125 0.453125 "/></g></g></g><g fill="#ee4036" fill-opacity="1"><g transform="translate(262.108097, 256.057718)"><g><path d="M 4.171875 0.453125 C 3.929688 0.453125 3.722656 0.367188 3.546875 0.203125 C 3.378906 0.046875 3.296875 -0.148438 3.296875 -0.390625 L 3.296875 -24.109375 C 3.296875 -24.367188 3.378906 -24.585938 3.546875 -24.765625 C 3.722656 -24.941406 3.929688 -25.03125 4.171875 -25.03125 C 4.421875 -25.03125 4.628906 -24.941406 4.796875 -24.765625 C 4.960938 -24.585938 5.046875 -24.367188 5.046875 -24.109375 L 5.046875 -0.390625 C 5.046875 -0.148438 4.960938 0.046875 4.796875 0.203125 C 4.628906 0.367188 4.421875 0.453125 4.171875 0.453125 Z M 4.171875 0.453125 "/></g></g></g><g fill="#ee4036" fill-opacity="1"><g transform="translate(270.47121, 256.057718)"><g><path d="M 10.46875 0.453125 C 8.78125 0.453125 7.191406 0.160156 5.703125 -0.421875 C 4.210938 -1.003906 2.976562 -1.820312 2 -2.875 C 1.53125 -3.269531 1.539062 -3.675781 2.03125 -4.09375 C 2.445312 -4.46875 2.84375 -4.457031 3.21875 -4.0625 C 4.03125 -3.195312 5.078125 -2.519531 6.359375 -2.03125 C 7.648438 -1.539062 9.019531 -1.296875 10.46875 -1.296875 C 12.46875 -1.296875 14.023438 -1.703125 15.140625 -2.515625 C 16.265625 -3.335938 16.828125 -4.472656 16.828125 -5.921875 C 16.828125 -7.429688 16.242188 -8.640625 15.078125 -9.546875 C 13.910156 -10.460938 12.09375 -11.109375 9.625 -11.484375 C 7.21875 -11.878906 5.441406 -12.632812 4.296875 -13.75 C 3.160156 -14.875 2.59375 -16.4375 2.59375 -18.4375 C 2.59375 -20.519531 3.253906 -22.140625 4.578125 -23.296875 C 5.910156 -24.453125 7.753906 -25.03125 10.109375 -25.03125 C 11.328125 -25.03125 12.585938 -24.796875 13.890625 -24.328125 C 15.203125 -23.859375 16.414062 -23.21875 17.53125 -22.40625 C 17.976562 -22.03125 18.023438 -21.617188 17.671875 -21.171875 C 17.328125 -20.703125 16.929688 -20.644531 16.484375 -21 C 15.523438 -21.71875 14.476562 -22.273438 13.34375 -22.671875 C 12.21875 -23.078125 11.140625 -23.28125 10.109375 -23.28125 C 8.296875 -23.28125 6.878906 -22.851562 5.859375 -22 C 4.847656 -21.144531 4.34375 -19.957031 4.34375 -18.4375 C 4.34375 -16.945312 4.789062 -15.773438 5.6875 -14.921875 C 6.582031 -14.078125 7.988281 -13.5 9.90625 -13.1875 C 12.894531 -12.75 15.085938 -11.941406 16.484375 -10.765625 C 17.878906 -9.585938 18.578125 -7.972656 18.578125 -5.921875 C 18.578125 -3.929688 17.863281 -2.367188 16.4375 -1.234375 C 15.019531 -0.109375 13.03125 0.453125 10.46875 0.453125 Z M 10.46875 0.453125 "/></g></g></g><g fill="#726ab4" fill-opacity="1"><g transform="translate(123.716028, 277.757706)"><g><path d="M 4.515625 -11.484375 C 5.054688 -11.484375 5.578125 -11.4375 6.078125 -11.34375 C 6.578125 -11.25 7.070312 -11.085938 7.5625 -10.859375 L 7.234375 -9.796875 C 6.722656 -10.035156 6.257812 -10.203125 5.84375 -10.296875 C 5.425781 -10.390625 5.003906 -10.4375 4.578125 -10.4375 C 3.835938 -10.4375 3.242188 -10.269531 2.796875 -9.9375 C 2.359375 -9.613281 2.140625 -9.148438 2.140625 -8.546875 C 2.140625 -8.023438 2.304688 -7.609375 2.640625 -7.296875 C 2.984375 -6.992188 3.507812 -6.726562 4.21875 -6.5 L 5.421875 -6.109375 C 6.335938 -5.796875 7.007812 -5.367188 7.4375 -4.828125 C 7.863281 -4.296875 8.078125 -3.6875 8.078125 -3 C 8.078125 -2.507812 7.984375 -2.066406 7.796875 -1.671875 C 7.617188 -1.285156 7.359375 -0.957031 7.015625 -0.6875 C 6.679688 -0.414062 6.28125 -0.207031 5.8125 -0.0625 C 5.34375 0.0820312 4.828125 0.15625 4.265625 0.15625 C 3.691406 0.15625 3.117188 0.101562 2.546875 0 C 1.972656 -0.101562 1.398438 -0.289062 0.828125 -0.5625 L 1.171875 -1.625 C 1.671875 -1.363281 2.164062 -1.175781 2.65625 -1.0625 C 3.144531 -0.957031 3.65625 -0.90625 4.1875 -0.90625 C 4.925781 -0.90625 5.535156 -1.066406 6.015625 -1.390625 C 6.503906 -1.710938 6.75 -2.207031 6.75 -2.875 C 6.75 -3.113281 6.710938 -3.335938 6.640625 -3.546875 C 6.578125 -3.765625 6.460938 -3.960938 6.296875 -4.140625 C 6.128906 -4.316406 5.898438 -4.484375 5.609375 -4.640625 C 5.328125 -4.804688 4.960938 -4.960938 4.515625 -5.109375 L 3.34375 -5.484375 C 2.59375 -5.722656 1.984375 -6.070312 1.515625 -6.53125 C 1.046875 -7 0.8125 -7.617188 0.8125 -8.390625 C 0.8125 -9.335938 1.128906 -10.085938 1.765625 -10.640625 C 2.398438 -11.203125 3.316406 -11.484375 4.515625 -11.484375 Z M 4.515625 -11.484375 "/></g></g></g><g fill="#726ab4" fill-opacity="1"><g transform="translate(132.608006, 277.757706)"><g><path d="M 8.859375 -11.34375 L 8.859375 -10.265625 L 5.125 -10.265625 L 5.125 0 L 3.828125 0 L 3.828125 -10.265625 L 0.1875 -10.265625 L 0.1875 -11.34375 Z M 8.859375 -11.34375 "/></g></g></g><g fill="#726ab4" fill-opacity="1"><g transform="translate(141.625984, 277.757706)"><g><path d="M 1.34375 -11.34375 L 2.640625 -11.34375 L 2.640625 -4.546875 C 2.640625 -3.234375 2.882812 -2.296875 3.375 -1.734375 C 3.863281 -1.179688 4.632812 -0.90625 5.6875 -0.90625 C 6.207031 -0.90625 6.648438 -0.988281 7.015625 -1.15625 C 7.390625 -1.320312 7.691406 -1.550781 7.921875 -1.84375 C 8.160156 -2.144531 8.335938 -2.503906 8.453125 -2.921875 C 8.566406 -3.347656 8.625 -3.820312 8.625 -4.34375 L 8.625 -11.34375 L 9.921875 -11.34375 L 9.921875 -4.390625 C 9.921875 -2.828125 9.550781 -1.675781 8.8125 -0.9375 C 8.070312 -0.207031 7.03125 0.15625 5.6875 0.15625 C 4.332031 0.15625 3.269531 -0.207031 2.5 -0.9375 C 1.726562 -1.675781 1.34375 -2.859375 1.34375 -4.484375 Z M 1.34375 -11.34375 "/></g></g></g><g fill="#726ab4" fill-opacity="1"><g transform="translate(152.893951, 277.757706)"><g><path d="M 4.953125 -11.34375 C 5.722656 -11.34375 6.4375 -11.226562 7.09375 -11 C 7.757812 -10.769531 8.332031 -10.429688 8.8125 -9.984375 C 9.300781 -9.535156 9.679688 -8.96875 9.953125 -8.28125 C 10.234375 -7.601562 10.375 -6.816406 10.375 -5.921875 C 10.375 -4.828125 10.207031 -3.898438 9.875 -3.140625 C 9.550781 -2.390625 9.113281 -1.78125 8.5625 -1.3125 C 8.007812 -0.84375 7.367188 -0.503906 6.640625 -0.296875 C 5.910156 -0.0976562 5.132812 0 4.3125 0 L 1.4375 0 L 1.4375 -11.34375 Z M 2.734375 -1.0625 L 4.15625 -1.0625 C 4.757812 -1.0625 5.347656 -1.128906 5.921875 -1.265625 C 6.492188 -1.398438 7.007812 -1.648438 7.46875 -2.015625 C 7.925781 -2.390625 8.289062 -2.890625 8.5625 -3.515625 C 8.84375 -4.148438 8.984375 -4.953125 8.984375 -5.921875 C 8.984375 -6.617188 8.878906 -7.238281 8.671875 -7.78125 C 8.460938 -8.320312 8.164062 -8.773438 7.78125 -9.140625 C 7.40625 -9.515625 6.945312 -9.796875 6.40625 -9.984375 C 5.863281 -10.179688 5.269531 -10.28125 4.625 -10.28125 L 2.734375 -10.28125 Z M 2.734375 -1.0625 "/></g></g></g><g fill="#726ab4" fill-opacity="1"><g transform="translate(164.089922, 277.757706)"><g><path d="M 2.734375 -11.34375 L 2.734375 0 L 1.4375 0 L 1.4375 -11.34375 Z M 2.734375 -11.34375 "/></g></g></g><g fill="#726ab4" fill-opacity="1"><g transform="translate(168.247916, 277.757706)"><g><path d="M 6.03125 -11.484375 C 6.75 -11.484375 7.421875 -11.363281 8.046875 -11.125 C 8.679688 -10.882812 9.226562 -10.519531 9.6875 -10.03125 C 10.144531 -9.550781 10.503906 -8.945312 10.765625 -8.21875 C 11.023438 -7.488281 11.15625 -6.640625 11.15625 -5.671875 C 11.15625 -4.722656 11.019531 -3.882812 10.75 -3.15625 C 10.476562 -2.425781 10.109375 -1.816406 9.640625 -1.328125 C 9.179688 -0.835938 8.628906 -0.46875 7.984375 -0.21875 C 7.347656 0.03125 6.671875 0.15625 5.953125 0.15625 C 5.234375 0.15625 4.554688 0.0351562 3.921875 -0.203125 C 3.296875 -0.453125 2.753906 -0.816406 2.296875 -1.296875 C 1.847656 -1.785156 1.488281 -2.394531 1.21875 -3.125 C 0.957031 -3.851562 0.828125 -4.703125 0.828125 -5.671875 C 0.828125 -6.617188 0.960938 -7.453125 1.234375 -8.171875 C 1.503906 -8.890625 1.875 -9.492188 2.34375 -9.984375 C 2.8125 -10.484375 3.359375 -10.859375 3.984375 -11.109375 C 4.617188 -11.359375 5.300781 -11.484375 6.03125 -11.484375 Z M 2.21875 -5.671875 C 2.21875 -4.859375 2.316406 -4.148438 2.515625 -3.546875 C 2.722656 -2.941406 3 -2.441406 3.34375 -2.046875 C 3.695312 -1.648438 4.101562 -1.351562 4.5625 -1.15625 C 5.019531 -0.96875 5.507812 -0.875 6.03125 -0.875 C 6.539062 -0.875 7.019531 -0.96875 7.46875 -1.15625 C 7.925781 -1.351562 8.328125 -1.648438 8.671875 -2.046875 C 9.015625 -2.441406 9.285156 -2.941406 9.484375 -3.546875 C 9.679688 -4.148438 9.78125 -4.859375 9.78125 -5.671875 C 9.78125 -6.492188 9.675781 -7.207031 9.46875 -7.8125 C 9.257812 -8.425781 8.984375 -8.921875 8.640625 -9.296875 C 8.296875 -9.679688 7.890625 -9.96875 7.421875 -10.15625 C 6.960938 -10.34375 6.472656 -10.4375 5.953125 -10.4375 C 5.441406 -10.4375 4.957031 -10.335938 4.5 -10.140625 C 4.050781 -9.953125 3.65625 -9.660156 3.3125 -9.265625 C 2.976562 -8.867188 2.710938 -8.367188 2.515625 -7.765625 C 2.316406 -7.171875 2.21875 -6.472656 2.21875 -5.671875 Z M 2.21875 -5.671875 "/></g></g></g><g fill="#726ab4" fill-opacity="1"><g transform="translate(180.235876, 277.757706)"><g/></g></g><g fill="#726ab4" fill-opacity="1"><g transform="translate(184.141858, 277.757706)"><g><path d="M 4.515625 -11.484375 C 5.054688 -11.484375 5.578125 -11.4375 6.078125 -11.34375 C 6.578125 -11.25 7.070312 -11.085938 7.5625 -10.859375 L 7.234375 -9.796875 C 6.722656 -10.035156 6.257812 -10.203125 5.84375 -10.296875 C 5.425781 -10.390625 5.003906 -10.4375 4.578125 -10.4375 C 3.835938 -10.4375 3.242188 -10.269531 2.796875 -9.9375 C 2.359375 -9.613281 2.140625 -9.148438 2.140625 -8.546875 C 2.140625 -8.023438 2.304688 -7.609375 2.640625 -7.296875 C 2.984375 -6.992188 3.507812 -6.726562 4.21875 -6.5 L 5.421875 -6.109375 C 6.335938 -5.796875 7.007812 -5.367188 7.4375 -4.828125 C 7.863281 -4.296875 8.078125 -3.6875 8.078125 -3 C 8.078125 -2.507812 7.984375 -2.066406 7.796875 -1.671875 C 7.617188 -1.285156 7.359375 -0.957031 7.015625 -0.6875 C 6.679688 -0.414062 6.28125 -0.207031 5.8125 -0.0625 C 5.34375 0.0820312 4.828125 0.15625 4.265625 0.15625 C 3.691406 0.15625 3.117188 0.101562 2.546875 0 C 1.972656 -0.101562 1.398438 -0.289062 0.828125 -0.5625 L 1.171875 -1.625 C 1.671875 -1.363281 2.164062 -1.175781 2.65625 -1.0625 C 3.144531 -0.957031 3.65625 -0.90625 4.1875 -0.90625 C 4.925781 -0.90625 5.535156 -1.066406 6.015625 -1.390625 C 6.503906 -1.710938 6.75 -2.207031 6.75 -2.875 C 6.75 -3.113281 6.710938 -3.335938 6.640625 -3.546875 C 6.578125 -3.765625 6.460938 -3.960938 6.296875 -4.140625 C 6.128906 -4.316406 5.898438 -4.484375 5.609375 -4.640625 C 5.328125 -4.804688 4.960938 -4.960938 4.515625 -5.109375 L 3.34375 -5.484375 C 2.59375 -5.722656 1.984375 -6.070312 1.515625 -6.53125 C 1.046875 -7 0.8125 -7.617188 0.8125 -8.390625 C 0.8125 -9.335938 1.128906 -10.085938 1.765625 -10.640625 C 2.398438 -11.203125 3.316406 -11.484375 4.515625 -11.484375 Z M 4.515625 -11.484375 "/></g></g></g><g fill="#726ab4" fill-opacity="1"><g transform="translate(193.033837, 277.757706)"><g><path d="M 1.4375 0 L 1.4375 -11.34375 L 2.734375 -11.34375 L 2.734375 -6.40625 L 8.484375 -6.40625 L 8.484375 -11.34375 L 9.78125 -11.34375 L 9.78125 0 L 8.484375 0 L 8.484375 -5.328125 L 2.734375 -5.328125 L 2.734375 0 Z M 1.4375 0 "/></g></g></g><g fill="#726ab4" fill-opacity="1"><g transform="translate(204.229809, 277.757706)"><g><path d="M 6.03125 -11.484375 C 6.75 -11.484375 7.421875 -11.363281 8.046875 -11.125 C 8.679688 -10.882812 9.226562 -10.519531 9.6875 -10.03125 C 10.144531 -9.550781 10.503906 -8.945312 10.765625 -8.21875 C 11.023438 -7.488281 11.15625 -6.640625 11.15625 -5.671875 C 11.15625 -4.722656 11.019531 -3.882812 10.75 -3.15625 C 10.476562 -2.425781 10.109375 -1.816406 9.640625 -1.328125 C 9.179688 -0.835938 8.628906 -0.46875 7.984375 -0.21875 C 7.347656 0.03125 6.671875 0.15625 5.953125 0.15625 C 5.234375 0.15625 4.554688 0.0351562 3.921875 -0.203125 C 3.296875 -0.453125 2.753906 -0.816406 2.296875 -1.296875 C 1.847656 -1.785156 1.488281 -2.394531 1.21875 -3.125 C 0.957031 -3.851562 0.828125 -4.703125 0.828125 -5.671875 C 0.828125 -6.617188 0.960938 -7.453125 1.234375 -8.171875 C 1.503906 -8.890625 1.875 -9.492188 2.34375 -9.984375 C 2.8125 -10.484375 3.359375 -10.859375 3.984375 -11.109375 C 4.617188 -11.359375 5.300781 -11.484375 6.03125 -11.484375 Z M 2.21875 -5.671875 C 2.21875 -4.859375 2.316406 -4.148438 2.515625 -3.546875 C 2.722656 -2.941406 3 -2.441406 3.34375 -2.046875 C 3.695312 -1.648438 4.101562 -1.351562 4.5625 -1.15625 C 5.019531 -0.96875 5.507812 -0.875 6.03125 -0.875 C 6.539062 -0.875 7.019531 -0.96875 7.46875 -1.15625 C 7.925781 -1.351562 8.328125 -1.648438 8.671875 -2.046875 C 9.015625 -2.441406 9.285156 -2.941406 9.484375 -3.546875 C 9.679688 -4.148438 9.78125 -4.859375 9.78125 -5.671875 C 9.78125 -6.492188 9.675781 -7.207031 9.46875 -7.8125 C 9.257812 -8.425781 8.984375 -8.921875 8.640625 -9.296875 C 8.296875 -9.679688 7.890625 -9.96875 7.421875 -10.15625 C 6.960938 -10.34375 6.472656 -10.4375 5.953125 -10.4375 C 5.441406 -10.4375 4.957031 -10.335938 4.5 -10.140625 C 4.050781 -9.953125 3.65625 -9.660156 3.3125 -9.265625 C 2.976562 -8.867188 2.710938 -8.367188 2.515625 -7.765625 C 2.316406 -7.171875 2.21875 -6.472656 2.21875 -5.671875 Z M 2.21875 -5.671875 "/></g></g></g><g fill="#726ab4" fill-opacity="1"><g transform="translate(216.217769, 277.757706)"><g><path d="M 4.953125 -11.34375 C 5.722656 -11.34375 6.4375 -11.226562 7.09375 -11 C 7.757812 -10.769531 8.332031 -10.429688 8.8125 -9.984375 C 9.300781 -9.535156 9.679688 -8.96875 9.953125 -8.28125 C 10.234375 -7.601562 10.375 -6.816406 10.375 -5.921875 C 10.375 -4.828125 10.207031 -3.898438 9.875 -3.140625 C 9.550781 -2.390625 9.113281 -1.78125 8.5625 -1.3125 C 8.007812 -0.84375 7.367188 -0.503906 6.640625 -0.296875 C 5.910156 -0.0976562 5.132812 0 4.3125 0 L 1.4375 0 L 1.4375 -11.34375 Z M 2.734375 -1.0625 L 4.15625 -1.0625 C 4.757812 -1.0625 5.347656 -1.128906 5.921875 -1.265625 C 6.492188 -1.398438 7.007812 -1.648438 7.46875 -2.015625 C 7.925781 -2.390625 8.289062 -2.890625 8.5625 -3.515625 C 8.84375 -4.148438 8.984375 -4.953125 8.984375 -5.921875 C 8.984375 -6.617188 8.878906 -7.238281 8.671875 -7.78125 C 8.460938 -8.320312 8.164062 -8.773438 7.78125 -9.140625 C 7.40625 -9.515625 6.945312 -9.796875 6.40625 -9.984375 C 5.863281 -10.179688 5.269531 -10.28125 4.625 -10.28125 L 2.734375 -10.28125 Z M 2.734375 -1.0625 "/></g></g></g><g fill="#726ab4" fill-opacity="1"><g transform="translate(227.413741, 277.757706)"><g><path d="M 1.46875 -11.34375 L 3.390625 -4.65625 C 3.515625 -4.21875 3.644531 -3.710938 3.78125 -3.140625 C 3.914062 -2.578125 4.03125 -2.046875 4.125 -1.546875 L 4.15625 -1.546875 C 4.25 -2.046875 4.367188 -2.578125 4.515625 -3.140625 C 4.660156 -3.703125 4.800781 -4.207031 4.9375 -4.65625 L 6.890625 -11.34375 L 8.078125 -11.34375 L 10.09375 -4.65625 C 10.226562 -4.207031 10.363281 -3.707031 10.5 -3.15625 C 10.632812 -2.601562 10.765625 -2.066406 10.890625 -1.546875 L 10.921875 -1.546875 C 11.015625 -2.078125 11.128906 -2.617188 11.265625 -3.171875 C 11.398438 -3.722656 11.53125 -4.21875 11.65625 -4.65625 L 13.5 -11.34375 L 14.8125 -11.34375 L 11.5625 0 L 10.234375 0 L 8.28125 -6.796875 C 8.144531 -7.304688 8.003906 -7.800781 7.859375 -8.28125 C 7.722656 -8.757812 7.597656 -9.226562 7.484375 -9.6875 L 7.453125 -9.6875 C 7.359375 -9.28125 7.253906 -8.878906 7.140625 -8.484375 C 7.035156 -8.085938 6.929688 -7.691406 6.828125 -7.296875 L 4.78125 0 L 3.484375 0 L 0.140625 -11.34375 Z M 1.46875 -11.34375 "/></g></g></g><g fill="#726ab4" fill-opacity="1"><g transform="translate(242.371694, 277.757706)"><g><path d="M 1.4375 -11.34375 L 8.09375 -11.34375 L 8.09375 -10.28125 L 2.734375 -10.28125 L 2.734375 -6.390625 L 7.625 -6.390625 L 7.625 -5.328125 L 2.734375 -5.328125 L 2.734375 -1.0625 L 8.15625 -1.0625 L 8.15625 0 L 1.4375 0 Z M 1.4375 -11.34375 "/></g></g></g></svg>