<svg xmlns="http://www.w3.org/2000/svg" xmlns:xlink="http://www.w3.org/1999/xlink" width="500" zoomAndPan="magnify" viewBox="0 0 375 374.999991" height="500" preserveAspectRatio="xMidYMid meet" version="1.0"><defs><g/><clipPath id="f1521f083b"><path d="M 125 143 L 253 143 L 253 222.304688 L 125 222.304688 Z M 125 143 " clip-rule="nonzero"/></clipPath></defs><path fill="#5e0094" d="M 193.441406 94.71875 C 184.800781 86.476562 173.132812 82.332031 162.996094 89.804688 C 162.832031 90.28125 162.726562 90.757812 162.613281 91.246094 C 153.8125 127.519531 135.640625 193.3125 109.234375 218.726562 C 130.984375 226.046875 145.300781 217.003906 154.097656 202.25 C 157.042969 196.617188 160.066406 188.140625 162.894531 180.835938 C 172.425781 154.800781 185.199219 120.535156 193.441406 94.71875 Z M 193.441406 94.71875 " fill-opacity="1" fill-rule="nonzero"/><path fill="#7d00ae" d="M 162.996094 89.804688 C 162.984375 89.804688 162.984375 89.804688 162.996094 89.804688 C 162.816406 90.28125 163.304688 90.808594 163.140625 91.285156 C 150.226562 126.234375 135.921875 192.398438 109.21875 218.742188 C 126.238281 223.292969 142.84375 213.144531 150.699219 198.390625 C 156.835938 189.054688 186.804688 94.230469 188.207031 90.398438 C 188.195312 90.386719 169.289062 84.917969 162.996094 89.804688 Z M 162.996094 89.804688 " fill-opacity="1" fill-rule="nonzero"/><path fill="#9c00c9" d="M 162.996094 89.804688 C 162.996094 89.804688 163.742188 90.769531 163.730469 90.769531 C 163.730469 90.769531 163.035156 89.820312 163.035156 89.820312 C 162.867188 90.296875 163.179688 91.171875 163.152344 91.671875 C 161.699219 119.609375 152.191406 183.355469 109.21875 218.726562 C 126.894531 222.226562 143.808594 203.652344 153.828125 181.722656 C 164.246094 156.71875 175.101562 114.414062 183.140625 89.304688 C 183.039062 89.277344 167.382812 86.449219 162.996094 89.804688 Z M 162.996094 89.804688 " fill-opacity="1" fill-rule="nonzero"/><path fill="#d900fd" d="M 169.199219 87.054688 C 165.671875 87.824219 164.566406 88.726562 162.996094 89.792969 C 158.496094 102.285156 154.109375 116.625 150.03125 129.550781 C 139.804688 159.289062 131.175781 195.125 109.234375 218.714844 C 137.414062 210.289062 169.289062 87.042969 169.199219 87.054688 Z M 169.199219 87.054688 " fill-opacity="1" fill-rule="nonzero"/><path fill="#ba00e3" d="M 169.144531 87.273438 C 168.566406 90.589844 135.832031 209.699219 109.347656 218.703125 C 152.488281 207.460938 166.78125 117.382812 176.746094 87.015625 C 176.296875 88.390625 172.851562 86.527344 169.144531 87.273438 Z M 169.144531 87.273438 " fill-opacity="1" fill-rule="nonzero"/><path fill="#5e0094" d="M 189.351562 107.339844 C 189.351562 107.339844 189.339844 107.363281 189.328125 107.414062 C 189.300781 107.492188 189.25 107.632812 189.1875 107.828125 C 188.453125 109.9375 185.46875 118.464844 183.050781 124.945312 C 181.867188 86.296875 162.996094 89.792969 162.996094 89.792969 C 163.203125 89.652344 163.394531 89.511719 163.589844 89.371094 C 164.207031 88.945312 164.796875 88.585938 165.363281 88.277344 C 167.539062 87.054688 169.210938 86.578125 169.582031 86.476562 C 169.597656 86.476562 169.621094 86.460938 169.621094 86.460938 C 169.632812 86.460938 169.648438 86.449219 169.660156 86.449219 L 175.050781 88.148438 L 176.195312 88.507812 L 178.316406 90.179688 L 182.613281 93.574219 L 186.859375 96.917969 L 187.167969 98.21875 Z M 189.351562 107.339844 " fill-opacity="0.8" fill-rule="nonzero"/><path fill="#9c00c9" d="M 162.996094 89.792969 C 163.011719 89.78125 163.0625 89.742188 163.164062 89.691406 C 163.101562 89.730469 163.050781 89.769531 162.996094 89.792969 Z M 162.996094 89.792969 " fill-opacity="1" fill-rule="nonzero"/><path fill="#ba00e3" d="M 269.421875 114.015625 C 248.277344 150.621094 209.007812 176.652344 162.855469 180.835938 C 161.003906 185.941406 158.972656 191.242188 156.722656 196.449219 C 198.332031 194.46875 255.042969 161.503906 269.421875 114.015625 C 269.449219 113.960938 269.421875 114.015625 269.421875 114.015625 Z M 269.421875 114.015625 " fill-opacity="1" fill-rule="nonzero"/><path fill="#9c00c9" d="M 269.421875 114.015625 C 248.277344 150.621094 209.007812 176.652344 162.855469 180.835938 C 161.003906 185.941406 160.953125 185.875 159.085938 190.816406 C 200.699219 188.835938 248.625 161.695312 269.421875 114.015625 C 269.449219 113.960938 269.421875 114.015625 269.421875 114.015625 Z M 269.421875 114.015625 " fill-opacity="1" fill-rule="nonzero"/><path fill="#7d00ae" d="M 162.703125 180.886719 C 160.851562 185.992188 161.96875 183.304688 160.398438 187.34375 C 202.007812 185.363281 247.59375 158.105469 269.421875 114.015625 C 248.277344 150.621094 208.867188 176.707031 162.703125 180.886719 Z M 162.703125 180.886719 " fill-opacity="1" fill-rule="nonzero"/><path fill="#5e0094" d="M 239.851562 149.050781 C 238.449219 150.222656 237.019531 151.367188 235.566406 152.484375 C 225.613281 160.152344 214.5 166.519531 202.511719 171.316406 C 201.816406 171.597656 201.121094 171.871094 200.425781 172.140625 C 197.996094 173.066406 195.527344 173.941406 193.03125 174.738281 C 192.632812 174.867188 192.234375 174.980469 191.847656 175.109375 C 183.101562 177.824219 173.957031 179.714844 164.527344 180.691406 C 163.988281 180.746094 163.449219 180.808594 162.90625 180.847656 C 162.816406 180.859375 162.742188 180.859375 162.652344 180.875 C 162.136719 182.300781 161.6875 182.816406 161.25 182.929688 L 161.25 184.371094 C 161.363281 184.359375 161.46875 184.359375 161.582031 184.347656 C 162.664062 184.257812 163.757812 184.152344 164.835938 184.039062 C 174.523438 182.984375 184.476562 180.757812 194.28125 177.398438 C 194.601562 177.285156 194.933594 177.179688 195.257812 177.066406 C 197.726562 176.203125 200.183594 175.265625 202.628906 174.25 C 203.449219 173.914062 204.273438 173.554688 205.082031 173.207031 C 216.015625 168.449219 226.578125 162.234375 236.160156 154.632812 C 237.792969 153.347656 239.386719 152.007812 240.957031 150.632812 C 252.480469 140.5625 262.359375 128.328125 269.421875 114.050781 C 261.78125 127.25 251.734375 139.109375 239.851562 149.050781 Z M 239.851562 149.050781 " fill-opacity="1" fill-rule="nonzero"/><path fill="#d900fd" d="M 269.421875 114.015625 C 264.355469 131.199219 255.761719 146.464844 244.648438 159.265625 C 243.53125 160.550781 242.386719 161.824219 241.214844 163.058594 C 240.929688 163.355469 240.660156 163.648438 240.378906 163.933594 C 239.621094 164.730469 238.835938 165.503906 238.0625 166.273438 C 231.902344 172.34375 225.109375 177.734375 217.855469 182.390625 C 216.542969 183.238281 215.207031 184.050781 213.855469 184.847656 C 210.292969 186.945312 206.640625 188.875 202.882812 190.609375 C 202.535156 190.765625 202.203125 190.929688 201.855469 191.085938 C 189.339844 196.757812 175.847656 200.425781 161.917969 201.800781 C 159.304688 202.058594 156.695312 202.226562 154.058594 202.316406 C 154.070312 202.289062 154.085938 202.25 154.097656 202.226562 C 155.011719 200.308594 155.886719 198.378906 156.722656 196.425781 C 156.746094 196.425781 156.757812 196.425781 156.785156 196.425781 C 159.0625 196.320312 161.390625 196.113281 163.742188 195.820312 C 175.28125 194.390625 187.667969 190.804688 199.824219 185.375 C 200.222656 185.195312 200.621094 185.015625 201.019531 184.835938 C 203.847656 183.546875 206.652344 182.160156 209.429688 180.667969 C 210.574219 180.050781 211.722656 179.433594 212.851562 178.777344 C 221.046875 174.121094 228.917969 168.652344 236.121094 162.453125 C 236.726562 161.941406 237.332031 161.414062 237.921875 160.871094 C 238.5 160.359375 239.09375 159.832031 239.660156 159.289062 C 240.984375 158.066406 242.28125 156.820312 243.542969 155.546875 C 255.390625 143.6875 264.703125 129.640625 269.421875 114.015625 Z M 269.421875 114.015625 " fill-opacity="1" fill-rule="nonzero"/><path fill="#5e0094" d="M 241.214844 163.070312 C 240.929688 163.367188 240.378906 163.945312 240.378906 163.945312 C 239.621094 164.742188 238.835938 165.515625 238.0625 166.285156 C 237.882812 166.261719 237.765625 166.234375 237.765625 166.234375 L 236.121094 162.453125 L 234.140625 157.925781 L 234.4375 155.933594 L 234.859375 153.011719 L 234.859375 152.988281 C 234.859375 152.988281 234.859375 152.988281 234.875 153 C 234.964844 153.0625 235.554688 153.476562 236.402344 154.390625 C 237.304688 155.378906 238.488281 156.949219 239.660156 159.300781 C 240.1875 160.371094 240.714844 161.617188 241.214844 163.03125 C 241.214844 163.046875 241.214844 163.058594 241.214844 163.070312 Z M 241.214844 163.070312 " fill-opacity="0.8" fill-rule="nonzero"/><path fill="#d900fd" d="M 239.542969 166.132812 C 233.820312 155.894531 225.675781 140.972656 216.632812 126.746094 C 215.695312 125.269531 214.742188 123.800781 213.777344 122.347656 C 207.695312 113.113281 201.289062 104.429688 194.960938 97.84375 C 189.839844 92.519531 184.785156 88.558594 180 86.808594 C 178.445312 86.230469 176.914062 85.894531 175.4375 85.820312 C 175.527344 85.820312 175.617188 85.804688 175.707031 85.804688 C 184.851562 85.460938 191.589844 86.207031 197.070312 88.609375 C 198.265625 89.125 199.386719 89.730469 200.480469 90.410156 C 206.523438 94.207031 211.089844 100.585938 216.183594 110.515625 C 226.152344 129.011719 233.019531 148.125 239.542969 166.121094 C 239.542969 166.105469 239.542969 166.121094 239.542969 166.132812 Z M 239.542969 166.132812 " fill-opacity="1" fill-rule="nonzero"/><path fill="#9c00c9" d="M 162.996094 89.804688 C 163.011719 89.804688 163.011719 89.792969 163.023438 89.792969 C 163.011719 89.792969 162.996094 89.792969 162.996094 89.804688 Z M 162.996094 89.804688 " fill-opacity="1" fill-rule="nonzero"/><path fill="#9c00c9" d="M 258.578125 218.921875 L 258.515625 218.921875 C 240.289062 179.652344 214.5 134.414062 189.390625 100.765625 C 187.28125 98.347656 185.121094 95.878906 182.613281 93.589844 C 177.855469 89.074219 170.652344 84.984375 164.386719 88.878906 C 204.3125 64.789062 244.878906 192.476562 258.578125 218.921875 Z M 258.578125 218.921875 " fill-opacity="1" fill-rule="nonzero"/><path fill="#7d00ae" d="M 258.515625 218.921875 L 258.488281 218.921875 C 258.296875 218.535156 258.101562 218.160156 257.898438 217.777344 C 250.230469 203.007812 239.542969 186.96875 226.707031 170.300781 C 219.386719 160.792969 211.375 151.070312 202.808594 141.269531 C 201.765625 138.570312 200.878906 136.277344 200.375 135.003906 C 197.933594 128.1875 194.910156 119.957031 192.335938 113.921875 C 192.09375 113.371094 191.859375 112.832031 191.628906 112.316406 C 191.398438 111.800781 191.179688 111.300781 190.949219 110.824219 C 185.675781 99.554688 179.847656 90.320312 173.351562 87.8125 C 173.390625 87.824219 173.417969 87.839844 173.453125 87.851562 C 188.402344 89.933594 206.71875 117.34375 223.167969 147.6875 C 228.453125 157.425781 233.535156 167.46875 238.269531 177.078125 C 246.398438 193.570312 253.433594 208.773438 258.515625 218.921875 Z M 258.515625 218.921875 " fill-opacity="1" fill-rule="nonzero"/><path fill="#ba00e3" d="M 258.628906 218.921875 L 258.578125 218.921875 C 254.117188 209.273438 248.261719 194.816406 241.433594 178.917969 C 238.4375 171.960938 235.257812 164.730469 231.929688 157.515625 C 231.476562 156.539062 231.027344 155.574219 230.578125 154.59375 C 225.304688 143.351562 219.667969 132.238281 213.777344 122.324219 C 207.785156 112.226562 201.535156 103.390625 195.167969 96.917969 C 188.839844 90.5 182.394531 86.4375 175.949219 85.804688 C 175.875 85.792969 175.796875 85.792969 175.707031 85.78125 C 175.796875 85.792969 175.898438 85.792969 175.988281 85.804688 C 176.980469 85.894531 177.945312 86.011719 178.894531 86.152344 C 178.910156 86.152344 178.910156 86.152344 178.910156 86.152344 C 185.402344 87.144531 191.0625 89.496094 196.078125 92.878906 C 217.625 107.390625 227.21875 140.792969 239.53125 166.09375 C 239.683594 166.429688 239.851562 166.75 240.019531 167.085938 C 240.148438 167.433594 240.261719 167.777344 240.390625 168.125 C 240.75 169.15625 241.125 170.183594 241.484375 171.226562 C 241.960938 172.601562 242.449219 173.980469 242.925781 175.378906 C 242.964844 175.472656 242.988281 175.574219 243.027344 175.664062 C 248.339844 191.035156 253.640625 207.292969 258.628906 218.921875 Z M 258.628906 218.921875 " fill-opacity="1" fill-rule="nonzero"/><path fill="#5e0094" d="M 244.097656 180.472656 C 243.246094 179.972656 242.359375 179.457031 241.445312 178.917969 C 231.914062 173.335938 219.386719 165.992188 210.382812 160.730469 C 210.371094 160.691406 205.019531 146.953125 202.820312 141.269531 C 214.085938 145.230469 224.363281 150.285156 231.929688 157.515625 C 235.992188 161.398438 239.273438 165.925781 241.484375 171.238281 C 241.960938 172.617188 242.449219 173.992188 242.925781 175.394531 C 242.964844 175.484375 242.988281 175.585938 243.027344 175.675781 C 243.476562 177.21875 243.824219 178.816406 244.097656 180.472656 Z M 244.097656 180.472656 " fill-opacity="0.6" fill-rule="nonzero"/><path fill="#5e0094" d="M 257.910156 217.789062 C 250.242188 203.023438 239.554688 186.984375 226.71875 170.3125 C 219.398438 160.808594 211.386719 151.082031 202.820312 141.28125 C 201.777344 138.582031 200.890625 136.292969 200.390625 135.019531 C 197.945312 128.203125 194.921875 119.96875 192.351562 113.9375 C 192.105469 113.382812 191.875 112.84375 191.640625 112.328125 C 195.886719 114.117188 204.542969 126.054688 214.332031 141.527344 C 220.761719 151.6875 227.695312 163.378906 234.203125 174.710938 C 244.261719 192.203125 253.292969 208.875 257.910156 217.789062 Z M 257.910156 217.789062 " fill-opacity="1" fill-rule="nonzero"/><path fill="#5e0094" d="M 217.84375 182.417969 C 212.722656 185.683594 207.375 188.65625 201.816406 191.125 C 200.542969 184.910156 197.738281 177.773438 193.660156 174.570312 C 197.277344 173.453125 199 172.730469 202.511719 171.316406 C 206.730469 174.363281 213.625 179.355469 217.84375 182.417969 Z M 217.84375 182.417969 " fill-opacity="0.8" fill-rule="nonzero"/><path fill="#d900fd" d="M 264.648438 216.050781 C 264.648438 216.050781 264.648438 216.039062 264.636719 216.039062 C 263.042969 212.875 260.675781 209.375 258.089844 205.554688 C 238.796875 176.988281 193.917969 133.835938 149.234375 132.664062 C 112.113281 132.007812 103.636719 165.375 124.398438 186.03125 C 125.605469 187.238281 126.917969 188.398438 128.320312 189.503906 C 127.933594 190.378906 126.710938 192.964844 125.914062 194.390625 C 123.984375 193.207031 122.199219 191.933594 120.550781 190.597656 C 89.886719 165.757812 108.652344 118.195312 152.191406 122.59375 C 200.105469 126.234375 256.574219 178.300781 264.648438 216.050781 Z M 264.648438 216.050781 " fill-opacity="1" fill-rule="nonzero"/><path fill="#9c00c9" d="M 262.886719 217.6875 C 259.992188 220.117188 256.316406 221.75 252.570312 221.980469 C 249.035156 215.511719 244.867188 209.144531 240.390625 203.175781 C 231.015625 190.699219 220.042969 179.34375 207.9375 169.503906 C 189.417969 154.75 143.445312 134.773438 128.695312 152.175781 C 123.855469 159.753906 125.644531 171.378906 133.605469 177.414062 C 132.71875 179.652344 132 181.167969 131.125 183.148438 C 117.914062 172.214844 114.390625 149.140625 133.902344 140.5625 C 182.355469 120.109375 246.140625 191.332031 258.695312 219.164062 C 258.734375 219.152344 262.847656 217.699219 262.886719 217.6875 Z M 262.886719 217.6875 " fill-opacity="1" fill-rule="nonzero"/><g clip-path="url(#f1521f083b)"><path fill="#5e0094" d="M 252.558594 221.96875 C 244.199219 222.535156 235.863281 216.902344 231 208.9375 C 218.742188 190.945312 174.238281 147.367188 143.203125 150.632812 C 132.707031 152.125 125.824219 164.074219 135.382812 172.898438 C 135.277344 173.15625 133.929688 176.628906 133.492188 177.746094 C 124.292969 170.996094 122.867188 159.226562 128.695312 152.191406 C 146.300781 130.65625 190.730469 155.226562 207.914062 169.503906 C 220.015625 179.34375 231 190.699219 240.367188 203.175781 C 244.855469 209.132812 249.023438 215.5 252.558594 221.96875 Z M 252.558594 221.96875 " fill-opacity="1" fill-rule="nonzero"/></g><path fill="#ba00e3" d="M 264.648438 216.050781 C 263.300781 217.878906 260.972656 219.460938 259.015625 220.207031 C 246.460938 194.597656 198.023438 137.730469 151.5 137.757812 C 135.988281 137.769531 121.335938 144.972656 120.488281 159.664062 C 119.871094 167.496094 123.457031 174.917969 128.371094 180.382812 C 129.257812 181.375 130.199219 182.300781 131.148438 183.148438 C 131.175781 183.175781 131.203125 183.203125 131.226562 183.214844 C 129.695312 186.726562 128.359375 189.515625 128.347656 189.515625 C 126.90625 188.578125 125.527344 187.496094 124.230469 186.289062 C 118.222656 180.71875 113.890625 172.488281 113.285156 163.882812 C 111.726562 141.835938 129.875 131.378906 149.761719 130.425781 C 199.386719 128.074219 241.136719 178.867188 258.375 205.492188 C 261.113281 209.710938 263.222656 213.324219 264.664062 216.027344 C 264.648438 216.039062 264.648438 216.050781 264.648438 216.050781 Z M 264.648438 216.050781 " fill-opacity="1" fill-rule="nonzero"/><path fill="#5e0094" d="M 167.617188 168.113281 C 167.617188 168.113281 157.210938 155.265625 141.992188 154.015625 C 143.136719 150.335938 143.882812 148.523438 143.882812 148.523438 L 163.113281 150.929688 L 172.671875 154.285156 Z M 167.617188 168.113281 " fill-opacity="0.8" fill-rule="nonzero"/><path fill="#5e0094" d="M 163.730469 195.84375 C 163.292969 197.800781 162.703125 199.820312 161.90625 201.824219 C 159.292969 202.082031 156.683594 202.25 154.046875 202.351562 C 154.058594 202.328125 154.070312 202.289062 154.085938 202.261719 C 153.839844 202.675781 153.582031 203.074219 153.339844 203.484375 C 156.335938 194.75 158.523438 186.367188 159.140625 177.386719 L 163.242188 179.910156 C 163.125 180.21875 163.011719 180.539062 162.882812 180.847656 C 163.421875 180.796875 163.960938 180.746094 164.503906 180.691406 L 164.59375 180.746094 C 165.03125 184.65625 165.003906 190.019531 163.730469 195.84375 Z M 163.730469 195.84375 " fill-opacity="0.6" fill-rule="nonzero"/><path fill="#d900fd" d="M 191.640625 112.316406 C 181.019531 89.882812 166.933594 86.964844 162.984375 89.804688 C 164.21875 88.535156 167.382812 86.976562 169.648438 86.476562 C 179.617188 84.328125 190.949219 85.730469 197.070312 88.597656 C 195.140625 88.277344 193.210938 88.222656 191.628906 88.261719 C 189.351562 88.328125 187.078125 88.109375 184.851562 87.582031 C 183.746094 87.324219 182.496094 87.117188 181.328125 87.144531 C 176.363281 87.246094 175.035156 88.160156 175.035156 88.160156 C 175.035156 88.160156 182.894531 92.535156 191.640625 112.316406 Z M 191.640625 112.316406 " fill-opacity="1" fill-rule="nonzero"/><path fill="#5e0094" d="M 135.394531 172.898438 C 135.292969 173.15625 133.941406 176.628906 133.503906 177.746094 C 132.628906 179.933594 132 181.21875 131.164062 183.148438 C 131.1875 183.175781 131.214844 183.203125 131.238281 183.214844 C 129.710938 186.726562 128.371094 189.515625 128.359375 189.515625 C 127.972656 190.390625 126.75 192.976562 125.953125 194.40625 C 124.023438 193.222656 122.238281 191.949219 120.589844 190.609375 C 120.5625 190.597656 120.550781 190.570312 120.550781 190.570312 C 120.550781 190.570312 123.097656 187.753906 124.242188 186.289062 C 124.308594 186.210938 124.371094 186.121094 124.4375 186.042969 C 125.875 184.179688 127.1875 182.273438 128.332031 180.488281 C 128.359375 180.449219 128.371094 180.421875 128.398438 180.382812 C 129.476562 178.671875 130.417969 177.078125 131.203125 175.691406 C 131.277344 175.5625 131.34375 175.433594 131.421875 175.304688 C 132.769531 172.847656 133.515625 171.226562 133.632812 170.996094 C 134.09375 171.636719 134.726562 172.230469 135.394531 172.898438 Z M 135.394531 172.898438 " fill-opacity="0.6" fill-rule="nonzero"/><path fill="#d900fd" d="M 192.492188 90.550781 L 190.664062 89.640625 C 191.746094 90.140625 192.402344 90.5 192.492188 90.550781 Z M 192.492188 90.550781 " fill-opacity="1" fill-rule="nonzero"/><g fill="#5e0094" fill-opacity="1"><g transform="translate(85.58203, 264.502951)"><g><path d="M 15.328125 -26.40625 L 25.984375 0 L 19.515625 0 L 17.5625 -5.28125 L 7.515625 -5.28125 L 5.5625 0 L -0.890625 0 L 9.765625 -26.40625 Z M 15.515625 -10.5625 L 12.578125 -18.234375 L 12.515625 -18.234375 L 9.5625 -10.5625 Z M 15.515625 -10.5625 "/></g></g></g><g fill="#5e0094" fill-opacity="1"><g transform="translate(110.663861, 264.502951)"><g><path d="M 7.9375 -26.40625 L 7.9375 -5.28125 L 17.03125 -5.28125 L 17.03125 0 L 1.921875 0 L 1.921875 -26.40625 Z M 7.9375 -26.40625 "/></g></g></g><g fill="#5e0094" fill-opacity="1"><g transform="translate(128.739415, 264.502951)"><g><path d="M 17.03125 -26.40625 L 17.03125 -21.125 L 7.9375 -21.125 L 7.9375 -15.875 L 16.640625 -15.875 L 16.640625 -10.59375 L 7.9375 -10.59375 L 7.9375 -5.28125 L 17.03125 -5.28125 L 17.03125 0 L 1.921875 0 L 1.921875 -26.40625 Z M 17.03125 -26.40625 "/></g></g></g><g fill="#5e0094" fill-opacity="1"><g transform="translate(147.294852, 264.502951)"><g><path d="M 26.625 0 L 18.84375 0 L 12.609375 -8.984375 L 6.375 0 L -1.09375 0 L 8.890625 -14.203125 L 0.578125 -26.40625 L 7.75 -26.40625 L 12.609375 -19.203125 L 17.46875 -26.40625 L 24.953125 -26.40625 L 16.3125 -14.203125 Z M 26.625 0 "/></g></g></g><g fill="#5e0094" fill-opacity="1"><g transform="translate(172.824571, 264.502951)"><g><path d="M 15.328125 -26.40625 L 25.984375 0 L 19.515625 0 L 17.5625 -5.28125 L 7.515625 -5.28125 L 5.5625 0 L -0.890625 0 L 9.765625 -26.40625 Z M 15.515625 -10.5625 L 12.578125 -18.234375 L 12.515625 -18.234375 L 9.5625 -10.5625 Z M 15.515625 -10.5625 "/></g></g></g><g fill="#5e0094" fill-opacity="1"><g transform="translate(197.906402, 264.502951)"><g><path d="M 7.9375 -16.390625 L 7.9375 0 L 1.921875 0 L 1.921875 -26.40625 L 7.9375 -26.40625 L 18.4375 -10.015625 L 18.5 -10.015625 L 18.5 -26.40625 L 24.515625 -26.40625 L 24.515625 0 L 18.5 0 L 8 -16.390625 Z M 7.9375 -16.390625 "/></g></g></g><g fill="#5e0094" fill-opacity="1"><g transform="translate(224.331907, 264.502951)"><g><path d="M 1.921875 -26.40625 L 9.5625 -26.40625 C 13.238281 -26.40625 16.375 -25.148438 18.96875 -22.640625 C 21.570312 -20.128906 22.875 -16.988281 22.875 -13.21875 C 22.875 -9.414062 21.578125 -6.257812 18.984375 -3.75 C 16.398438 -1.25 13.257812 0 9.5625 0 L 1.921875 0 Z M 7.9375 -5.375 L 8.859375 -5.375 C 11.054688 -5.375 12.851562 -6.113281 14.25 -7.59375 C 15.65625 -9.082031 16.367188 -10.945312 16.390625 -13.1875 C 16.390625 -15.425781 15.6875 -17.289062 14.28125 -18.78125 C 12.882812 -20.28125 11.078125 -21.03125 8.859375 -21.03125 L 7.9375 -21.03125 Z M 7.9375 -5.375 "/></g></g></g><g fill="#5e0094" fill-opacity="1"><g transform="translate(247.942108, 264.502951)"><g><path d="M 17.03125 -26.40625 L 17.03125 -21.125 L 7.9375 -21.125 L 7.9375 -15.875 L 16.640625 -15.875 L 16.640625 -10.59375 L 7.9375 -10.59375 L 7.9375 -5.28125 L 17.03125 -5.28125 L 17.03125 0 L 1.921875 0 L 1.921875 -26.40625 Z M 17.03125 -26.40625 "/></g></g></g><g fill="#5e0094" fill-opacity="1"><g transform="translate(266.497545, 264.502951)"><g><path d="M 1.921875 -26.40625 L 11.359375 -26.40625 C 13.898438 -26.40625 15.96875 -25.726562 17.5625 -24.375 C 19.164062 -23.019531 19.96875 -21.082031 19.96875 -18.5625 C 19.96875 -16.613281 19.484375 -14.984375 18.515625 -13.671875 C 17.546875 -12.367188 16.226562 -11.445312 14.5625 -10.90625 L 23.640625 0 L 16 0 L 7.9375 -10.4375 L 7.9375 0 L 1.921875 0 Z M 7.9375 -14.6875 L 8.640625 -14.6875 C 9.191406 -14.6875 9.660156 -14.695312 10.046875 -14.71875 C 10.429688 -14.738281 10.867188 -14.8125 11.359375 -14.9375 C 11.847656 -15.070312 12.238281 -15.253906 12.53125 -15.484375 C 12.832031 -15.722656 13.085938 -16.066406 13.296875 -16.515625 C 13.515625 -16.960938 13.625 -17.503906 13.625 -18.140625 C 13.625 -18.785156 13.515625 -19.332031 13.296875 -19.78125 C 13.085938 -20.226562 12.832031 -20.566406 12.53125 -20.796875 C 12.238281 -21.035156 11.847656 -21.21875 11.359375 -21.34375 C 10.867188 -21.46875 10.429688 -21.539062 10.046875 -21.5625 C 9.660156 -21.582031 9.191406 -21.59375 8.640625 -21.59375 L 7.9375 -21.59375 Z M 7.9375 -14.6875 "/></g></g></g></svg>