<svg xmlns="http://www.w3.org/2000/svg" xmlns:xlink="http://www.w3.org/1999/xlink" width="500" zoomAndPan="magnify" viewBox="0 0 375 374.999991" height="500" preserveAspectRatio="xMidYMid meet" version="1.0"><defs><g/><linearGradient x1="0" gradientTransform="matrix(0.75, 0, 0, 0.75, 0.0000045, 0)" y1="0" x2="0" gradientUnits="userSpaceOnUse" y2="499.999979" id="19a43aee3a"><stop stop-opacity="1" stop-color="rgb(81.999207%, 88.598633%, 96.499634%)" offset="0"/><stop stop-opacity="1" stop-color="rgb(82.139587%, 88.684082%, 96.522522%)" offset="0.015625"/><stop stop-opacity="1" stop-color="rgb(82.420349%, 88.856506%, 96.57135%)" offset="0.03125"/><stop stop-opacity="1" stop-color="rgb(82.702637%, 89.028931%, 96.620178%)" offset="0.046875"/><stop stop-opacity="1" stop-color="rgb(82.983398%, 89.199829%, 96.669006%)" offset="0.0625"/><stop stop-opacity="1" stop-color="rgb(83.26416%, 89.372253%, 96.716309%)" offset="0.078125"/><stop stop-opacity="1" stop-color="rgb(83.546448%, 89.544678%, 96.765137%)" offset="0.09375"/><stop stop-opacity="1" stop-color="rgb(83.827209%, 89.715576%, 96.813965%)" offset="0.109375"/><stop stop-opacity="1" stop-color="rgb(84.107971%, 89.888%, 96.862793%)" offset="0.125"/><stop stop-opacity="1" stop-color="rgb(84.390259%, 90.060425%, 96.910095%)" offset="0.140625"/><stop stop-opacity="1" stop-color="rgb(84.671021%, 90.231323%, 96.958923%)" offset="0.15625"/><stop stop-opacity="1" stop-color="rgb(84.951782%, 90.403748%, 97.007751%)" offset="0.171875"/><stop stop-opacity="1" stop-color="rgb(85.23407%, 90.574646%, 97.05658%)" offset="0.1875"/><stop stop-opacity="1" stop-color="rgb(85.514832%, 90.74707%, 97.103882%)" offset="0.203125"/><stop stop-opacity="1" stop-color="rgb(85.795593%, 90.919495%, 97.15271%)" offset="0.21875"/><stop stop-opacity="1" stop-color="rgb(86.076355%, 91.090393%, 97.201538%)" offset="0.234375"/><stop stop-opacity="1" stop-color="rgb(86.358643%, 91.262817%, 97.250366%)" offset="0.25"/><stop stop-opacity="1" stop-color="rgb(86.639404%, 91.435242%, 97.297668%)" offset="0.265625"/><stop stop-opacity="1" stop-color="rgb(86.920166%, 91.60614%, 97.346497%)" offset="0.28125"/><stop stop-opacity="1" stop-color="rgb(87.202454%, 91.778564%, 97.395325%)" offset="0.296875"/><stop stop-opacity="1" stop-color="rgb(87.483215%, 91.950989%, 97.444153%)" offset="0.3125"/><stop stop-opacity="1" stop-color="rgb(87.763977%, 92.121887%, 97.491455%)" offset="0.328125"/><stop stop-opacity="1" stop-color="rgb(88.046265%, 92.294312%, 97.540283%)" offset="0.34375"/><stop stop-opacity="1" stop-color="rgb(88.327026%, 92.46521%, 97.589111%)" offset="0.359375"/><stop stop-opacity="1" stop-color="rgb(88.607788%, 92.637634%, 97.637939%)" offset="0.375"/><stop stop-opacity="1" stop-color="rgb(88.890076%, 92.810059%, 97.685242%)" offset="0.390625"/><stop stop-opacity="1" stop-color="rgb(89.170837%, 92.980957%, 97.73407%)" offset="0.40625"/><stop stop-opacity="1" stop-color="rgb(89.451599%, 93.153381%, 97.782898%)" offset="0.421875"/><stop stop-opacity="1" stop-color="rgb(89.733887%, 93.325806%, 97.831726%)" offset="0.4375"/><stop stop-opacity="1" stop-color="rgb(90.014648%, 93.496704%, 97.879028%)" offset="0.453125"/><stop stop-opacity="1" stop-color="rgb(90.29541%, 93.669128%, 97.927856%)" offset="0.46875"/><stop stop-opacity="1" stop-color="rgb(90.577698%, 93.841553%, 97.976685%)" offset="0.484375"/><stop stop-opacity="1" stop-color="rgb(90.858459%, 94.012451%, 98.025513%)" offset="0.5"/><stop stop-opacity="1" stop-color="rgb(91.139221%, 94.184875%, 98.072815%)" offset="0.515625"/><stop stop-opacity="1" stop-color="rgb(91.421509%, 94.3573%, 98.121643%)" offset="0.53125"/><stop stop-opacity="1" stop-color="rgb(91.702271%, 94.528198%, 98.170471%)" offset="0.546875"/><stop stop-opacity="1" stop-color="rgb(91.983032%, 94.700623%, 98.219299%)" offset="0.5625"/><stop stop-opacity="1" stop-color="rgb(92.26532%, 94.871521%, 98.266602%)" offset="0.578125"/><stop stop-opacity="1" stop-color="rgb(92.546082%, 95.043945%, 98.31543%)" offset="0.59375"/><stop stop-opacity="1" stop-color="rgb(92.826843%, 95.21637%, 98.364258%)" offset="0.609375"/><stop stop-opacity="1" stop-color="rgb(93.107605%, 95.387268%, 98.41156%)" offset="0.625"/><stop stop-opacity="1" stop-color="rgb(93.389893%, 95.559692%, 98.460388%)" offset="0.640625"/><stop stop-opacity="1" stop-color="rgb(93.670654%, 95.732117%, 98.509216%)" offset="0.65625"/><stop stop-opacity="1" stop-color="rgb(93.951416%, 95.903015%, 98.558044%)" offset="0.671875"/><stop stop-opacity="1" stop-color="rgb(94.233704%, 96.075439%, 98.605347%)" offset="0.6875"/><stop stop-opacity="1" stop-color="rgb(94.514465%, 96.247864%, 98.654175%)" offset="0.703125"/><stop stop-opacity="1" stop-color="rgb(94.795227%, 96.418762%, 98.703003%)" offset="0.71875"/><stop stop-opacity="1" stop-color="rgb(95.077515%, 96.591187%, 98.751831%)" offset="0.734375"/><stop stop-opacity="1" stop-color="rgb(95.358276%, 96.762085%, 98.799133%)" offset="0.75"/><stop stop-opacity="1" stop-color="rgb(95.639038%, 96.934509%, 98.847961%)" offset="0.765625"/><stop stop-opacity="1" stop-color="rgb(95.921326%, 97.106934%, 98.89679%)" offset="0.78125"/><stop stop-opacity="1" stop-color="rgb(96.202087%, 97.277832%, 98.945618%)" offset="0.796875"/><stop stop-opacity="1" stop-color="rgb(96.482849%, 97.450256%, 98.99292%)" offset="0.8125"/><stop stop-opacity="1" stop-color="rgb(96.765137%, 97.622681%, 99.041748%)" offset="0.828125"/><stop stop-opacity="1" stop-color="rgb(97.045898%, 97.793579%, 99.090576%)" offset="0.84375"/><stop stop-opacity="1" stop-color="rgb(97.32666%, 97.966003%, 99.139404%)" offset="0.859375"/><stop stop-opacity="1" stop-color="rgb(97.608948%, 98.138428%, 99.186707%)" offset="0.875"/><stop stop-opacity="1" stop-color="rgb(97.889709%, 98.309326%, 99.235535%)" offset="0.890625"/><stop stop-opacity="1" stop-color="rgb(98.170471%, 98.48175%, 99.284363%)" offset="0.90625"/><stop stop-opacity="1" stop-color="rgb(98.452759%, 98.654175%, 99.333191%)" offset="0.921875"/><stop stop-opacity="1" stop-color="rgb(98.733521%, 98.825073%, 99.380493%)" offset="0.9375"/><stop stop-opacity="1" stop-color="rgb(99.014282%, 98.997498%, 99.429321%)" offset="0.953125"/><stop stop-opacity="1" stop-color="rgb(99.29657%, 99.168396%, 99.478149%)" offset="0.96875"/><stop stop-opacity="1" stop-color="rgb(99.577332%, 99.34082%, 99.526978%)" offset="0.984375"/><stop stop-opacity="1" stop-color="rgb(99.858093%, 99.513245%, 99.57428%)" offset="1"/></linearGradient><clipPath id="d6ae6c1969"><path d="M 42.667969 44.476562 L 341.167969 44.476562 L 341.167969 280.527344 L 42.667969 280.527344 Z M 42.667969 44.476562 " clip-rule="nonzero"/></clipPath><clipPath id="9bbce933de"><path d="M 341.167969 193.570312 C 341.167969 111.25 274.347656 44.515625 191.917969 44.515625 C 109.488281 44.515625 42.667969 111.25 42.667969 193.570312 C 42.667969 226.09375 53.109375 256.179688 70.8125 280.683594 C 55.660156 257.230469 46.832031 229.121094 46.832031 198.898438 C 46.832031 116.882812 111.789062 50.394531 191.921875 50.394531 C 272.050781 50.394531 337.007812 116.882812 337.007812 198.898438 C 337.007812 229.121094 328.175781 257.230469 313.027344 280.683594 C 330.730469 256.179688 341.171875 226.09375 341.171875 193.570312 Z M 341.167969 193.570312 " clip-rule="evenodd"/></clipPath><linearGradient x1="4633.110558" gradientTransform="matrix(0, -0.0509743, -0.0510413, 0, 341.169426, 280.684626)" y1="2924.1001" x2="3.114806" gradientUnits="userSpaceOnUse" y2="2924.1001" id="ddbdf8487e"><stop stop-opacity="1" stop-color="rgb(8.737183%, 48.449707%, 75.064087%)" offset="0"/><stop stop-opacity="1" stop-color="rgb(8.830261%, 48.280334%, 74.928284%)" offset="0.015625"/><stop stop-opacity="1" stop-color="rgb(9.016418%, 47.941589%, 74.656677%)" offset="0.03125"/><stop stop-opacity="1" stop-color="rgb(9.204102%, 47.60437%, 74.383545%)" offset="0.046875"/><stop stop-opacity="1" stop-color="rgb(9.390259%, 47.265625%, 74.111938%)" offset="0.0625"/><stop stop-opacity="1" stop-color="rgb(9.576416%, 46.92688%, 73.840332%)" offset="0.078125"/><stop stop-opacity="1" stop-color="rgb(9.762573%, 46.588135%, 73.568726%)" offset="0.09375"/><stop stop-opacity="1" stop-color="rgb(9.950256%, 46.24939%, 73.295593%)" offset="0.109375"/><stop stop-opacity="1" stop-color="rgb(10.136414%, 45.91217%, 73.023987%)" offset="0.125"/><stop stop-opacity="1" stop-color="rgb(10.322571%, 45.573425%, 72.75238%)" offset="0.140625"/><stop stop-opacity="1" stop-color="rgb(10.510254%, 45.23468%, 72.480774%)" offset="0.15625"/><stop stop-opacity="1" stop-color="rgb(10.696411%, 44.895935%, 72.209167%)" offset="0.171875"/><stop stop-opacity="1" stop-color="rgb(10.882568%, 44.55719%, 71.936035%)" offset="0.1875"/><stop stop-opacity="1" stop-color="rgb(11.068726%, 44.219971%, 71.664429%)" offset="0.203125"/><stop stop-opacity="1" stop-color="rgb(11.256409%, 43.881226%, 71.392822%)" offset="0.21875"/><stop stop-opacity="1" stop-color="rgb(11.442566%, 43.54248%, 71.121216%)" offset="0.234375"/><stop stop-opacity="1" stop-color="rgb(11.628723%, 43.203735%, 70.848083%)" offset="0.25"/><stop stop-opacity="1" stop-color="rgb(11.816406%, 42.86499%, 70.576477%)" offset="0.265625"/><stop stop-opacity="1" stop-color="rgb(12.002563%, 42.526245%, 70.304871%)" offset="0.28125"/><stop stop-opacity="1" stop-color="rgb(12.188721%, 42.189026%, 70.033264%)" offset="0.296875"/><stop stop-opacity="1" stop-color="rgb(12.374878%, 41.850281%, 69.760132%)" offset="0.3125"/><stop stop-opacity="1" stop-color="rgb(12.562561%, 41.511536%, 69.488525%)" offset="0.328125"/><stop stop-opacity="1" stop-color="rgb(12.748718%, 41.172791%, 69.216919%)" offset="0.34375"/><stop stop-opacity="1" stop-color="rgb(12.934875%, 40.834045%, 68.945312%)" offset="0.359375"/><stop stop-opacity="1" stop-color="rgb(13.122559%, 40.496826%, 68.673706%)" offset="0.375"/><stop stop-opacity="1" stop-color="rgb(13.308716%, 40.158081%, 68.400574%)" offset="0.390625"/><stop stop-opacity="1" stop-color="rgb(13.494873%, 39.819336%, 68.128967%)" offset="0.40625"/><stop stop-opacity="1" stop-color="rgb(13.68103%, 39.480591%, 67.857361%)" offset="0.421875"/><stop stop-opacity="1" stop-color="rgb(13.868713%, 39.141846%, 67.585754%)" offset="0.4375"/><stop stop-opacity="1" stop-color="rgb(14.054871%, 38.804626%, 67.312622%)" offset="0.453125"/><stop stop-opacity="1" stop-color="rgb(14.241028%, 38.465881%, 67.041016%)" offset="0.46875"/><stop stop-opacity="1" stop-color="rgb(14.428711%, 38.127136%, 66.769409%)" offset="0.484375"/><stop stop-opacity="1" stop-color="rgb(14.614868%, 37.788391%, 66.497803%)" offset="0.5"/><stop stop-opacity="1" stop-color="rgb(14.801025%, 37.449646%, 66.226196%)" offset="0.515625"/><stop stop-opacity="1" stop-color="rgb(14.987183%, 37.112427%, 65.953064%)" offset="0.53125"/><stop stop-opacity="1" stop-color="rgb(15.174866%, 36.773682%, 65.681458%)" offset="0.546875"/><stop stop-opacity="1" stop-color="rgb(15.361023%, 36.434937%, 65.409851%)" offset="0.5625"/><stop stop-opacity="1" stop-color="rgb(15.54718%, 36.096191%, 65.138245%)" offset="0.578125"/><stop stop-opacity="1" stop-color="rgb(15.734863%, 35.757446%, 64.865112%)" offset="0.59375"/><stop stop-opacity="1" stop-color="rgb(15.921021%, 35.420227%, 64.593506%)" offset="0.609375"/><stop stop-opacity="1" stop-color="rgb(16.107178%, 35.081482%, 64.321899%)" offset="0.625"/><stop stop-opacity="1" stop-color="rgb(16.294861%, 34.742737%, 64.050293%)" offset="0.640625"/><stop stop-opacity="1" stop-color="rgb(16.481018%, 34.403992%, 63.777161%)" offset="0.65625"/><stop stop-opacity="1" stop-color="rgb(16.667175%, 34.065247%, 63.505554%)" offset="0.671875"/><stop stop-opacity="1" stop-color="rgb(16.853333%, 33.726501%, 63.233948%)" offset="0.6875"/><stop stop-opacity="1" stop-color="rgb(17.041016%, 33.389282%, 62.962341%)" offset="0.703125"/><stop stop-opacity="1" stop-color="rgb(17.227173%, 33.050537%, 62.690735%)" offset="0.71875"/><stop stop-opacity="1" stop-color="rgb(17.41333%, 32.711792%, 62.417603%)" offset="0.734375"/><stop stop-opacity="1" stop-color="rgb(17.601013%, 32.373047%, 62.145996%)" offset="0.75"/><stop stop-opacity="1" stop-color="rgb(17.78717%, 32.034302%, 61.87439%)" offset="0.765625"/><stop stop-opacity="1" stop-color="rgb(17.973328%, 31.697083%, 61.602783%)" offset="0.78125"/><stop stop-opacity="1" stop-color="rgb(18.159485%, 31.358337%, 61.329651%)" offset="0.796875"/><stop stop-opacity="1" stop-color="rgb(18.347168%, 31.019592%, 61.058044%)" offset="0.8125"/><stop stop-opacity="1" stop-color="rgb(18.533325%, 30.680847%, 60.786438%)" offset="0.828125"/><stop stop-opacity="1" stop-color="rgb(18.714905%, 30.349731%, 60.520935%)" offset="0.84375"/><stop stop-opacity="1" stop-color="rgb(18.859863%, 30.044556%, 60.279846%)" offset="0.875"/><stop stop-opacity="1" stop-color="rgb(18.972778%, 29.75769%, 60.057068%)" offset="0.90625"/><stop stop-opacity="1" stop-color="rgb(19.085693%, 29.472351%, 59.835815%)" offset="0.9375"/><stop stop-opacity="1" stop-color="rgb(19.198608%, 29.185486%, 59.613037%)" offset="0.96875"/><stop stop-opacity="1" stop-color="rgb(19.311523%, 28.898621%, 59.391785%)" offset="1"/></linearGradient><clipPath id="576f31402b"><path d="M 145 122 L 292 122 L 292 282 L 145 282 Z M 145 122 " clip-rule="nonzero"/></clipPath><clipPath id="c47bd1c127"><path d="M 101.585938 222.425781 L 191.996094 91.632812 L 322.789062 182.042969 L 232.378906 312.835938 Z M 101.585938 222.425781 " clip-rule="nonzero"/></clipPath><clipPath id="973651312e"><path d="M 192.109375 91.46875 L 101.699219 222.261719 L 232.492188 312.671875 L 322.902344 181.878906 Z M 192.109375 91.46875 " clip-rule="nonzero"/></clipPath><clipPath id="9ea5ac30ec"><path d="M 97.117188 187 L 226.867188 187 L 226.867188 232.480469 L 97.117188 232.480469 Z M 97.117188 187 " clip-rule="nonzero"/></clipPath><clipPath id="3477656223"><path d="M 97.117188 44.980469 L 142 44.980469 L 142 232.480469 L 97.117188 232.480469 Z M 97.117188 44.980469 " clip-rule="nonzero"/></clipPath></defs><rect x="-37.5" fill="url(#19a43aee3a)" width="450" y="-37.499999" height="449.999989"/><g clip-path="url(#d6ae6c1969)"><g clip-path="url(#9bbce933de)"><path fill="url(#ddbdf8487e)" d="M 341.167969 280.527344 L 42.667969 280.527344 L 42.667969 44.515625 L 341.167969 44.515625 Z M 341.167969 280.527344 " fill-rule="nonzero"/></g></g><g clip-path="url(#576f31402b)"><g clip-path="url(#c47bd1c127)"><g clip-path="url(#973651312e)"><path fill="#004aad" d="M 186.246094 236.28125 L 187.925781 237.441406 C 207.367188 250.882812 234.121094 246 247.558594 226.5625 C 260.988281 207.132812 256.113281 180.398438 236.695312 166.953125 C 217.257812 153.535156 190.527344 158.425781 177.09375 177.855469 L 175.9375 179.53125 L 145.71875 158.644531 L 146.878906 156.96875 C 171.8125 120.898438 221.464844 111.804688 257.617188 136.75 C 293.667969 161.714844 302.707031 211.378906 277.773438 247.449219 C 252.816406 283.554688 203.140625 292.621094 167.035156 267.664062 L 165.355469 266.503906 L 186.246094 236.28125 " fill-opacity="1" fill-rule="nonzero"/></g></g></g><g clip-path="url(#9ea5ac30ec)"><path fill="#004aad" d="M 226.734375 232.746094 L 141.929688 232.746094 L 97.140625 187.957031 L 181.945312 187.957031 Z M 226.734375 232.746094 " fill-opacity="1" fill-rule="evenodd"/></g><g clip-path="url(#3477656223)"><path fill="#276ecc" d="M 141.929688 89.769531 L 141.929688 232.746094 L 97.140625 187.957031 L 97.140625 44.980469 Z M 141.929688 89.769531 " fill-opacity="1" fill-rule="evenodd"/></g><g fill="#004aad" fill-opacity="1"><g transform="translate(58.075147, 315.705154)"><g><path d="M 2.125 0 C 2.03125 0 1.953125 -0.03125 1.890625 -0.09375 C 1.828125 -0.164062 1.796875 -0.25 1.796875 -0.34375 L 1.796875 -19.265625 C 1.796875 -19.359375 1.828125 -19.4375 1.890625 -19.5 C 1.953125 -19.5625 2.03125 -19.59375 2.125 -19.59375 L 4.703125 -19.59375 C 4.796875 -19.59375 4.875 -19.5625 4.9375 -19.5 C 5.007812 -19.4375 5.046875 -19.359375 5.046875 -19.265625 L 5.046875 -2.9375 C 5.046875 -2.84375 5.09375 -2.796875 5.1875 -2.796875 L 12.875 -2.796875 C 12.96875 -2.796875 13.046875 -2.765625 13.109375 -2.703125 C 13.179688 -2.640625 13.21875 -2.5625 13.21875 -2.46875 L 13.21875 -0.34375 C 13.21875 -0.25 13.179688 -0.164062 13.109375 -0.09375 C 13.046875 -0.03125 12.96875 0 12.875 0 Z M 2.125 0 "/></g></g></g><g fill="#004aad" fill-opacity="1"><g transform="translate(71.877258, 315.705154)"><g><path d="M 2.125 0 C 2.03125 0 1.953125 -0.03125 1.890625 -0.09375 C 1.828125 -0.164062 1.796875 -0.25 1.796875 -0.34375 L 1.796875 -19.265625 C 1.796875 -19.359375 1.828125 -19.4375 1.890625 -19.5 C 1.953125 -19.5625 2.03125 -19.59375 2.125 -19.59375 L 4.703125 -19.59375 C 4.796875 -19.59375 4.875 -19.5625 4.9375 -19.5 C 5.007812 -19.4375 5.046875 -19.359375 5.046875 -19.265625 L 5.046875 -0.34375 C 5.046875 -0.25 5.007812 -0.164062 4.9375 -0.09375 C 4.875 -0.03125 4.796875 0 4.703125 0 Z M 2.125 0 "/></g></g></g><g fill="#004aad" fill-opacity="1"><g transform="translate(78.680336, 315.705154)"><g><path d="M 7.53125 0.21875 C 6.320312 0.21875 5.25 -0.0234375 4.3125 -0.515625 C 3.375 -1.015625 2.648438 -1.710938 2.140625 -2.609375 C 1.628906 -3.503906 1.375 -4.539062 1.375 -5.71875 L 1.375 -13.9375 C 1.375 -15.113281 1.628906 -16.144531 2.140625 -17.03125 C 2.648438 -17.925781 3.375 -18.613281 4.3125 -19.09375 C 5.25 -19.582031 6.320312 -19.828125 7.53125 -19.828125 C 8.75 -19.828125 9.820312 -19.585938 10.75 -19.109375 C 11.6875 -18.628906 12.410156 -17.957031 12.921875 -17.09375 C 13.429688 -16.226562 13.6875 -15.21875 13.6875 -14.0625 L 13.6875 -13.890625 C 13.6875 -13.796875 13.65625 -13.710938 13.59375 -13.640625 C 13.53125 -13.566406 13.453125 -13.53125 13.359375 -13.53125 L 10.75 -13.40625 C 10.53125 -13.40625 10.421875 -13.519531 10.421875 -13.75 L 10.421875 -14.078125 C 10.421875 -14.960938 10.148438 -15.675781 9.609375 -16.21875 C 9.078125 -16.757812 8.382812 -17.03125 7.53125 -17.03125 C 6.65625 -17.03125 5.953125 -16.757812 5.421875 -16.21875 C 4.890625 -15.675781 4.625 -14.960938 4.625 -14.078125 L 4.625 -5.484375 C 4.625 -4.609375 4.890625 -3.90625 5.421875 -3.375 C 5.953125 -2.84375 6.65625 -2.578125 7.53125 -2.578125 C 8.382812 -2.578125 9.078125 -2.84375 9.609375 -3.375 C 10.148438 -3.90625 10.421875 -4.609375 10.421875 -5.484375 L 10.421875 -5.859375 C 10.421875 -6.054688 10.53125 -6.15625 10.75 -6.15625 L 13.359375 -6.046875 C 13.453125 -6.046875 13.53125 -6.015625 13.59375 -5.953125 C 13.65625 -5.890625 13.6875 -5.8125 13.6875 -5.71875 L 13.6875 -5.59375 C 13.6875 -4.4375 13.429688 -3.414062 12.921875 -2.53125 C 12.410156 -1.644531 11.6875 -0.960938 10.75 -0.484375 C 9.820312 -0.015625 8.75 0.21875 7.53125 0.21875 Z M 7.53125 0.21875 "/></g></g></g><g fill="#004aad" fill-opacity="1"><g transform="translate(93.602297, 315.705154)"><g><path d="M 13.296875 -17.140625 C 13.296875 -17.046875 13.265625 -16.960938 13.203125 -16.890625 C 13.140625 -16.828125 13.0625 -16.796875 12.96875 -16.796875 L 5.1875 -16.796875 C 5.09375 -16.796875 5.046875 -16.75 5.046875 -16.65625 L 5.046875 -11.390625 C 5.046875 -11.296875 5.09375 -11.25 5.1875 -11.25 L 10.15625 -11.25 C 10.25 -11.25 10.328125 -11.21875 10.390625 -11.15625 C 10.460938 -11.09375 10.5 -11.015625 10.5 -10.921875 L 10.5 -8.796875 C 10.5 -8.703125 10.460938 -8.617188 10.390625 -8.546875 C 10.328125 -8.484375 10.25 -8.453125 10.15625 -8.453125 L 5.1875 -8.453125 C 5.09375 -8.453125 5.046875 -8.40625 5.046875 -8.3125 L 5.046875 -2.9375 C 5.046875 -2.84375 5.09375 -2.796875 5.1875 -2.796875 L 12.96875 -2.796875 C 13.0625 -2.796875 13.140625 -2.765625 13.203125 -2.703125 C 13.265625 -2.640625 13.296875 -2.5625 13.296875 -2.46875 L 13.296875 -0.34375 C 13.296875 -0.25 13.265625 -0.164062 13.203125 -0.09375 C 13.140625 -0.03125 13.0625 0 12.96875 0 L 2.125 0 C 2.03125 0 1.953125 -0.03125 1.890625 -0.09375 C 1.828125 -0.164062 1.796875 -0.25 1.796875 -0.34375 L 1.796875 -19.265625 C 1.796875 -19.359375 1.828125 -19.4375 1.890625 -19.5 C 1.953125 -19.5625 2.03125 -19.59375 2.125 -19.59375 L 12.96875 -19.59375 C 13.0625 -19.59375 13.140625 -19.5625 13.203125 -19.5 C 13.265625 -19.4375 13.296875 -19.359375 13.296875 -19.265625 Z M 13.296875 -17.140625 "/></g></g></g><g fill="#004aad" fill-opacity="1"><g transform="translate(107.964334, 315.705154)"><g><path d="M 11.140625 0 C 10.941406 0 10.8125 -0.09375 10.75 -0.28125 L 7.734375 -8.3125 C 7.691406 -8.382812 7.644531 -8.421875 7.59375 -8.421875 L 5.1875 -8.421875 C 5.09375 -8.421875 5.046875 -8.375 5.046875 -8.28125 L 5.046875 -0.34375 C 5.046875 -0.25 5.007812 -0.164062 4.9375 -0.09375 C 4.875 -0.03125 4.796875 0 4.703125 0 L 2.125 0 C 2.03125 0 1.953125 -0.03125 1.890625 -0.09375 C 1.828125 -0.164062 1.796875 -0.25 1.796875 -0.34375 L 1.796875 -19.265625 C 1.796875 -19.359375 1.828125 -19.4375 1.890625 -19.5 C 1.953125 -19.5625 2.03125 -19.59375 2.125 -19.59375 L 8.59375 -19.59375 C 9.65625 -19.59375 10.597656 -19.351562 11.421875 -18.875 C 12.242188 -18.40625 12.878906 -17.734375 13.328125 -16.859375 C 13.773438 -15.992188 14 -15.003906 14 -13.890625 C 14 -12.671875 13.71875 -11.613281 13.15625 -10.71875 C 12.59375 -9.820312 11.828125 -9.1875 10.859375 -8.8125 C 10.765625 -8.78125 10.738281 -8.71875 10.78125 -8.625 L 14.078125 -0.390625 C 14.097656 -0.359375 14.109375 -0.300781 14.109375 -0.21875 C 14.109375 -0.0703125 14.015625 0 13.828125 0 Z M 5.1875 -16.796875 C 5.09375 -16.796875 5.046875 -16.75 5.046875 -16.65625 L 5.046875 -11.09375 C 5.046875 -11 5.09375 -10.953125 5.1875 -10.953125 L 8.125 -10.953125 C 8.90625 -10.953125 9.535156 -11.21875 10.015625 -11.75 C 10.503906 -12.28125 10.75 -12.984375 10.75 -13.859375 C 10.75 -14.753906 10.503906 -15.46875 10.015625 -16 C 9.535156 -16.53125 8.90625 -16.796875 8.125 -16.796875 Z M 5.1875 -16.796875 "/></g></g></g><g fill="#004aad" fill-opacity="1"><g transform="translate(122.998288, 315.705154)"><g><path d="M 2.125 0 C 2.03125 0 1.953125 -0.03125 1.890625 -0.09375 C 1.828125 -0.164062 1.796875 -0.25 1.796875 -0.34375 L 1.796875 -19.265625 C 1.796875 -19.359375 1.828125 -19.4375 1.890625 -19.5 C 1.953125 -19.5625 2.03125 -19.59375 2.125 -19.59375 L 4.703125 -19.59375 C 4.796875 -19.59375 4.875 -19.5625 4.9375 -19.5 C 5.007812 -19.4375 5.046875 -19.359375 5.046875 -19.265625 L 5.046875 -0.34375 C 5.046875 -0.25 5.007812 -0.164062 4.9375 -0.09375 C 4.875 -0.03125 4.796875 0 4.703125 0 Z M 2.125 0 "/></g></g></g><g fill="#004aad" fill-opacity="1"><g transform="translate(129.801365, 315.705154)"><g><path d="M 11.84375 0 C 11.632812 0 11.503906 -0.09375 11.453125 -0.28125 L 10.71875 -3.28125 C 10.707031 -3.351562 10.660156 -3.390625 10.578125 -3.390625 L 4.8125 -3.390625 C 4.738281 -3.390625 4.691406 -3.351562 4.671875 -3.28125 L 3.96875 -0.28125 C 3.914062 -0.09375 3.785156 0 3.578125 0 L 0.921875 0 C 0.679688 0 0.585938 -0.117188 0.640625 -0.359375 L 5.734375 -19.3125 C 5.796875 -19.5 5.925781 -19.59375 6.125 -19.59375 L 9.328125 -19.59375 C 9.523438 -19.59375 9.65625 -19.5 9.71875 -19.3125 L 14.8125 -0.359375 L 14.84375 -0.25 C 14.84375 -0.0820312 14.738281 0 14.53125 0 Z M 5.34375 -6.109375 C 5.320312 -6.046875 5.332031 -6 5.375 -5.96875 C 5.414062 -5.945312 5.453125 -5.9375 5.484375 -5.9375 L 9.90625 -5.9375 C 9.945312 -5.9375 9.984375 -5.945312 10.015625 -5.96875 C 10.054688 -6 10.066406 -6.046875 10.046875 -6.109375 L 7.75 -15.28125 C 7.738281 -15.34375 7.710938 -15.375 7.671875 -15.375 C 7.628906 -15.375 7.601562 -15.34375 7.59375 -15.28125 Z M 5.34375 -6.109375 "/></g></g></g><g fill="#004aad" fill-opacity="1"><g transform="translate(145.25526, 315.705154)"><g/></g></g><g fill="#004aad" fill-opacity="1"><g transform="translate(150.854499, 315.705154)"><g><path d="M 16.40625 -0.421875 C 16.457031 -0.347656 16.484375 -0.273438 16.484375 -0.203125 C 16.484375 -0.0664062 16.394531 0 16.21875 0 L 13.359375 0 C 13.191406 0 13.050781 -0.0664062 12.9375 -0.203125 L 11.90625 -1.421875 C 11.84375 -1.503906 11.773438 -1.515625 11.703125 -1.453125 C 10.148438 -0.316406 8.441406 0.25 6.578125 0.25 C 4.921875 0.25 3.582031 -0.160156 2.5625 -0.984375 C 1.539062 -1.804688 1.03125 -3 1.03125 -4.5625 C 1.03125 -5.8125 1.34375 -6.875 1.96875 -7.75 C 2.59375 -8.632812 3.445312 -9.445312 4.53125 -10.1875 C 4.59375 -10.25 4.601562 -10.316406 4.5625 -10.390625 C 3.625 -11.617188 3.007812 -12.539062 2.71875 -13.15625 C 2.4375 -13.769531 2.296875 -14.429688 2.296875 -15.140625 C 2.296875 -16.523438 2.753906 -17.648438 3.671875 -18.515625 C 4.597656 -19.390625 5.820312 -19.828125 7.34375 -19.828125 C 8.34375 -19.828125 9.242188 -19.625 10.046875 -19.21875 C 10.847656 -18.820312 11.472656 -18.257812 11.921875 -17.53125 C 12.367188 -16.800781 12.59375 -15.960938 12.59375 -15.015625 C 12.59375 -13.847656 12.285156 -12.84375 11.671875 -12 C 11.054688 -11.164062 10.207031 -10.382812 9.125 -9.65625 C 9.070312 -9.601562 9.0625 -9.539062 9.09375 -9.46875 C 9.71875 -8.769531 10.515625 -7.816406 11.484375 -6.609375 L 11.953125 -5.984375 C 12.023438 -5.910156 12.101562 -5.90625 12.1875 -5.96875 C 12.757812 -6.75 13.242188 -7.472656 13.640625 -8.140625 C 13.765625 -8.328125 13.910156 -8.367188 14.078125 -8.265625 L 15.984375 -7.171875 C 16.171875 -7.035156 16.207031 -6.882812 16.09375 -6.71875 C 15.445312 -5.613281 14.75 -4.585938 14 -3.640625 C 13.945312 -3.585938 13.945312 -3.53125 14 -3.46875 Z M 7.453125 -16.859375 C 6.867188 -16.859375 6.40625 -16.679688 6.0625 -16.328125 C 5.71875 -15.972656 5.546875 -15.503906 5.546875 -14.921875 C 5.546875 -14.566406 5.640625 -14.203125 5.828125 -13.828125 C 6.015625 -13.453125 6.425781 -12.859375 7.0625 -12.046875 C 7.113281 -11.960938 7.175781 -11.953125 7.25 -12.015625 C 7.925781 -12.484375 8.445312 -12.945312 8.8125 -13.40625 C 9.175781 -13.875 9.359375 -14.398438 9.359375 -14.984375 C 9.359375 -15.535156 9.175781 -15.984375 8.8125 -16.328125 C 8.457031 -16.679688 8.003906 -16.859375 7.453125 -16.859375 Z M 6.78125 -2.546875 C 7.78125 -2.546875 8.804688 -2.929688 9.859375 -3.703125 C 9.953125 -3.753906 9.960938 -3.816406 9.890625 -3.890625 L 8.484375 -5.578125 L 8.0625 -6.078125 L 6.640625 -7.8125 C 6.578125 -7.882812 6.507812 -7.894531 6.4375 -7.84375 C 5.769531 -7.351562 5.25 -6.859375 4.875 -6.359375 C 4.5 -5.867188 4.3125 -5.316406 4.3125 -4.703125 C 4.3125 -4.046875 4.53125 -3.519531 4.96875 -3.125 C 5.40625 -2.738281 6.007812 -2.546875 6.78125 -2.546875 Z M 6.78125 -2.546875 "/></g></g></g><g fill="#004aad" fill-opacity="1"><g transform="translate(168.63207, 315.705154)"><g/></g></g><g fill="#004aad" fill-opacity="1"><g transform="translate(174.231309, 315.705154)"><g><path d="M 7.53125 0.21875 C 6.320312 0.21875 5.25 -0.0234375 4.3125 -0.515625 C 3.375 -1.015625 2.648438 -1.710938 2.140625 -2.609375 C 1.628906 -3.503906 1.375 -4.539062 1.375 -5.71875 L 1.375 -13.9375 C 1.375 -15.113281 1.628906 -16.144531 2.140625 -17.03125 C 2.648438 -17.925781 3.375 -18.613281 4.3125 -19.09375 C 5.25 -19.582031 6.320312 -19.828125 7.53125 -19.828125 C 8.75 -19.828125 9.820312 -19.585938 10.75 -19.109375 C 11.6875 -18.628906 12.410156 -17.957031 12.921875 -17.09375 C 13.429688 -16.226562 13.6875 -15.21875 13.6875 -14.0625 L 13.6875 -13.890625 C 13.6875 -13.796875 13.65625 -13.710938 13.59375 -13.640625 C 13.53125 -13.566406 13.453125 -13.53125 13.359375 -13.53125 L 10.75 -13.40625 C 10.53125 -13.40625 10.421875 -13.519531 10.421875 -13.75 L 10.421875 -14.078125 C 10.421875 -14.960938 10.148438 -15.675781 9.609375 -16.21875 C 9.078125 -16.757812 8.382812 -17.03125 7.53125 -17.03125 C 6.65625 -17.03125 5.953125 -16.757812 5.421875 -16.21875 C 4.890625 -15.675781 4.625 -14.960938 4.625 -14.078125 L 4.625 -5.484375 C 4.625 -4.609375 4.890625 -3.90625 5.421875 -3.375 C 5.953125 -2.84375 6.65625 -2.578125 7.53125 -2.578125 C 8.382812 -2.578125 9.078125 -2.84375 9.609375 -3.375 C 10.148438 -3.90625 10.421875 -4.609375 10.421875 -5.484375 L 10.421875 -5.859375 C 10.421875 -6.054688 10.53125 -6.15625 10.75 -6.15625 L 13.359375 -6.046875 C 13.453125 -6.046875 13.53125 -6.015625 13.59375 -5.953125 C 13.65625 -5.890625 13.6875 -5.8125 13.6875 -5.71875 L 13.6875 -5.59375 C 13.6875 -4.4375 13.429688 -3.414062 12.921875 -2.53125 C 12.410156 -1.644531 11.6875 -0.960938 10.75 -0.484375 C 9.820312 -0.015625 8.75 0.21875 7.53125 0.21875 Z M 7.53125 0.21875 "/></g></g></g><g fill="#004aad" fill-opacity="1"><g transform="translate(189.153271, 315.705154)"><g><path d="M 7.59375 0.25 C 6.351562 0.25 5.257812 0 4.3125 -0.5 C 3.375 -1.007812 2.648438 -1.722656 2.140625 -2.640625 C 1.628906 -3.566406 1.375 -4.640625 1.375 -5.859375 L 1.375 -13.75 C 1.375 -14.945312 1.628906 -16.003906 2.140625 -16.921875 C 2.648438 -17.847656 3.375 -18.5625 4.3125 -19.0625 C 5.257812 -19.570312 6.351562 -19.828125 7.59375 -19.828125 C 8.84375 -19.828125 9.9375 -19.570312 10.875 -19.0625 C 11.820312 -18.5625 12.554688 -17.847656 13.078125 -16.921875 C 13.597656 -16.003906 13.859375 -14.945312 13.859375 -13.75 L 13.859375 -5.859375 C 13.859375 -4.640625 13.597656 -3.566406 13.078125 -2.640625 C 12.554688 -1.722656 11.820312 -1.007812 10.875 -0.5 C 9.9375 0 8.84375 0.25 7.59375 0.25 Z M 7.59375 -2.546875 C 8.5 -2.546875 9.226562 -2.835938 9.78125 -3.421875 C 10.332031 -4.015625 10.609375 -4.78125 10.609375 -5.71875 L 10.609375 -13.828125 C 10.609375 -14.785156 10.332031 -15.554688 9.78125 -16.140625 C 9.226562 -16.734375 8.5 -17.03125 7.59375 -17.03125 C 6.695312 -17.03125 5.976562 -16.734375 5.4375 -16.140625 C 4.894531 -15.554688 4.625 -14.785156 4.625 -13.828125 L 4.625 -5.71875 C 4.625 -4.78125 4.894531 -4.015625 5.4375 -3.421875 C 5.976562 -2.835938 6.695312 -2.546875 7.59375 -2.546875 Z M 7.59375 -2.546875 "/></g></g></g><g fill="#004aad" fill-opacity="1"><g transform="translate(204.383193, 315.705154)"><g><path d="M 3.359375 0.0625 C 2.773438 0.0625 2.296875 -0.125 1.921875 -0.5 C 1.554688 -0.875 1.375 -1.347656 1.375 -1.921875 C 1.375 -2.503906 1.554688 -2.984375 1.921875 -3.359375 C 2.296875 -3.734375 2.773438 -3.921875 3.359375 -3.921875 C 3.941406 -3.921875 4.410156 -3.734375 4.765625 -3.359375 C 5.128906 -2.984375 5.3125 -2.503906 5.3125 -1.921875 C 5.3125 -1.347656 5.125 -0.875 4.75 -0.5 C 4.382812 -0.125 3.921875 0.0625 3.359375 0.0625 Z M 3.359375 0.0625 "/></g></g></g><g fill="#004aad" fill-opacity="1"><g transform="translate(211.158266, 315.705154)"><g/></g></g><g fill="#004aad" fill-opacity="1"><g transform="translate(216.757505, 315.705154)"><g><path d="M 7.53125 0.21875 C 6.320312 0.21875 5.25 -0.0234375 4.3125 -0.515625 C 3.375 -1.015625 2.648438 -1.710938 2.140625 -2.609375 C 1.628906 -3.503906 1.375 -4.539062 1.375 -5.71875 L 1.375 -13.9375 C 1.375 -15.113281 1.628906 -16.144531 2.140625 -17.03125 C 2.648438 -17.925781 3.375 -18.613281 4.3125 -19.09375 C 5.25 -19.582031 6.320312 -19.828125 7.53125 -19.828125 C 8.75 -19.828125 9.820312 -19.585938 10.75 -19.109375 C 11.6875 -18.628906 12.410156 -17.957031 12.921875 -17.09375 C 13.429688 -16.226562 13.6875 -15.21875 13.6875 -14.0625 L 13.6875 -13.890625 C 13.6875 -13.796875 13.65625 -13.710938 13.59375 -13.640625 C 13.53125 -13.566406 13.453125 -13.53125 13.359375 -13.53125 L 10.75 -13.40625 C 10.53125 -13.40625 10.421875 -13.519531 10.421875 -13.75 L 10.421875 -14.078125 C 10.421875 -14.960938 10.148438 -15.675781 9.609375 -16.21875 C 9.078125 -16.757812 8.382812 -17.03125 7.53125 -17.03125 C 6.65625 -17.03125 5.953125 -16.757812 5.421875 -16.21875 C 4.890625 -15.675781 4.625 -14.960938 4.625 -14.078125 L 4.625 -5.484375 C 4.625 -4.609375 4.890625 -3.90625 5.421875 -3.375 C 5.953125 -2.84375 6.65625 -2.578125 7.53125 -2.578125 C 8.382812 -2.578125 9.078125 -2.84375 9.609375 -3.375 C 10.148438 -3.90625 10.421875 -4.609375 10.421875 -5.484375 L 10.421875 -5.859375 C 10.421875 -6.054688 10.53125 -6.15625 10.75 -6.15625 L 13.359375 -6.046875 C 13.453125 -6.046875 13.53125 -6.015625 13.59375 -5.953125 C 13.65625 -5.890625 13.6875 -5.8125 13.6875 -5.71875 L 13.6875 -5.59375 C 13.6875 -4.4375 13.429688 -3.414062 12.921875 -2.53125 C 12.410156 -1.644531 11.6875 -0.960938 10.75 -0.484375 C 9.820312 -0.015625 8.75 0.21875 7.53125 0.21875 Z M 7.53125 0.21875 "/></g></g></g><g fill="#004aad" fill-opacity="1"><g transform="translate(231.679467, 315.705154)"><g><path d="M 7.59375 0.25 C 6.351562 0.25 5.257812 0 4.3125 -0.5 C 3.375 -1.007812 2.648438 -1.722656 2.140625 -2.640625 C 1.628906 -3.566406 1.375 -4.640625 1.375 -5.859375 L 1.375 -13.75 C 1.375 -14.945312 1.628906 -16.003906 2.140625 -16.921875 C 2.648438 -17.847656 3.375 -18.5625 4.3125 -19.0625 C 5.257812 -19.570312 6.351562 -19.828125 7.59375 -19.828125 C 8.84375 -19.828125 9.9375 -19.570312 10.875 -19.0625 C 11.820312 -18.5625 12.554688 -17.847656 13.078125 -16.921875 C 13.597656 -16.003906 13.859375 -14.945312 13.859375 -13.75 L 13.859375 -5.859375 C 13.859375 -4.640625 13.597656 -3.566406 13.078125 -2.640625 C 12.554688 -1.722656 11.820312 -1.007812 10.875 -0.5 C 9.9375 0 8.84375 0.25 7.59375 0.25 Z M 7.59375 -2.546875 C 8.5 -2.546875 9.226562 -2.835938 9.78125 -3.421875 C 10.332031 -4.015625 10.609375 -4.78125 10.609375 -5.71875 L 10.609375 -13.828125 C 10.609375 -14.785156 10.332031 -15.554688 9.78125 -16.140625 C 9.226562 -16.734375 8.5 -17.03125 7.59375 -17.03125 C 6.695312 -17.03125 5.976562 -16.734375 5.4375 -16.140625 C 4.894531 -15.554688 4.625 -14.785156 4.625 -13.828125 L 4.625 -5.71875 C 4.625 -4.78125 4.894531 -4.015625 5.4375 -3.421875 C 5.976562 -2.835938 6.695312 -2.546875 7.59375 -2.546875 Z M 7.59375 -2.546875 "/></g></g></g><g fill="#004aad" fill-opacity="1"><g transform="translate(246.909389, 315.705154)"><g><path d="M 12.484375 -19.375 C 12.554688 -19.519531 12.6875 -19.59375 12.875 -19.59375 L 15.484375 -19.59375 C 15.578125 -19.59375 15.65625 -19.5625 15.71875 -19.5 C 15.78125 -19.4375 15.8125 -19.359375 15.8125 -19.265625 L 15.8125 -0.34375 C 15.8125 -0.25 15.78125 -0.164062 15.71875 -0.09375 C 15.65625 -0.03125 15.578125 0 15.484375 0 L 12.90625 0 C 12.8125 0 12.734375 -0.03125 12.671875 -0.09375 C 12.609375 -0.164062 12.578125 -0.25 12.578125 -0.34375 L 12.578125 -13.609375 C 12.578125 -13.679688 12.554688 -13.722656 12.515625 -13.734375 C 12.472656 -13.742188 12.4375 -13.71875 12.40625 -13.65625 L 9.4375 -8.765625 C 9.363281 -8.617188 9.234375 -8.546875 9.046875 -8.546875 L 8.515625 -8.546875 C 8.328125 -8.546875 8.195312 -8.617188 8.125 -8.765625 L 5.15625 -13.640625 C 5.113281 -13.691406 5.070312 -13.710938 5.03125 -13.703125 C 5 -13.691406 4.984375 -13.648438 4.984375 -13.578125 L 4.984375 -0.34375 C 4.984375 -0.25 4.945312 -0.164062 4.875 -0.09375 C 4.8125 -0.03125 4.734375 0 4.640625 0 L 2.078125 0 C 1.984375 0 1.898438 -0.03125 1.828125 -0.09375 C 1.765625 -0.164062 1.734375 -0.25 1.734375 -0.34375 L 1.734375 -19.265625 C 1.734375 -19.359375 1.765625 -19.4375 1.828125 -19.5 C 1.898438 -19.5625 1.984375 -19.59375 2.078125 -19.59375 L 4.640625 -19.59375 C 4.828125 -19.59375 4.960938 -19.519531 5.046875 -19.375 L 8.703125 -13.53125 C 8.765625 -13.414062 8.820312 -13.414062 8.875 -13.53125 Z M 12.484375 -19.375 "/></g></g></g><g fill="#004aad" fill-opacity="1"><g transform="translate(264.463011, 315.705154)"><g><path d="M 8.484375 -19.625 C 9.566406 -19.625 10.519531 -19.378906 11.34375 -18.890625 C 12.175781 -18.410156 12.820312 -17.726562 13.28125 -16.84375 C 13.738281 -15.957031 13.96875 -14.941406 13.96875 -13.796875 C 13.96875 -12.679688 13.738281 -11.691406 13.28125 -10.828125 C 12.820312 -9.972656 12.175781 -9.304688 11.34375 -8.828125 C 10.519531 -8.359375 9.578125 -8.125 8.515625 -8.125 L 5.0625 -8.125 C 4.96875 -8.125 4.921875 -8.078125 4.921875 -7.984375 L 4.921875 -0.34375 C 4.921875 -0.25 4.890625 -0.164062 4.828125 -0.09375 C 4.765625 -0.03125 4.6875 0 4.59375 0 L 2.015625 0 C 1.921875 0 1.84375 -0.03125 1.78125 -0.09375 C 1.71875 -0.164062 1.6875 -0.25 1.6875 -0.34375 L 1.6875 -19.296875 C 1.6875 -19.390625 1.71875 -19.46875 1.78125 -19.53125 C 1.84375 -19.59375 1.921875 -19.625 2.015625 -19.625 Z M 8.015625 -10.71875 C 8.828125 -10.71875 9.476562 -10.992188 9.96875 -11.546875 C 10.46875 -12.097656 10.71875 -12.832031 10.71875 -13.75 C 10.71875 -14.675781 10.46875 -15.421875 9.96875 -15.984375 C 9.476562 -16.546875 8.828125 -16.828125 8.015625 -16.828125 L 5.0625 -16.828125 C 4.96875 -16.828125 4.921875 -16.78125 4.921875 -16.6875 L 4.921875 -10.859375 C 4.921875 -10.765625 4.96875 -10.71875 5.0625 -10.71875 Z M 8.015625 -10.71875 "/></g></g></g><g fill="#004aad" fill-opacity="1"><g transform="translate(279.188993, 315.705154)"><g><path d="M 11.84375 0 C 11.632812 0 11.503906 -0.09375 11.453125 -0.28125 L 10.71875 -3.28125 C 10.707031 -3.351562 10.660156 -3.390625 10.578125 -3.390625 L 4.8125 -3.390625 C 4.738281 -3.390625 4.691406 -3.351562 4.671875 -3.28125 L 3.96875 -0.28125 C 3.914062 -0.09375 3.785156 0 3.578125 0 L 0.921875 0 C 0.679688 0 0.585938 -0.117188 0.640625 -0.359375 L 5.734375 -19.3125 C 5.796875 -19.5 5.925781 -19.59375 6.125 -19.59375 L 9.328125 -19.59375 C 9.523438 -19.59375 9.65625 -19.5 9.71875 -19.3125 L 14.8125 -0.359375 L 14.84375 -0.25 C 14.84375 -0.0820312 14.738281 0 14.53125 0 Z M 5.34375 -6.109375 C 5.320312 -6.046875 5.332031 -6 5.375 -5.96875 C 5.414062 -5.945312 5.453125 -5.9375 5.484375 -5.9375 L 9.90625 -5.9375 C 9.945312 -5.9375 9.984375 -5.945312 10.015625 -5.96875 C 10.054688 -6 10.066406 -6.046875 10.046875 -6.109375 L 7.75 -15.28125 C 7.738281 -15.34375 7.710938 -15.375 7.671875 -15.375 C 7.628906 -15.375 7.601562 -15.34375 7.59375 -15.28125 Z M 5.34375 -6.109375 "/></g></g></g><g fill="#004aad" fill-opacity="1"><g transform="translate(294.642887, 315.705154)"><g><path d="M 11.453125 -19.265625 C 11.453125 -19.359375 11.484375 -19.4375 11.546875 -19.5 C 11.609375 -19.5625 11.6875 -19.59375 11.78125 -19.59375 L 14.359375 -19.59375 C 14.453125 -19.59375 14.53125 -19.5625 14.59375 -19.5 C 14.664062 -19.4375 14.703125 -19.359375 14.703125 -19.265625 L 14.703125 -0.34375 C 14.703125 -0.25 14.664062 -0.164062 14.59375 -0.09375 C 14.53125 -0.03125 14.453125 0 14.359375 0 L 11.640625 0 C 11.472656 0 11.34375 -0.0820312 11.25 -0.25 L 5.15625 -12.796875 C 5.113281 -12.847656 5.070312 -12.867188 5.03125 -12.859375 C 5 -12.859375 4.984375 -12.816406 4.984375 -12.734375 L 5.015625 -0.34375 C 5.015625 -0.25 4.976562 -0.164062 4.90625 -0.09375 C 4.84375 -0.03125 4.765625 0 4.671875 0 L 2.09375 0 C 2 0 1.921875 -0.03125 1.859375 -0.09375 C 1.796875 -0.164062 1.765625 -0.25 1.765625 -0.34375 L 1.765625 -19.265625 C 1.765625 -19.359375 1.796875 -19.4375 1.859375 -19.5 C 1.921875 -19.5625 2 -19.59375 2.09375 -19.59375 L 4.78125 -19.59375 C 4.96875 -19.59375 5.101562 -19.507812 5.1875 -19.34375 L 11.3125 -6.75 C 11.351562 -6.6875 11.390625 -6.660156 11.421875 -6.671875 C 11.460938 -6.679688 11.484375 -6.722656 11.484375 -6.796875 Z M 11.453125 -19.265625 "/></g></g></g><g fill="#004aad" fill-opacity="1"><g transform="translate(311.10464, 315.705154)"><g><path d="M 6.109375 -0.03125 C 6.015625 -0.03125 5.929688 -0.0625 5.859375 -0.125 C 5.796875 -0.1875 5.765625 -0.265625 5.765625 -0.359375 L 5.765625 -7.921875 L 5.734375 -8.09375 L 0.890625 -19.203125 C 0.878906 -19.242188 0.875 -19.300781 0.875 -19.375 C 0.875 -19.519531 0.960938 -19.59375 1.140625 -19.59375 L 3.890625 -19.59375 C 4.097656 -19.59375 4.226562 -19.507812 4.28125 -19.34375 L 7.3125 -11.78125 C 7.363281 -11.65625 7.414062 -11.65625 7.46875 -11.78125 L 10.46875 -19.34375 C 10.53125 -19.507812 10.660156 -19.59375 10.859375 -19.59375 L 13.640625 -19.59375 C 13.765625 -19.59375 13.84375 -19.554688 13.875 -19.484375 C 13.914062 -19.410156 13.921875 -19.316406 13.890625 -19.203125 L 9.015625 -8.09375 L 8.984375 -7.921875 L 8.984375 -0.359375 C 8.984375 -0.265625 8.953125 -0.1875 8.890625 -0.125 C 8.828125 -0.0625 8.75 -0.03125 8.65625 -0.03125 Z M 6.109375 -0.03125 "/></g></g></g></svg>